<?xml version="1.0" standalone="no"?>
<!DOCTYPE svg PUBLIC "-//W3C//DTD SVG 1.1//EN" "http://www.w3.org/Graphics/SVG/1.1/DTD/svg11.dtd" >
<svg xmlns="http://www.w3.org/2000/svg">
<metadata></metadata>
<defs>
<font id="cooper_becker_poster_blackRg" horiz-adv-x="1024" vert-adv-y="2048" >
<font-face units-per-em="2048" ascent="1652" descent="-396" />
<missing-glyph horiz-adv-x="355" />
<glyph horiz-adv-x="0" vert-adv-y="0" />
<glyph horiz-adv-x="682" />
<glyph unicode=" " horiz-adv-x="355" vert-adv-y="1436" />
<glyph unicode="!" horiz-adv-x="600" vert-adv-y="1436" d="M57 231q0 115 78 187q79 73 184 73q68 0 136 -41q64 -38 96 -108q25 -54 25 -111q0 -112 -78 -186q-34 -33 -84.5 -53t-96.5 -20q-71 0 -139 41q-64 38 -96 108q-25 54 -25 110zM57 1062q0 118 56 193q72 96 199 96q101 0 171 -64q91 -84 91 -248q0 -210 -83 -443 q-19 -55 -45 -109q-67 33 -130 33q-56 0 -126 -31q-19 43 -33 80q-100 266 -100 493z" />
<glyph unicode="&#x22;" horiz-adv-x="707" vert-adv-y="1436" d="M14 1136q0 127 64 197q48 53 123 53q89 0 137 -79q40 -65 40 -154q0 -182 -103 -368q-49 -88 -77 -88q-38 0 -98 114q-86 159 -86 325zM366 929q39 124 39 224q0 78 -33 149q56 84 143 84q91 0 139 -79q40 -65 40 -154q0 -182 -103 -368q-48 -88 -76 -88q-38 0 -99 114 q-28 53 -50 118z" />
<glyph unicode="#" horiz-adv-x="1092" vert-adv-y="1436" d="M19 380q0 12 38 84q44 84 72 100q19 12 44 12q12 0 27 -2q12 -2 19 -2q24 0 30 39l7 57q2 11 2 16q0 25 -31 25q-30 0 -95 -5q-15 -1 -22 -1q-42 0 -42 32q0 14 38 84q45 84 72 100q19 12 44 12q12 0 28 -2q12 -2 19 -2q24 0 29 39l6 38q6 48 7 138q1 45 28 64 q31 21 110 47q59 20 81 20q13 0 23 -9t10 -21q0 -10 -7 -35q-5 -23 -16 -95l-20 -146q-2 -12 -2 -21q0 -26 43 -26h52q28 0 40 8q10 8 14 39l5 37q8 55 8 135q0 47 28 66q30 21 110 48q58 20 80 20q15 0 25 -11q8 -9 8 -19q0 -11 -7 -35q-5 -19 -15 -95l-20 -146 q-3 -18 -3 -25q0 -23 33 -23q72 0 94 3t28 3q32 0 32 -33q0 -20 -50 -118q-41 -78 -85 -78q-18 0 -45 5q-13 3 -20 3q-22 0 -27 -38l-6 -47q-3 -18 -3 -27q0 -30 55 -30q39 0 72 5q18 3 28 3q14 0 24 -11q8 -8 8 -18q0 -22 -37 -95q-39 -75 -64 -93q-17 -12 -34 -12 q-19 0 -45 5q-13 3 -19 3q-19 0 -25 -19q-3 -11 -11 -88q-8 -68 -9 -115q-2 -57 -30 -80q-26 -20 -122 -55q-57 -20 -68 -20q-16 0 -26 13q-7 10 -7 24q0 9 5 32q17 84 33 198l8 58q3 20 3 23q0 34 -43 34h-59q-42 0 -46 -41l-3 -22q-12 -83 -14 -164q-2 -58 -30 -80 q-26 -21 -123 -55q-56 -20 -68 -20q-32 0 -32 37q0 10 4 32q17 80 34 198l7 44l2 19q2 19 2 21q0 31 -48 31q-10 0 -76 -5q-18 -1 -23 -1q-41 0 -41 32zM467 589q0 -24 37 -24h66q24 0 33 6q10 8 14 35l7 56q3 18 3 24q0 23 -37 23h-66q-25 0 -34 -7q-9 -8 -12 -34l-8 -56 q-3 -20 -3 -23z" />
<glyph unicode="$" horiz-adv-x="1133" vert-adv-y="1436" d="M19 335q0 48 23 69q22 21 49 21q37 0 77 -46q11 -13 68 -101q41 -64 115 -96q70 -30 141 -30q70 0 114 29q34 23 34 59q0 27 -18 45q-27 29 -70 45q-29 12 -140 51q-177 62 -272 167q-91 101 -91 235q0 152 125 268q97 90 220 114q28 5 35 11q8 9 8 38v47q0 39 13 53 q14 13 53 13h84q38 0 52 -13q13 -14 13 -53v-48q0 -30 9 -38q9 -7 66 -17q15 -3 56 -16q18 -5 27 -5q11 0 28 6q42 15 60 15q53 0 119 -89q70 -94 70 -183q0 -52 -27 -81q-32 -35 -78 -35q-36 0 -74 29q-9 7 -94 85q-90 83 -195 83q-52 0 -79 -30q-23 -26 -23 -60 q0 -32 20 -54q28 -29 71 -44q39 -13 153 -47q160 -48 244 -124q106 -95 106 -249q0 -158 -113 -264q-64 -61 -147 -100q-87 -41 -158 -46q-23 -2 -31 -8q-10 -8 -10 -39v-46q0 -39 -13 -53q-14 -13 -52 -13h-84q-39 0 -53 13q-13 14 -13 53v46q0 29 -7 37q-6 7 -22 9 q-108 14 -204 48q-73 25 -98 55q-31 36 -59 122t-28 162z" />
<glyph unicode="%" horiz-adv-x="1377" vert-adv-y="1436" d="M23 1016q0 162 115 261q57 50 142 79q85 30 172 30q125 0 227 -80q133 -104 133 -254q0 -108 -74 -202q-69 -86 -181 -128q-83 -31 -169 -31q-167 0 -271 98q-94 89 -94 227zM217 41q0 22 21 53q134 206 252 404l132 224q41 21 70 44q63 50 103 120q45 79 45 160 q0 13 -2 41q77 135 118 220q31 62 63 77q19 9 52 9q97 0 97 -47q0 -33 -78 -148q-51 -73 -165 -264l-161 -272q-62 -30 -101 -65q-124 -112 -124 -277q0 -14 2 -42q-31 -57 -61 -110q-34 -60 -44 -83q-34 -70 -60 -84q-18 -10 -40 -10q-63 0 -100 21q-19 11 -19 29z M322 1158q0 -100 42 -207q22 -57 44 -74q16 -12 37 -12q29 0 45 25q12 20 12 51q0 85 -29 177q-36 113 -91 113q-32 0 -49 -31q-11 -18 -11 -42zM566 316q0 161 115 260q57 50 142 79q85 30 172 30q125 0 227 -80q133 -104 133 -253q0 -108 -74 -202q-68 -86 -181 -128 q-83 -31 -169 -31q-167 0 -271 98q-94 89 -94 227zM865 457q0 -100 42 -206q22 -57 44 -74q16 -12 37 -12q57 0 57 75q0 87 -29 178q-36 112 -91 112q-32 0 -49 -31q-11 -18 -11 -42z" />
<glyph unicode="&#x26;" horiz-adv-x="1792" vert-adv-y="1436" d="M24 527q0 120 79 206q44 48 100 78q37 20 37 35q0 11 -10 28q-62 104 -62 178q0 113 91 211q72 77 197 120q104 36 202 36q80 0 166 -26q172 -52 172 -164q0 -42 -34 -77q-35 -36 -78 -36q-25 0 -43 12l-55 37q-48 33 -98 33q-58 0 -92 -49q-26 -38 -26 -85 q0 -74 54 -106q20 -12 40 -14l58 -7q61 -8 61 -84q0 -82 -68 -120q-30 -17 -111 -29q-47 -7 -47 -88q0 -102 64 -208q56 -94 149 -148q84 -49 173 -49q121 0 212 72q84 66 84 166q0 49 -39 82q-40 35 -90 35q-80 0 -141 -102q-27 -45 -54 -45q-34 0 -61 40q-28 42 -28 102 q0 139 118 250q77 72 220 124q132 49 162 77q36 33 36 68q0 22 -17 37q-15 13 -30 13q-8 0 -37 -11q-7 -3 -15 -3q-20 0 -33 17q-9 13 -9 26q0 43 41 82q36 34 93 54q64 23 127 23q110 0 194 -57q41 -29 68 -76q33 -56 33 -122q0 -110 -91 -207q-50 -53 -128 -97 q-74 -41 -74 -68q0 -12 12 -25q4 -5 37 -26q99 -63 99 -181q0 -94 -72 -193q-107 -146 -325 -227q-182 -67 -407 -67q-299 0 -512 111q-152 79 -237 232q-55 99 -55 212z" />
<glyph unicode="'" horiz-adv-x="393" vert-adv-y="1436" d="M15 1152q0 91 40 155q49 79 141 79q71 0 119 -53q64 -71 64 -196q0 -95 -35 -205q-47 -148 -113 -214q-22 -21 -36 -21q-32 0 -89 110q-91 176 -91 345z" />
<glyph unicode="(" horiz-adv-x="915" vert-adv-y="1436" d="M38 707q0 155 88 329q177 351 547 351q136 0 198 -39q30 -19 30 -65q0 -55 -26 -84q-15 -16 -39 -16q-18 0 -41 3q-63 10 -81 10q-58 0 -94 -30q-56 -47 -97 -157q-62 -161 -62 -323q0 -158 51 -305q76 -216 217 -216q28 0 60 3q33 4 43 4q70 0 70 -96q0 -97 -199 -97 q-278 0 -466 228q-108 132 -162 297q-37 112 -37 203z" />
<glyph unicode=")" horiz-adv-x="915" vert-adv-y="1436" d="M14 1289q0 97 199 97q278 0 466 -228q109 -132 162 -297q37 -113 37 -204q0 -154 -88 -328q-178 -351 -542 -351q-141 0 -203 39q-30 19 -30 65q0 100 70 100q13 0 36 -4q61 -9 81 -9q53 0 89.5 27t71.5 92q43 81 69 195q23 99 23 196q0 159 -51 305q-76 216 -217 216 q-28 0 -60 -3q-34 -4 -43 -4q-70 0 -70 96z" />
<glyph unicode="*" horiz-adv-x="873" vert-adv-y="1436" d="M14 1018q0 36 30 110q21 50 51 50q27 0 69 -15l129 -48q17 -6 24 -6q16 0 16 24v10l-6 138v14q0 59 17 74q19 17 94 17q76 0 94 -19q8 -8 13 -40q2 -19 2 -28l-1 -18l-5 -138q-1 -34 17 -34q6 0 22 6l129 48q42 15 70 15q31 0 54 -63q26 -68 26 -98q0 -39 -82 -62 l-133 -38q-28 -8 -28 -22q0 -7 13 -24l86 -108q38 -49 38 -77q0 -20 -45 -56q-72 -57 -101 -57q-28 0 -70 61l-76 115q-14 21 -25 21q-9 0 -24 -21l-76 -115q-41 -61 -69 -61q-35 0 -112 65q-35 29 -35 49q0 26 39 76l85 108q13 17 13 24q0 14 -28 22l-132 38q-55 15 -73 34 q-10 10 -10 29z" />
<glyph unicode="+" vert-adv-y="1436" d="M20 501q0 15 26 89q33 93 58 111q17 13 40 13q12 0 30 -2q108 -10 137 -9h25q56 0 55 54v65q-1 63 -12 138q-2 11 -2 21q0 36 62 64q21 9 89 30q46 15 70 15q20 0 32 -14q9 -11 9 -24q0 -6 -3 -27q-2 -13 -2 -94v-174q1 -53 55 -54h155q78 0 94 2q21 3 27 3q16 0 27 -12 q11 -11 11 -27q0 -27 -24 -99q-28 -83 -51 -103q-15 -13 -34 -13l-159 14h-46q-59 4 -55 -55v-16q-1 -75 10 -164q2 -18 2 -31q0 -43 -62 -72q-30 -14 -87.5 -32.5t-71.5 -18.5q-17 0 -30 14q-11 12 -11 33q0 8 1 21q6 72 6 199v67q3 58 -55 55h-49q-138 0 -199 -6 q-14 -1 -22 -1q-22 0 -35 14q-11 13 -11 26z" />
<glyph unicode="," horiz-adv-x="584" vert-adv-y="1436" d="M23 236q0 99 65 170q80 87 194 87q73 0 140 -46q74 -51 111 -155q27 -76 27 -159q0 -101 -43 -228q-63 -188 -151 -268q-49 -45 -105 -45q-49 0 -82 32q-27 25 -27 53q0 17 42 83q33 53 55 120q9 25 9 43q0 24 -8 35.5t-29 19.5q-74 28 -105 54q-93 79 -93 204z" />
<glyph unicode="-" horiz-adv-x="631" vert-adv-y="1436" d="M23 402q0 25 20 98q39 142 96 194q23 20 64 20q17 0 47 -3q128 -13 185 -13q65 0 94 5q33 5 44 5q32 0 32 -47q0 -96 -69 -236q-26 -55 -46 -70q-15 -12 -33 -12t-49 5q-87 15 -203 15q-50 0 -91 -4q-34 -3 -50 -3q-41 0 -41 46z" />
<glyph unicode="." horiz-adv-x="564" vert-adv-y="1436" d="M23 231q0 115 78 187q79 73 184 73q68 0 136 -41q64 -38 96 -108q25 -54 25 -111q0 -112 -78 -186q-34 -33 -84.5 -53t-96.5 -20q-71 0 -139 41q-64 38 -96 108q-25 54 -25 110z" />
<glyph unicode="/" horiz-adv-x="835" vert-adv-y="1436" d="M14 62q0 30 18 67q23 47 87 169q51 97 93 195l196 455q53 133 93 228q31 74 46 118q22 59 44 77q20 15 65 15q87 0 135 -28q29 -17 29 -48q0 -35 -25 -84q-138 -277 -173 -358l-196 -451q-73 -168 -99 -235q-51 -136 -71 -164q-29 -39 -83 -39q-86 0 -138 40 q-21 17 -21 43z" />
<glyph unicode="0" horiz-adv-x="1190" vert-adv-y="1436" d="M33 575q0 279 169 438q149 141 373 141q137 0 264 -67q172 -90 257 -268q63 -130 63 -277q0 -267 -206 -439q-156 -130 -357 -130q-221 0 -378 145q-185 172 -185 457zM459 699q0 -207 79 -373q31 -64 83 -64q46 0 68 41q23 43 23 116q0 138 -37 273q-45 164 -126 164 q-90 0 -90 -157z" />
<glyph unicode="1" horiz-adv-x="1081" vert-adv-y="1436" d="M14 118q0 37 32 60q25 17 57 17q9 0 63 -7q27 -4 40 -4q83 0 96 134q7 77 7 431q0 62 -30 82q-23 15 -71 15q-14 0 -41 -3q-21 -2 -37 -2q-45 0 -65 35q-9 15 -9 32q0 48 74 95q87 54 274 99q191 45 378 45q163 0 163 -86q0 -29 -21 -48q-9 -9 -44 -24q-61 -27 -73 -75 q-7 -29 -8 -79l-4 -216q8 -268 9 -287t9 -53q13 -58 56 -79q30 -15 56 -16l48 -2q94 -4 94 -78q0 -75 -133 -99q-184 -33 -380 -33q-174 0 -326 29q-160 30 -195 68q-19 21 -19 49z" />
<glyph unicode="2" horiz-adv-x="1190" vert-adv-y="1436" d="M14 51q0 26 27 58q11 13 116 111q193 182 286 338q48 81 48 138q0 48 -29 80q-28 30 -79 30q-50 0 -90 -25q-10 -7 -85 -69q-23 -19 -59 -19q-47 0 -87 38q-39 36 -39 78q0 47 52 109q90 107 269 175q143 54 290 54q200 0 331 -77q65 -39 102 -113q29 -56 29 -117 q0 -174 -244 -380q-86 -73 -86 -109q0 -15 11 -31q25 -35 77 -35q90 0 160 68q34 34 45.5 41t31.5 7q89 0 89 -150q0 -104 -52 -205q-73 -140 -168 -140q-19 0 -34 6q-17 7 -41 44q-17 28 -35.5 36t-64.5 8h-681q-90 0 -90 51z" />
<glyph unicode="3" horiz-adv-x="1195" vert-adv-y="1436" d="M-9 -45q0 45 35 77q30 26 72 26q26 0 136 -26q37 -9 104 -9q118 0 189 56q76 59 76 134q0 53 -41 101q-54 61 -165 61q-59 0 -103 -13q-26 -8 -39 -8q-26 0 -48 44q-33 64 -33 113q0 20 14 33q7 6 82 31q64 21 122 80q44 46 44 96q0 56 -47 100q-44 41 -106 41 q-48 0 -98 -23q-25 -11 -66 -33q-21 -11 -34 -11t-26 12q-43 39 -43 98q0 67 120 127q74 38 185 62q102 23 201 23q193 0 342 -72q69 -33 107 -100q22 -41 22 -90q0 -57 -26.5 -103t-87.5 -95q-32 -26 -32 -43q0 -25 58 -38q114 -24 168 -68q101 -82 101 -231 q0 -158 -110 -288q-105 -125 -307 -183q-147 -43 -320 -43q-206 0 -352 57q-94 36 -94 105z" />
<glyph unicode="4" horiz-adv-x="1199" vert-adv-y="1436" d="M23 180q0 102 23 156q27 67 161 226l254 305q193 231 282 293q45 31 114 50q50 14 97 14q51 0 73 -29q19 -24 19 -79v-692q1 -36 9 -43q11 -10 31 -10h42q47 1 49 -57v-203q0 -26 -9 -39q-9 -16 -45 -21q-40 -5 -47 -17q-6 -8 -6 -39v-118q4 -63 -58 -66h-342 q-43 1 -53 21q-5 11 -5 45v103q0 42 -16 59q-13 16 -56 16h-390q-59 0 -90 22q-37 27 -37 103zM284 386q0 -25 30 -32q49 -12 213 -12q61 0 80 18q13 13 15 59q4 116 4 213q0 62 -13 84q-12 20 -36 20q-39 0 -72 -41l-154 -189q-67 -83 -67 -120z" />
<glyph unicode="5" horiz-adv-x="1147" vert-adv-y="1436" d="M23 442q0 74 71 294q97 300 148 363q20 25 42 30q15 4 48 4h711q39 0 51 -13q18 -19 18 -68q0 -110 -54 -197q-45 -72 -114 -72h-452q-76 0 -76 -60q0 -25 17 -34q17 -10 77 -16q225 -25 379 -97q114 -54 184 -156q50 -73 50 -160q0 -140 -121 -265q-115 -120 -314 -173 q-125 -34 -271 -34q-148 0 -268 38q-66 20 -93 55q-18 23 -18 63q0 56 27 97q10 14 26 14q12 0 31 -5q118 -32 193 -32q97 0 149 48q39 36 39 85q0 73 -82 124q-79 48 -201 68q-124 20 -138 26q-59 23 -59 73z" />
<glyph unicode="6" horiz-adv-x="1237" vert-adv-y="1436" d="M33 554q0 252 203 518q149 197 219 222q18 7 39 7q31 0 94 -17q99 -25 146 -63q27 -20 27 -33q0 -15 -17 -39q-4 -6 -68 -78q-58 -65 -89 -144q-14 -37 -14 -53t12 -28q8 -8 19 -8t72 22q84 30 157 30q125 0 228 -80q69 -54 107 -132q38 -79 38 -166q0 -151 -88 -288 q-161 -252 -480 -252q-262 0 -425 153q-90 85 -139 213q-41 108 -41 216zM509 489q0 -70 52 -152q60 -94 127 -94q41 0 68 26q23 24 23 62q0 113 -70 214q-44 62 -107 62q-36 0 -61 -24q-32 -30 -32 -94z" />
<glyph unicode="7" horiz-adv-x="1161" vert-adv-y="1436" d="M14 862q0 135 48 226q31 57 84 87q23 13 45 13q23 0 101 -35q50 -20 124 -20h643q44 0 65 -14q31 -21 31 -58q0 -20 -9 -47l-406 -1230q-9 -26 -32 -34q-24 -9 -73 -9q-185 0 -277 69q-27 20 -27 40q0 10 8 25l373 713q42 81 42 111q0 36 -40 49q-48 16 -183 16 q-150 0 -215 -19q-28 -9 -50 -38q-28 -39 -49 -50q-28 -15 -60 -15q-66 0 -103 55q-40 58 -40 165z" />
<glyph unicode="8" horiz-adv-x="1252" vert-adv-y="1436" d="M33 367q0 127 119 213q44 33 44 47q0 13 -38 50q-95 91 -95 218q0 176 177 281q152 91 369 91q210 0 387 -69q96 -38 157 -117q44 -57 44 -132q0 -115 -130 -201q-39 -26 -39 -40q0 -13 48 -46q63 -44 102 -114q41 -74 41 -153q0 -115 -84 -226q-149 -196 -472 -196 q-224 0 -397 79q-117 54 -183 149q-50 71 -50 166zM366 411q0 -52 33 -111q35 -64 104 -97q55 -27 110 -27t94 25q40 25 40 75q0 59 -52 93q-77 49 -179 90q-70 28 -101 28q-19 0 -30 -14q-19 -23 -19 -62zM551 1005q0 -37 44 -81q60 -59 131 -80q18 -5 31 -5q22 0 39 26 q28 42 28 88q0 60 -44 91q-55 39 -126 39q-41 0 -70 -20q-33 -23 -33 -58z" />
<glyph unicode="9" horiz-adv-x="1232" vert-adv-y="1436" d="M33 691q0 213 163 330q174 126 420 126q199 0 364 -91q218 -121 218 -391q0 -220 -142 -461q-157 -267 -372 -425q-49 -36 -86 -36q-61 0 -163 55q-90 48 -90 81q0 20 60 59q73 48 126 132q50 78 50 124q0 38 -40 38q-16 0 -68 -6q-11 -1 -32 -1q-156 0 -254 92 q-80 75 -121 186q-33 92 -33 188zM501 737q0 -73 30 -142q49 -111 139 -111q48 0 72 38q20 31 20 69q0 93 -48 186q-44 84 -113 84q-39 0 -66 -32q-34 -38 -34 -92z" />
<glyph unicode=":" horiz-adv-x="611" vert-adv-y="1436" d="M70 232q0 114 78 187q79 73 184 73q67 0 136 -41q64 -38 96 -108q25 -54 25 -111q0 -112 -78 -186q-35 -33 -85 -53t-96 -20q-71 0 -139 41q-64 38 -96 108q-25 54 -25 110zM70 696q0 112 78 187q30 29 74 48q55 25 107 25q70 0 138 -41q64 -38 96 -109q25 -54 25 -110 q0 -139 -115 -216q-76 40 -144 40q-69 0 -144 -40q-115 77 -115 216z" />
<glyph unicode=";" horiz-adv-x="631" vert-adv-y="1436" d="M70 236q0 99 65 170q80 87 194 87q73 0 140 -46q74 -51 111 -155q27 -76 27 -159q0 -101 -43 -228q-63 -188 -151 -268q-49 -45 -105 -45q-49 0 -82 32q-27 25 -27 53q0 17 42 83q33 53 55 120q9 25 9 43q0 24 -8 35.5t-29 19.5q-74 28 -105 54q-93 79 -93 204zM80 695 q0 113 78 187q30 29 74 48q55 25 107 25q70 0 139 -41q63 -38 95 -108q25 -55 25 -111q0 -113 -78 -187q-17 -16 -44 -33q-74 44 -151 44q-65 0 -136 -36q-109 82 -109 212z" />
<glyph unicode="&#x3c;" vert-adv-y="1436" d="M68 509v372l887 510v-445l-415 -253l413 -253l2 -442z" />
<glyph unicode="=" vert-adv-y="1436" d="M20 324q0 15 26 89q33 93 58 111q17 13 40 13q12 0 31 -2q96 -10 163 -10h506q78 0 94 2q21 3 27 3q16 0 27 -12q11 -11 11 -27q0 -27 -24 -98q-28 -83 -51 -103q-15 -13 -34 -13l-159 14h-448q-133 0 -199 -6q-13 -1 -22 -1q-22 0 -35 14q-11 13 -11 26zM20 679 q0 15 26 89q33 93 58 111q17 13 40 13q12 0 31 -2q96 -10 163 -10h506q78 0 94 2q21 3 27 3q16 0 27 -12q11 -11 11 -27q0 -27 -24 -98q-28 -83 -51 -103q-15 -13 -34 -13l-159 14h-448q-133 0 -199 -6q-13 -1 -22 -1q-22 0 -35 14q-11 12 -11 26z" />
<glyph unicode="&#x3e;" vert-adv-y="1436" d="M68 -2v445l415 253l-412 253l-3 442l888 -511v-372z" />
<glyph unicode="?" horiz-adv-x="1041" vert-adv-y="1436" d="M23 957q0 123 92 239q91 114 262 153q68 16 136 16q120 0 240 -53q125 -55 196 -154q68 -95 68 -204q0 -127 -99 -214q-27 -23 -154 -90q-72 -38 -94 -78q-15 -33 -36 -77q-62 25 -115 25q-66 0 -140 -38q-22 40 -22 82q0 59 30 128q8 17 85 133q71 107 71 202 q0 46 -22 78q-21 30 -53 30q-33 0 -50 -30q-8 -15 -14 -73q-10 -112 -67 -171q-58 -59 -151 -59q-68 0 -112 39q-51 45 -51 116zM261 231q0 115 78 187q79 73 184 73q68 0 136 -41q64 -38 96 -108q25 -54 25 -111q0 -112 -78 -186q-30 -29 -74 -48q-55 -25 -107 -25 q-71 0 -139 41q-64 38 -96 108q-25 54 -25 110z" />
<glyph unicode="@" horiz-adv-x="1599" vert-adv-y="1436" d="M33 501q0 232 125 448q155 268 438 379q161 64 361 64q275 0 439 -152q80 -74 126 -184q44 -104 44 -210q0 -159 -89 -299q-96 -152 -284 -218q-97 -34 -181 -34q-92 0 -133 49q-16 19 -28 67q-5 19 -18 19q-15 0 -39 -24q-103 -103 -208 -103q-91 0 -148 62 q-55 61 -55 166q0 186 115 343q81 111 184 158q64 29 122 29q60 0 133 -44q24 -14 37 -14q9 0 29 10q98 47 158 47q70 0 70 -58q0 -36 -15 -93q-71 -270 -71 -354q0 -37 35 -37q48 0 108 61q45 44 73 111q35 81 35 167q0 158 -103 262q-120 120 -350 120q-307 0 -511 -201 q-124 -121 -187 -304q-41 -116 -41 -233q0 -219 168 -312q115 -64 280 -64q210 0 391 86q48 23 79 23t50 -20q15 -16 15 -37q0 -46 -65 -90q-168 -114 -457 -114q-268 0 -428 111q-114 79 -165 208q-39 98 -39 209zM723 582q0 -44 26 -44q27 0 68 62q43 65 71 145 q22 64 22 107q0 37 -23 37q-30 0 -81 -70q-51 -72 -74 -167q-9 -40 -9 -70z" />
<glyph unicode="A" horiz-adv-x="1721" vert-adv-y="1436" d="M14 93q0 42 33 63q12 8 38 17q62 22 90 54q37 44 104 188l141 309q107 234 119 308q13 57 13 111q2 102 16 135q28 60 97 94q56 27 116 27q100 0 193 -79q129 -108 372 -629l189 -405q30 -61 51 -79q15 -13 49 -18q72 -11 72 -73q0 -51 -49 -85q-74 -52 -322 -52 q-326 0 -395 38q-54 31 -54 82q0 34 24 56q10 9 49 23q47 17 47 53q0 68 -81 80q-87 12 -246 12q-132 0 -158 -16q-12 -8 -25 -31q-15 -26 -15 -56q0 -25 19 -34q5 -3 46 -15q61 -18 61 -73q0 -119 -287 -119q-160 0 -237 23q-70 20 -70 91zM604 589q0 -24 46 -24h196 q54 0 54 23q0 24 -39 96q-58 110 -85 141q-20 25 -43 25q-31 0 -58 -67q-71 -175 -71 -194z" />
<glyph unicode="B" horiz-adv-x="1460" vert-adv-y="1436" d="M14 94q0 31 23 56q7 7 53 38q21 15 31.5 39.5t18.5 80.5q33 211 33 663q0 125 -22 167q-14 29 -66 51q-66 28 -66 82q0 38 35 68q36 32 105 32q33 0 88 -3q93 -5 197 -5q60 0 288 7q73 2 130 2q171 0 261 -38q109 -46 157 -140q32 -63 32 -138q0 -76 -34 -144 q-29 -59 -73 -95q-36 -30 -36 -51q0 -25 43 -43q83 -34 148 -110q69 -82 69 -195q0 -153 -105 -272q-139 -157 -408 -157q-33 0 -185 6q-143 6 -162 6l-134 -1q-143 -1 -206 -6q-58 -5 -86 -5q-58 0 -94 31q-35 31 -35 74zM638 415q0 -152 26 -188q20 -29 71 -29 q151 0 151 178q0 137 -62 187q-44 35 -108 35q-37 0 -56 -14q-22 -17 -22 -74v-95zM638 880q0 -57 17 -75q11 -13 40 -13q67 0 99 33q45 46 45 154q0 117 -54 166q-35 31 -85 31q-27 0 -43 -14q-19 -16 -19 -76v-206z" />
<glyph unicode="C" horiz-adv-x="1451" vert-adv-y="1436" d="M37 681q0 221 138 405q120 159 313 243q148 64 303 64q147 0 282 -65q64 -30 89 -30q17 0 58 10q13 3 29 3q52 0 91 -48q96 -117 96 -289q0 -120 -83 -176q-46 -31 -101 -31q-52 0 -89 27q-27 19 -56 74q-42 78 -69.5 113.5t-67.5 63.5q-96 68 -203 68q-97 0 -158 -70 q-65 -75 -65 -204q0 -172 88 -315q117 -192 337 -192q79 0 155 25q83 28 129 72q38 37 62 37q36 0 62 -36q23 -33 23 -73q0 -82 -59 -177q-41 -65 -83 -84q-11 -5 -64 -15q-38 -7 -101 -37q-149 -72 -308 -72q-166 0 -333 76q-193 87 -305 266q-110 176 -110 367z" />
<glyph unicode="D" horiz-adv-x="1621" vert-adv-y="1436" d="M14 103q0 37 25 60q14 14 54 25q45 11 59 40q16 36 25 218q13 285 13 594q0 78 -17 109q-12 23 -57 39q-69 26 -69 89q0 50 52 79q45 25 127 25q27 0 67 -1q80 -3 123 -3q137 0 322 9q46 2 96 2q226 0 361 -53q197 -78 298 -261q89 -162 89 -375q0 -255 -122 -434 q-116 -168 -320 -236q-120 -40 -251 -40q-23 0 -126 4q-210 7 -317 7h-72q-62 0 -142 -6q-47 -4 -70 -4q-62 0 -106 31q-42 30 -42 82zM656 310q0 -71 35 -96q27 -20 84 -20q126 0 197 86q54 65 72 146q22 96 22 211q0 246 -68 381q-76 149 -254 149q-53 0 -71 -21 q-17 -21 -17 -62v-774z" />
<glyph unicode="E" horiz-adv-x="1394" vert-adv-y="1436" d="M5 1266q0 62 56 85q33 14 164 14h514q207 0 288 13q26 4 79 20q21 6 34 6q51 0 91 -55q66 -92 66 -223q0 -70 -33 -106q-28 -32 -71 -32q-35 0 -54 16q-16 13 -46 59q-49 73 -133 95q-62 17 -189 17q-117 0 -146 -34q-18 -21 -22 -70q-2 -23 -2 -165q0 -76 14 -92 q17 -19 109 -19q47 0 64 19q18 18 23 61q10 76 21 93q26 43 70 43q41 0 71 -39q24 -32 38 -116q12 -71 12 -141q0 -157 -49 -259q-27 -55 -82 -55q-35 0 -50 23q-10 13 -17 68q-10 71 -53 96q-31 17 -80 17q-50 0 -67 -43q-10 -27 -10 -87q0 -73 14 -191q6 -53 29 -65 q40 -21 169 -21q173 0 249 55q59 43 97 123q28 58 50.5 78t58.5 20q42 0 69 -36q28 -37 28 -91q0 -81 -52 -203q-51 -118 -89 -150q-17 -15 -40 -15q-22 0 -57 6q-63 12 -171 15h-848q-59 0 -84 27q-23 25 -23 59q0 33 21 51q8 6 46 24q41 18 54 49q46 107 46 446 q0 386 -48 487q-12 25 -34 35q-6 3 -38 12q-57 17 -57 76z" />
<glyph unicode="F" horiz-adv-x="1365" vert-adv-y="1436" d="M14 107q0 44 32 71q8 6 55 25q56 22 67 102q18 123 18 588q0 179 -19 239q-12 38 -57 58q-52 23 -63 36q-18 23 -18 51q0 29 19 51q46 51 129 51q40 0 118 -6q159 -13 387 -13q367 0 492 19q17 3 28 3q33 0 65 -40q88 -112 88 -250q0 -78 -45 -113q-27 -21 -60 -21 q-37 0 -67 26q-7 5 -78 86q-21 24 -65 50q-68 39 -283 39q-59 0 -78 -27q-11 -17 -20 -67q-17 -92 -17 -181q0 -41 25 -53q26 -12 87 -12q42 0 67 16q20 12 29 54q23 109 94 109q122 0 122 -293q0 -183 -53 -271q-32 -53 -90 -53q-57 0 -66 79q-6 62 -18 82q-33 61 -116 61 q-50 0 -66 -18q-13 -13 -13 -161q0 -177 47 -214q15 -11 80 -21q23 -4 40 -22q22 -25 22 -60q0 -75 -91 -96q-130 -32 -364 -32q-206 0 -285 24q-39 12 -63 48q-16 24 -16 56z" />
<glyph unicode="G" horiz-adv-x="1607" vert-adv-y="1436" d="M37 687q0 189 98 352q105 175 291 270q165 84 375 84q127 0 245 -37q52 -16 70 -16q21 0 85 22q21 7 43 7q56 0 107 -66q82 -107 82 -232q0 -103 -59 -155q-41 -37 -99 -37q-59 0 -115 42q-17 13 -83 94q-109 135 -253 135q-135 0 -214 -106q-69 -92 -69 -245 q0 -239 122 -406q54 -73 137 -113q48 -22 101 -22q58 0 90 42q28 36 28 81q0 47 -28 68q-14 11 -33 11h-46q-44 0 -72 29q-27 28 -27 70q0 66 74 101q108 53 315 53q167 0 284 -36q109 -33 109 -122q0 -39 -27 -65q-26 -24 -63 -29q-34 -5 -44 -14q-11 -11 -23 -53 q-46 -162 -168 -266q-94 -80 -226 -120q-116 -35 -239 -35q-216 0 -400 101q-188 103 -286 288q-82 154 -82 325z" />
<glyph unicode="H" horiz-adv-x="1602" vert-adv-y="1436" d="M14 117q0 35 29 63q8 8 56 33q29 14 40.5 36t17.5 75q15 116 15 304q0 36 -1 85q-4 224 -4 271q0 110 -29 137q-15 14 -67 39q-44 21 -44 66q0 42 42 78q61 52 244 74q75 9 147 9q309 0 309 -129q0 -35 -25 -68q-8 -11 -52 -38q-34 -21 -44 -45q-16 -40 -16 -178 q0 -68 26 -84q20 -12 58 -13q76 -1 135 -1q104 0 129 13q20 10 20 60v9.5v29.5q-3 188 -59 209q-38 22 -49 33q-23 23 -23 56q0 56 54 94q74 51 322 51q155 0 255 -28q57 -15 87 -58q14 -21 14 -52q0 -60 -62 -90q-42 -20 -52 -39q-20 -36 -24 -158q-9 -263 -9 -441 q0 -196 15 -252q9 -34 27 -48q3 -3 53 -32q38 -21 38 -64q0 -72 -80 -106q-92 -39 -305 -39q-339 0 -339 134q0 57 59 89q38 21 49 53q29 84 29 238q0 65 -18 84q-15 16 -93 16q-189 0 -235 -21q-15 -7 -21 -37q-8 -44 -8 -144q0 -97 33 -147q11 -17 53 -42q42 -24 42 -80 q0 -71 -90 -103q-109 -40 -285 -40q-364 0 -364 138z" />
<glyph unicode="I" horiz-adv-x="806" vert-adv-y="1436" d="M0 1248q0 64 109 95q157 43 334 43q112 0 213 -20q136 -27 136 -115q0 -34 -28 -56q-7 -6 -54 -30q-50 -25 -61 -100q-14 -98 -14 -299q0 -388 19 -479q8 -38 33 -56q13 -10 39 -22q66 -31 66 -90q0 -60 -79 -93q-113 -47 -365 -47q-327 0 -327 123q0 47 64 85 q49 30 58 82q19 115 19 516q0 224 -26 297q-14 41 -67 74q-41 27 -51 41q-18 24 -18 51z" />
<glyph unicode="J" horiz-adv-x="1313" vert-adv-y="1436" d="M14 349q0 101 67 168q64 63 154 63q94 0 158 -55q66 -56 66 -137q0 -23 -12 -72q-3 -10 -3 -23q0 -32 25 -52q24 -19 59 -19q62 0 106 57q43 57 43 161l-1 91l-2 245q-9 223 -14 262q-10 61 -45 88q-13 8 -66 22q-25 6 -43 31q-15 21 -15 48q0 85 110 119q132 40 294 40 q110 0 226 -20q104 -18 144 -51q33 -28 33 -70q0 -35 -27 -60q-9 -9 -53 -32q-54 -27 -66 -71q-8 -28 -10 -93l-6 -221q-3 -265 -5.5 -317.5t-12.5 -102.5q-29 -146 -117 -229q-83 -78 -214 -116q-103 -30 -209 -30q-145 0 -284 48q-280 96 -280 328z" />
<glyph unicode="K" horiz-adv-x="1688" vert-adv-y="1436" d="M9 1244q0 54 46 86q78 56 357 56q157 0 232 -31q69 -27 69 -99q0 -33 -20 -58q-5 -8 -45 -40q-16 -14 -30 -70q-13 -53 -13 -101q0 -84 38 -84q25 0 55 30q17 17 65 76.5t62 79.5q24 37 24 60q0 19 -19 56q-13 26 -13 46q0 44 35 77q60 58 316 58q155 0 230 -21 q91 -25 91 -105q0 -45 -33 -76q-26 -25 -74 -27h-57q-42 0 -70 -9q-28 -10 -77 -56l-107 -103q-59 -57 -59 -102q0 -31 20 -61q20 -29 44 -57l374 -433q39 -45 58 -64q21 -21 68 -42q54 -23 72 -46q27 -34 27 -78q0 -106 -151 -106h-379q-40 0 -65 20q-17 12 -68 81 q-78 108 -206 246q-55 61 -79 80q-23 18 -41 18q-58 0 -58 -109q0 -100 55 -136q69 -45 69 -97q0 -68 -90 -98q-79 -26 -295 -26q-184 0 -269 23q-35 9 -59 36q-22 25 -22 60q0 52 60 90q27 17 38 39q42 78 42 403q0 216 -5 290q-11 141 -37 192q-11 22 -50 44 q-56 32 -56 88z" />
<glyph unicode="L" horiz-adv-x="1285" vert-adv-y="1436" d="M-7 1242q0 56 81 95q102 49 318 49q277 0 359 -47q54 -31 54 -78q0 -44 -39 -69q-10 -6 -59 -27q-40 -18 -49 -61q-9 -31 -9 -176v-459q0 -155 27 -200q33 -53 134 -53q139 0 209 70q45 45 68 136q16 65 68 65q47 0 78 -36q42 -49 42 -136q0 -123 -92 -264 q-30 -47 -54 -64q-21 -15 -49 -15l-223 28h-699q-69 0 -97 16q-41 23 -41 69q0 30 24 51q7 7 55 29q57 27 73 77q13 40 13 260q0 77 -5 243q-5 169 -6 250q0 94 -18 122q-10 18 -47 31q-58 20 -74 29q-42 28 -42 65z" />
<glyph unicode="M" horiz-adv-x="1778" vert-adv-y="1436" d="M14 89q0 32 26 51q7 5 51 26q33 16 44.5 41.5t19.5 100.5q7 61 16 245q9 182 9 332q0 161 -25 220q-10 23 -27 35q-9 6 -38 21q-70 34 -70 89q0 56 64 91q36 19 120 31q94 14 158 14q124 0 178 -21q25 -9 40 -26q14 -14 44 -71l208 -383q36 -66 47 -76q16 -14 36 -14 q36 0 72 70l141 275q28 56 34 69q49 100 97 134q62 43 220 43q285 0 285 -129q0 -28 -16 -53q-6 -11 -40 -36q-47 -35 -58 -101q-23 -139 -23 -334q0 -258 25 -450q6 -53 29 -77q6 -7 53 -38q36 -24 36 -64q0 -70 -93 -99q-49 -16 -102 -21t-167 -5q-209 0 -285 39 q-54 28 -54 75q0 31 27 58q6 7 47 40q35 29 39 110q6 110 6 175q0 77 -6 102q-8 29 -33 29t-45 -27q-30 -38 -87 -166l-120 -269q-30 -67 -51 -93q-18 -22 -41 -22q-22 0 -39 20q-8 9 -27 44q-58 110 -89 178l-132 297q-27 62 -58 62q-25 0 -32 -35q-9 -44 -9 -242 q0 -99 10 -135q8 -27 35 -45q4 -2 45 -24q34 -17 34 -59q0 -112 -289 -112q-240 0 -240 110z" />
<glyph unicode="N" horiz-adv-x="1673" vert-adv-y="1436" d="M13 1258q0 34 23 58q55 59 186 66q71 4 156 4q75 0 115 -14q36 -12 84 -54l498 -437q71 -62 103 -62q13 0 25 13q25 26 25 93q0 140 -19 191q-13 34 -59 56q-40 19 -53 39q-18 26 -18 57q0 83 115 108q48 10 171 10q145 0 203 -18q92 -29 92 -107q0 -64 -76 -97 q-36 -16 -48 -31q-38 -53 -40 -272v-326v-125q1 -69 1 -93q0 -167 -21 -241q-16 -58 -52 -82q-23 -15 -45 -15q-29 0 -67 20q-9 5 -62 53l-593 531q-62 56 -103 56q-60 0 -60 -170q0 -113 10 -165q10 -49 26 -69q11 -15 43 -30q66 -33 66 -86q0 -140 -299 -140 q-128 0 -210 37q-74 33 -74 100q0 36 24 62q7 8 53 35q47 27 57 99q17 128 17 374q0 255 -30 373q-13 50 -36 72q-16 16 -48 32q-44 22 -58 38q-22 25 -22 57z" />
<glyph unicode="O" horiz-adv-x="1574" vert-adv-y="1436" d="M37 683q0 237 135 420q120 162 323 238q137 52 303 52q256 0 448 -147q130 -101 211 -262q79 -160 79 -319q0 -237 -156 -423q-132 -158 -345 -227q-131 -42 -262 -42q-174 0 -332 72q-191 86 -299 263q-105 170 -105 375zM531 901q0 -165 85 -373q49 -121 93 -177 q66 -85 153 -85q71 0 120 54q49 55 49 147q0 167 -64 345q-66 184 -163 255q-53 39 -107 39q-79 0 -128 -75q-38 -56 -38 -130z" />
<glyph unicode="P" horiz-adv-x="1365" vert-adv-y="1436" d="M-1 1261q0 33 28 60q34 33 118 33q22 0 122 -3h59q159 1 207 3q36 3 192 18q60 6 107 6q163 0 292 -67q223 -116 223 -369q0 -204 -157 -327q-148 -115 -354 -115q-45 0 -132 7q-46 4 -51 4q-29 0 -29 -32v-8l7 -164q3 -53 21 -77q14 -18 60 -43q65 -35 65 -77 q0 -67 -94 -96q-109 -35 -274 -35q-370 0 -370 126q0 29 21 51q14 14 70 43q42 21 47 82q2 29 3 190v526q-1 107 -16 132t-74 42q-91 26 -91 90zM631 784q0 -36 13 -44q24 -17 77 -17q67 0 112 37q65 54 65 179q0 130 -77 189q-48 37 -116 37q-74 0 -74 -41v-340z" />
<glyph unicode="Q" horiz-adv-x="1574" vert-adv-y="1436" d="M38 693q0 210 111 376q108 161 313 251q168 73 335 73q144 0 303 -64q207 -84 325 -285q109 -185 109 -383q0 -223 -131 -404q-127 -174 -331 -237q-25 -7 -25 -20q0 -30 60 -53q99 -37 230 -37q56 0 90 10q9 3 45 19q14 6 22 6q13 0 27 -18q22 -28 22 -58 q0 -50 -64 -107q-65 -58 -171 -93q-100 -33 -211 -33q-141 0 -315 63q-167 60 -404 171q-56 27 -136 47q-47 11 -85 11q-14 0 -34 -3q-12 -2 -19 -2q-19 0 -31 17q-13 16 -13 41q0 47 30 78q48 48 119 48l52 -2q23 0 23 20q0 15 -41 63q-93 108 -137 201q-68 144 -68 304z M529 902q0 -156 68 -342q68 -190 151 -259q53 -44 117 -44q77 0 129 53q54 54 54 138q0 168 -75 367q-108 288 -281 288q-83 0 -127 -64q-36 -55 -36 -137z" />
<glyph unicode="R" horiz-adv-x="1574" vert-adv-y="1436" d="M14 1259q0 48 50 81q54 35 173 35q33 0 168 -10q30 -2 79 -2q83 0 240 12q96 7 148 7q200 0 339 -103q126 -93 126 -258q0 -120 -71 -206q-41 -49 -94 -75q-32 -16 -32 -39q0 -28 49 -46q108 -40 169 -140q35 -57 55 -211q11 -74 34 -94q17 -14 71 -29q15 -4 25 -16 q20 -23 20 -53q0 -41 -40 -79q-74 -72 -271 -72q-199 0 -284 104q-47 57 -76 149q-25 82 -50 185q-24 96 -58 131q-42 45 -107 45q-34 0 -44 -21q-11 -24 -11 -97q0 -141 16 -211q5 -23 19 -35q8 -9 34 -23q60 -34 60 -87q0 -70 -86 -95q-92 -27 -281 -27q-369 0 -369 140 q0 28 19 48q8 9 42 32q45 29 60 71q19 51 23 169q3 84 3 473q0 116 -13 181q-11 57 -61 82q-45 22 -57 37q-17 21 -17 47zM612 844q0 -35 8 -47q10 -15 45 -15q81 0 121 38q47 45 47 152q0 195 -137 195q-38 0 -54 -16q-16 -17 -19 -67l-11 -233v-7z" />
<glyph unicode="S" horiz-adv-x="1289" vert-adv-y="1436" d="M19 426q0 47 20 72q25 32 63 32t74 -38q20 -22 98 -142q46 -71 149 -106q72 -24 136 -24q77 0 127 32q39 25 39 66q0 37 -36 69q-31 27 -118 54q-175 56 -253 102q-137 80 -208 200q-55 93 -55 194q0 126 80 235q78 105 216 166q128 55 271 55q102 0 269 -51q21 -6 34 -6 q9 0 59 18q17 6 34 6q71 0 150 -121q66 -101 66 -187q0 -59 -38 -98q-34 -35 -77 -35q-44 0 -88 31q-9 7 -88 80q-120 112 -236 112q-56 0 -88 -26q-35 -28 -35 -73q0 -85 154 -131q210 -61 265 -88q256 -124 256 -365q0 -213 -174 -348q-179 -138 -464 -138q-187 0 -364 55 q-100 31 -132 63q-43 43 -78 159q-28 92 -28 176z" />
<glyph unicode="T" horiz-adv-x="1455" vert-adv-y="1436" d="M9 1014q0 66 32 146q53 132 133 194q45 36 88 36q20 0 46 -6q60 -12 90 -14q69 -5 78 -5h527q85 3 155 23q31 8 55 8q83 0 166 -139q66 -111 66 -229q0 -86 -53 -125q-41 -31 -96 -31q-56 0 -98 34q-35 28 -71 93q-38 70 -58 86q-18 14 -40 14q-36 0 -51 -26 q-18 -31 -18 -107v-560q0 -85 20 -129q14 -33 66 -56q55 -23 70 -40q23 -26 23 -62q0 -140 -396 -140q-319 0 -414 63q-55 36 -55 89q0 24 14 42q16 22 41 29l52 16q40 12 55 48q19 47 31 273q12 242 12 378q0 124 -21 161q-13 22 -39 22q-39 0 -76 -56q-68 -103 -111 -135 q-51 -39 -100 -39q-55 0 -92 45q-31 38 -31 99z" />
<glyph unicode="U" horiz-adv-x="1655" vert-adv-y="1436" d="M13 1255q0 64 84 98q82 33 299 33q162 0 272 -25q59 -13 90 -52q18 -23 18 -57q0 -42 -32 -68q-6 -6 -60 -30q-31 -15 -43 -54q-11 -29 -11 -118q0 -96 -2 -142q-6 -226 -6 -250q0 -163 93 -249q80 -74 205 -74q119 0 197 59q67 51 86 143q9 44 9 127v220q-5 233 -13 288 q-7 37 -28 55q-7 9 -38 23q-50 22 -66 37q-24 23 -24 54q0 51 62 81q65 32 241 32q150 0 225 -29q67 -26 67 -86q0 -31 -23 -52q-8 -7 -52 -32q-54 -31 -63 -78q-5 -36 -7 -244v-244q0 -221 -33 -313q-71 -194 -312 -282q-147 -54 -330 -54q-321 0 -514 154 q-107 84 -140 204q-26 93 -26 240q0 94 5 257q3 106 3 161q0 88 -20 127q-9 18 -47 42q-66 43 -66 98z" />
<glyph unicode="V" horiz-adv-x="1688" vert-adv-y="1436" d="M14 1227q0 57 65 99q94 60 341 60q186 0 299 -30q97 -25 97 -98q0 -40 -53 -77q-40 -28 -40 -50q0 -21 19 -64l125 -282q28 -63 62 -63q45 0 81 68q26 48 125 265q28 63 28 84q0 34 -48 58q-53 27 -53 71q0 118 320 118q142 0 215 -22q75 -23 75 -90q0 -76 -87 -86 q-60 -7 -78 -20q-32 -24 -76 -113l-459 -929q-46 -95 -89 -124q-38 -27 -88 -27q-47 0 -85 20q-30 17 -49 43q-13 17 -38 73l-409 901q-51 110 -92 127q-15 7 -48 13q-60 11 -60 75z" />
<glyph unicode="W" horiz-adv-x="2171" vert-adv-y="1436" d="M14 1246q0 140 349 140q237 0 295 -44q42 -31 42 -80q0 -23 -4.5 -33.5t-28.5 -47.5q-12 -19 -12 -44q0 -53 67 -211l41 -96q29 -67 40 -77q7 -8 19 -8q39 0 80 111l41 114q5 12 5 19q0 8 -5 21l-29 70q-27 61 -67 81q-72 38 -72 98q0 127 386 127q189 0 290 -32 q36 -11 59 -41q16 -20 16 -47q0 -24 -9.5 -37.5t-52.5 -50.5q-25 -22 -25 -44q0 -36 38 -117l57 -122q43 -91 55 -105q19 -23 38 -23q16 0 29 13q21 23 53 115l48 140q21 63 21 90q0 40 -42 53q-85 27 -85 96q0 26 16.5 50t41.5 34q65 28 224 28q94 0 148 -22q39 -15 62 -49 q14 -21 14 -47q0 -31 -21 -60q-10 -14 -48 -46q-22 -19 -28 -27q-21 -30 -58 -129l-175 -465q-144 -359 -158 -389q-59 -133 -104 -160q-26 -15 -72 -15q-56 0 -94 24t-65 89l-198 470q-18 43 -24 50q-10 10 -22 10q-20 0 -37 -26q-11 -17 -56 -129l-136 -338 q-40 -97 -73 -122q-39 -29 -104 -29q-60 0 -100 31q-35 27 -66 105l-368 941q-24 61 -37 75q-8 7 -48 28q-51 27 -51 90z" />
<glyph unicode="X" horiz-adv-x="1655" vert-adv-y="1436" d="M14 110q0 44 36 74q26 20 78 22q48 1 66 10q52 21 206 211l155 194q14 18 14 25q0 5 -14 22l-256 327q-56 73 -75 91q-24 21 -65 34q-60 19 -78 36q-34 31 -34 76q0 69 94 105q127 49 387 49q199 0 270 -26q32 -12 53 -44q16 -24 16 -54q0 -49 -37 -76q-26 -18 -28 -22 q-4 -7 -4 -14q0 -34 61 -98q22 -22 31 -22q12 0 47 41q54 62 54 82q0 10 -8 19q-2 3 -37 29q-30 22 -30 65q0 67 72 91q89 29 261 29q184 0 242 -43q44 -32 44 -80q0 -53 -41 -77q-19 -12 -98 -18q-53 -5 -94 -37q-68 -55 -131 -136l-118 -148q-13 -17 -13 -25q0 -6 13 -22 l382 -479q44 -55 62 -64q8 -7 45 -19q61 -20 79 -43q21 -27 21 -59q0 -49 -44 -87q-49 -44 -178 -59q-94 -11 -262 -11q-244 0 -315 41q-54 31 -54 77q0 44 40 71q33 23 37 30q3 7 3 14q0 50 -116 204q-15 19 -26 19q-13 0 -61 -65q-83 -112 -83 -141q0 -10 7 -20 q3 -4 35 -29q39 -30 39 -76q0 -69 -78 -93q-102 -32 -243 -32q-161 0 -246 27q-34 10 -60 42q-23 28 -23 62z" />
<glyph unicode="Y" horiz-adv-x="1626" vert-adv-y="1436" d="M14 1260q0 54 64 84q88 42 378 42q276 0 347 -40q53 -30 53 -76q0 -27 -22 -54q-33 -41 -33 -59q0 -36 57 -115q38 -51 71 -51q36 0 92 71q40 50 40 78q0 25 -13 41l-24 29q-20 24 -20 63q0 54 63 81q77 32 247 32q199 0 243 -26q54 -33 54 -89q0 -45 -37 -70 q-19 -13 -75 -24q-67 -12 -115 -56q-158 -146 -274 -300q-38 -51 -52 -104q-15 -56 -15 -149q0 -127 9 -226q5 -64 22 -89q13 -21 55 -43q73 -38 73 -96q0 -135 -402 -135q-139 0 -259 21q-121 22 -151 55q-25 27 -25 62q0 64 76 90q56 20 71 51q31 70 31 330q0 88 -21 135 q-30 65 -149 206q-105 123 -174 184q-36 31 -75 46q-68 25 -82 37q-28 24 -28 64z" />
<glyph unicode="Z" horiz-adv-x="1399" vert-adv-y="1436" d="M14 1034q0 102 85 245q60 100 97 100q9 0 26 -6q59 -21 263 -21q97 0 423 19q282 17 287 17q49 0 73 -29q23 -28 23 -62q0 -27 -36 -90l-442 -762q-75 -130 -75 -157q0 -45 135 -45q53 0 107.5 11.5t79.5 27.5q48 32 101 144q24 51 44 63q18 12 44 12q142 0 142 -156 q0 -161 -84 -280q-59 -83 -110 -83q-16 0 -42 5q-73 13 -138 13h-869q-68 0 -76 3q-39 17 -39 69q0 30 29 80l515 873q23 39 23 56t-15 30q-30 25 -98 25q-99 0 -146 -35q-40 -30 -95 -142q-42 -87 -96 -87q-55 0 -98 52q-38 47 -38 110z" />
<glyph unicode="[" horiz-adv-x="811" vert-adv-y="1436" d="M80 296v767q0 244 66 291q45 32 262 32q274 0 331 -30q53 -28 53 -79q0 -25 -13 -39q-29 -32 -88 -32q-19 0 -69 4q-35 3 -64 3q-67 0 -87 -24q-17 -21 -17 -139v-754q0 -107 30 -128q25 -16 95 -16q26 0 76 6q28 3 49 3q47 0 75 -26q17 -16 17 -43q0 -35 -28 -64 q-29 -30 -106 -39q-92 -10 -241 -10q-225 0 -270 29q-71 45 -71 288z" />
<glyph unicode="\" horiz-adv-x="835" vert-adv-y="1436" d="M14 1310q0 31 29 48q48 28 135 28q45 0 65 -15q23 -18 44 -77q15 -45 46 -118q41 -97 93 -228l196 -455q43 -100 93 -195q65 -123 87 -169q18 -36 18 -67q0 -26 -21 -43q-52 -40 -138 -40q-59 0 -93 55q-14 23 -61 148q-26 68 -99 235l-196 451q-41 94 -173 358 q-25 49 -25 84z" />
<glyph unicode="]" horiz-adv-x="811" vert-adv-y="1436" d="M14 1273q0 35 28 64q29 30 106 38q92 11 241 11q225 0 270 -29q71 -45 71 -288v-767q0 -244 -66 -291q-45 -32 -262 -32q-273 0 -331 30q-53 27 -53 79q0 25 13 39q29 32 88 32q18 0 69 -4q34 -3 64 -3q67 0 87 24q17 21 17 139v754q0 108 -30 128q-25 16 -95 16 q-26 0 -76 -6q-28 -3 -49 -3q-48 0 -75 26q-17 16 -17 43z" />
<glyph unicode="^" vert-adv-y="1436" d="M-1 671l266 706h494l266 -706h-387l-125 405l-126 -405h-388z" />
<glyph unicode="_" vert-adv-y="1436" d="M0 -87h1024v-257h-1024v257z" />
<glyph unicode="`" vert-adv-y="1436" d="M156 1323q0 36 51 67q65 40 190 40q99 0 142 -30q19 -13 19 -29q0 -8 -11 -27q-5 -10 -5 -18q0 -14 16 -31q4 -4 49 -37q34 -26 37 -28q34 -27 34 -64q0 -74 -107 -74q-178 0 -330 117q-85 65 -85 114z" />
<glyph unicode="a" horiz-adv-x="1143" vert-adv-y="1436" d="M23 250q0 103 84 184q132 126 392 127q58 0 70 9q18 12 18 55q0 93 -13 130q-25 72 -81 72q-26 0 -50 -15q-23 -14 -62 -69q-90 -127 -186 -127q-53 0 -81 31q-30 32 -30 73q0 66 68 128q72 65 210 109q125 40 244 40q173 0 294 -88q72 -52 97 -126q18 -55 18 -139 q0 -16 -2 -114v-42q0 -108 12 -170q9 -48 36 -64q7 -4 37 -9q32 -5 32 -40q0 -68 -68 -136q-98 -97 -227 -97q-104 0 -166 74q-21 26 -39 26q-19 0 -53 -25q-100 -75 -227 -75q-131 0 -212 56q-48 34 -79 88q-36 63 -36 134zM428 295q0 -50 28 -82q21 -25 57 -25 q80 0 80 136q0 60 -13 78q-13 16 -43 16q-43 0 -76 -37q-33 -35 -33 -86z" />
<glyph unicode="b" horiz-adv-x="1237" vert-adv-y="1436" d="M-64 1149q0 66 143 131q78 35 212 63q107 22 182 22q27 0 39 -11q4 -5 9 -20q4 -15 4 -21v-8l-13 -390v-20q0 -21 13 -21q7 0 40 27q117 95 257 95q141 0 248 -101q134 -127 134 -331q0 -291 -217 -466q-157 -126 -366 -126q-128 0 -242 47q-54 22 -128 71q-15 9 -24 9 q-11 0 -62 -19q-26 -10 -62 -10q-61 0 -61 41q0 12 5 29q21 65 25 129q4 72 9 336v276q0 92 -6 121q-8 33 -47 49q-50 21 -65 37q-27 27 -27 61zM514 554q0 -298 23 -350q23 -54 78 -54q70 0 108 57q41 62 41 185q0 175 -64 256q-38 48 -92 48q-29 0 -58 -20 q-36 -26 -36 -122z" />
<glyph unicode="c" horiz-adv-x="1062" vert-adv-y="1436" d="M32 480q0 226 173 375q165 142 400 142q178 0 315 -89q129 -85 129 -212q0 -86 -60 -141q-57 -51 -135 -51q-82 0 -124 60q-13 19 -38 97q-28 85 -103 85q-63 0 -101 -61q-29 -47 -29 -104q0 -122 86 -215q70 -76 175 -76q53 0 110 16q13 3 64 28q15 7 31 7q37 0 61 -32 q25 -34 25 -75q0 -59 -62 -123q-71 -74 -188 -111q-87 -28 -192 -28q-205 0 -351 120q-186 153 -186 388z" />
<glyph unicode="d" horiz-adv-x="1323" vert-adv-y="1436" d="M32 484q0 141 78 272q72 121 196 185q104 55 205 55q115 0 208 -51q15 -9 25 -9q31 0 31 84q0 46 -27 68q-16 13 -53 24q-63 20 -63 69q0 75 145 115q257 71 343 71t86 -82v-913q0 -81 7 -101q8 -22 36 -42q38 -28 48 -45q13 -22 13 -45q0 -81 -161 -123 q-76 -19 -191 -31q-60 -6 -98 -6q-37 0 -48 17q-4 7 -7 38q-5 52 -36 52q-17 0 -53 -30q-102 -84 -228 -84q-154 0 -278 116q-73 68 -118 158q-60 118 -60 238zM509 473q0 -137 49 -207q35 -50 95 -50q58 0 90 62q34 65 34 251q0 160 -35 212q-29 42 -82 42 q-27 0 -55.5 -19.5t-44.5 -49.5q-51 -92 -51 -241z" />
<glyph unicode="e" horiz-adv-x="1090" vert-adv-y="1436" d="M33 478q0 243 198 399q150 119 349 119q190 0 323 -108q67 -53 108 -128q47 -84 47 -166q0 -64 -32 -113q-23 -33 -65 -33h-470q-31 0 -31 -25q0 -51 46 -102q73 -81 173 -81q62 0 130 25q45 18 76 39q35 25 53 25q27 0 51 -32q26 -34 26 -67q0 -71 -90 -139 q-159 -119 -367 -119q-209 0 -352 122q-69 60 -114 145q-59 114 -59 239zM452 689q0 -25 15 -42q11 -12 50 -12h101q64 0 64 58q0 56 -32 90q-31 33 -80 33q-56 0 -88 -44q-30 -42 -30 -83z" />
<glyph unicode="f" horiz-adv-x="820" vert-adv-y="1436" d="M15 616l1 8l8 126q2 35 16 42q8 4 41 6q38 2 38 36q0 13 -27 64q-46 84 -46 167q0 120 84 198q123 113 353 113q189 0 302 -89q87 -69 87 -159q0 -72 -53 -119q-40 -35 -97 -35q-72 0 -137 51q-17 13 -77 78q-43 47 -85 47q-34 0 -52 -26q-16 -22 -16 -44q0 -78 149 -169 q57 -35 74 -57q9 -11 18 -32q7 -12 32 -12h124q41 0 53 -21q2 -12 3 -20l-8 -119q-2 -34 -10 -43q-11 -13 -45 -13q-11 0 -29 3q-16 3 -25 3q-44 0 -60 -26q-18 -28 -18 -116q0 -90 24 -169q10 -36 33 -52q14 -9 49 -20q89 -26 89 -97q0 -43 -45 -80q-78 -62 -389 -62 q-354 0 -354 138q0 37 27 62q8 7 52 27q55 24 65 89q18 118 18 212q0 44 -19 68q-14 18 -60 19q-64 0 -72 4q-17 9 -16 19z" />
<glyph unicode="g" horiz-adv-x="1170" vert-adv-y="1436" d="M23 -134q0 43 26 77q21 28 51 41t30 25q0 11 -25 33q-81 68 -81 139q0 65 62 125q36 35 72 53q24 13 24 24q0 14 -30 42q-103 95 -103 222q0 92 68 170q69 79 205 127q113 40 221 40q75 0 241 -32q28 -6 59 -6q64 0 130 29q33 14 87 57q24 18 37 18q23 0 44 -30 q19 -26 19 -65q0 -43 -25 -92q-29 -55 -62 -84q-23 -21 -23 -31v-6q5 -39 5 -59q0 -116 -80 -198q-73 -74 -187 -112q-118 -40 -245 -40q-38 0 -68 4q-26 3 -41 3q-52 0 -52 -55q0 -24 22 -42q35 -29 98 -29q49 0 126 11q162 23 247 23q112 0 178 -39q59 -34 90 -99 q23 -48 23 -99q0 -103 -74 -198q-87 -111 -259 -165q-135 -43 -310 -43q-221 0 -360 68q-71 36 -113 101q-27 41 -27 92zM311 -95q0 -45 39 -79q63 -54 190 -54q80 0 139 19q71 24 71 80q0 29 -25 45q-23 15 -48 15q-15 0 -46 -5q-56 -8 -125 -8l-170 16q-25 0 -25 -29z M442 705q0 -84 26 -158q28 -81 95 -81q55 0 85 39q30 40 30 109q0 101 -32 168q-28 61 -95 61q-41 0 -72 -32q-37 -38 -37 -106z" />
<glyph unicode="h" horiz-adv-x="1375" vert-adv-y="1436" d="M14 96q0 29 21 53q5 5 45 34q42 29 53 141q14 138 14 402q0 208 -12 293q-5 36 -20 53q-8 8 -35 22q-62 32 -62 77q0 71 128 115q129 44 260 66q82 14 128 14q56 0 54 -50l-13 -419q-1 -23 6 -43q11 -32 40 -32q25 0 47 33q98 141 259 141q158 0 253 -97q47 -48 61 -107 q16 -65 18 -164l9 -361q2 -56 22 -85q9 -11 43 -39q30 -24 30 -57q0 -107 -328 -107q-288 0 -288 99q0 25 14 43l26 34q42 55 42 274q0 134 -25 195q-33 84 -118 84q-61 0 -90 -44q-21 -33 -21 -121v-193q6 -115 10 -136q7 -28 48 -72q19 -21 19 -48q0 -115 -295 -115 q-343 0 -343 117z" />
<glyph unicode="i" horiz-adv-x="711" vert-adv-y="1436" d="M9 792q0 64 81 95q89 34 210 65q144 38 230 38q54 0 54 -63v-581q0 -71 12 -101q12 -31 51 -60q52 -37 52 -76q0 -130 -329 -130q-174 0 -277 28q-38 10 -61 40q-18 22 -18 52t21 54q6 7 47 36q22 17 30.5 34t16.5 58q10 60 10 123q0 82 -7 206q-4 54 -18 73 q-11 15 -42 29q-63 28 -63 80zM28 1182q0 65 80 112q48 29 130 50q81 21 147 21q84 0 139 -33q50 -30 50 -86q0 -78 -77 -123q-123 -71 -299 -71q-67 0 -112 28q-58 36 -58 102z" />
<glyph unicode="j" horiz-adv-x="692" vert-adv-y="1436" d="M-24 -260q0 27 20 46q19 18 43 18q3 0 32 -3l25 -3q22 0 36 20q12 17 12 35q0 10 -3 28q-7 37 -7 69v635q0 54 -22 80q-14 17 -46 30q-58 23 -58 69q0 57 60 102q79 60 307 102q117 22 167 22q28 0 44 -14q18 -17 18 -66v-886q0 -181 -39 -256q-43 -84 -167 -129 q-94 -35 -192 -35q-99 0 -170 42q-60 35 -60 94zM35 1182q0 65 80 112q48 29 130 50q81 21 147 21q84 0 139 -33q50 -30 50 -86q0 -78 -77 -123q-123 -71 -299 -71q-67 0 -112 28q-58 36 -58 102z" />
<glyph unicode="k" horiz-adv-x="1484" vert-adv-y="1436" d="M-6 1140q0 63 116 112q66 29 177 63q163 50 252 50q25 0 40 -15q13 -13 13 -29v-5l-9 -313q-2 -66 -2 -138q0 -99 3 -119q7 -41 42 -41q22 0 78 32q77 43 77 63q0 12 -23 42q-16 21 -16 40q0 35 36 63q60 45 232 45q92 0 175 -17q116 -24 116 -109q0 -27 -17 -44 q-18 -18 -84 -31q-27 -5 -100 -48q-83 -48 -83 -66q0 -40 190 -281q87 -110 128 -146q22 -19 70 -45q72 -40 72 -90q0 -49 -45 -82q-42 -31 -126 -31h-323q-62 1 -96 45l-166 213q-67 86 -76 95q-19 21 -29 21q-19 0 -19 -92q0 -36 13 -64q7 -16 43 -45q26 -21 26 -62 q0 -45 -39 -81q-57 -51 -263 -51q-214 0 -276 18q-34 9 -60 42q-22 28 -22 64q0 37 42 64q37 23 46.5 35t15.5 38q22 137 22 408v24v219q0 126 -19 156q-13 18 -49 24q-83 12 -83 69z" />
<glyph unicode="l" horiz-adv-x="711" vert-adv-y="1436" d="M-9 1153q0 49 51 90q77 61 320 103q117 20 165 20q79 0 79 -95q0 -37 -10 -151q-11 -163 -15 -327v-321q0 -200 5 -240q8 -44 51 -62q39 -17 49 -30q13 -18 13 -42q0 -52 -58 -85q-60 -34 -274 -34q-189 0 -268 29q-31 12 -56 37q-26 28 -26 62q0 28 25 47q6 5 42 20 q39 17 48 93q16 131 16 387q0 217 -11 278q-11 65 -35 93q-12 15 -38 31q-41 24 -53 40q-20 26 -20 57z" />
<glyph unicode="m" horiz-adv-x="1963" vert-adv-y="1436" d="M13 83q0 14 8 31q6 11 45 46q46 41 53 113q11 126 11 260q0 92 -11 136q-9 32 -38 54q-28 21 -36 30q-12 14 -12 38q0 68 106 106q258 93 376 93q59 0 59 -75v-24q-1 -17 -1 -26q0 -54 32 -54q16 0 53 43q41 47 102 82q93 54 202 54q164 0 232 -123q26 -45 40 -45 q12 0 30 18q150 150 317 150q130 0 212 -71q86 -75 86 -221q0 -33 -3 -109q-1 -12 -1 -160q0 -78 -1 -115q-1 -21 -1 -33q0 -62 40 -109q23 -27 27 -33q9 -14 9 -34q0 -54 -64 -89q-70 -37 -239 -37q-100 0 -190 25q-105 29 -105 93q0 16 10 37q3 5 34 48q31 42 31 275 q0 131 -19 186q-9 25 -32 44q-24 19 -57 19q-43 0 -73 -36q-24 -30 -27 -109q0 -9 -1 -119q3 -172 17 -229q7 -23 43 -76q11 -16 11 -39q0 -119 -314 -119q-181 0 -249 28q-52 22 -52 81q0 21 11 39q2 4 40 39q24 23 31 45q7 24 9 105l5 199q0 177 -102 177q-59 0 -81 -58 q-19 -53 -19 -239q0 -113 4 -156q3 -32 26 -72q25 -44 25 -73q0 -51 -63 -77q-89 -38 -248 -38q-218 0 -277 53q-21 19 -21 51z" />
<glyph unicode="n" horiz-adv-x="1351" vert-adv-y="1436" d="M5 779q0 59 88 95q116 47 183 66q183 50 215 50q26 0 48 -20q23 -20 23 -53q0 -8 -1 -27q-1 -9 -1 -15q0 -47 40 -47q24 0 51 38q42 60 90 86q68 38 159 38q128 0 217 -66q76 -57 98 -137q16 -59 21 -160l14 -352q2 -41 19 -71q7 -11 55 -61q15 -17 15 -44q0 -46 -33 -70 q-46 -34 -163 -44q-72 -6 -167 -6q-135 0 -194 24q-59 25 -59 83q0 19 10 35q2 3 36 39q41 43 41 292q0 83 -19 156q-24 90 -110 90q-70 0 -96 -51q-20 -40 -20 -148v-198q1 -73 17 -105q7 -12 39 -61q12 -18 12 -40q0 -58 -74 -86q-78 -30 -265 -30q-277 0 -277 116 q0 21 11 38q5 9 39 33q29 21 36 56q17 84 17 346q0 60 -9 85q-10 27 -30 39l-33 21q-43 26 -43 66z" />
<glyph unicode="o" horiz-adv-x="1232" vert-adv-y="1436" d="M33 452q0 237 176 387q184 158 448 158q183 0 320 -95q99 -68 159 -177q62 -114 62 -239q0 -217 -199 -369q-190 -145 -435 -145q-238 0 -387 136q-144 132 -144 344zM479 649q0 -98 46 -259q32 -114 64 -146q27 -27 66 -27q34 0 59 21q31 26 31 87q0 117 -34 249 q-35 134 -82 172q-24 20 -56 20q-51 0 -77 -45q-17 -30 -17 -72z" />
<glyph unicode="p" horiz-adv-x="1356" vert-adv-y="1436" d="M14 748q0 54 52 91q58 41 203 95q156 57 258 57q67 0 80 -18q6 -9 6 -45q1 -37 23 -37q11 0 68 38q32 21 86 41q77 27 147 27q124 0 224 -88q76 -67 118 -169q44 -107 44 -225q0 -166 -82 -304q-83 -140 -219 -202q-80 -36 -165 -36q-84 0 -176 40q-18 8 -30 8 q-29 0 -29 -58q0 -70 36 -103q8 -7 65 -46q20 -14 20 -49q0 -63 -72 -96q-68 -30 -186 -30q-215 0 -379 87q-83 44 -83 110q0 31 18 52q8 9 43 25q46 20 59 67q16 62 19 165l4 217q-6 193 -8 223q-5 58 -23 67q-8 3 -48 10q-41 7 -60 40q-13 21 -13 46zM605 305 q0 -26 15 -41q29 -28 83 -28q139 0 139 228q0 147 -58 207q-36 37 -87 37q-70 0 -76 -95l-15 -275q-1 -17 -1 -33z" />
<glyph unicode="q" horiz-adv-x="1299" vert-adv-y="1436" d="M32 483q0 237 162 375t425 138q64 0 131 -10q19 -3 132 -29q32 -8 62 -8q36 0 106 25q62 22 101 22q87 0 87 -71q0 -37 -7 -89q-19 -132 -28 -437q-5 -145 -5 -203q0 -201 11 -282q7 -45 23 -65q6 -7 31 -26q42 -32 42 -79q0 -128 -266 -128q-156 0 -272 35 q-162 48 -162 138q0 21 12 38q12 16 67 43q59 29 59 118q0 51 -27 51q-13 0 -82 -34q-66 -32 -163 -32q-195 0 -313 142q-126 151 -126 368zM519 540q0 -153 53 -242q43 -73 102 -73q50 0 68 50q18 49 18 203q0 152 -14 206q-23 93 -100 93q-42 0 -79 -48q-48 -62 -48 -189z " />
<glyph unicode="r" horiz-adv-x="1090" vert-adv-y="1436" d="M13 106q0 53 61 94q48 32 55 77q16 93 16 337q0 43 -11 67q-8 18 -39 30q-71 27 -71 81q0 55 69 95q96 56 285 89q80 14 124 14q52 0 65 -21q8 -12 17 -90q5 -44 30 -44q21 0 39 29q79 126 209 126q91 0 149 -60q27 -27 44 -71q20 -47 20 -90q0 -63 -38 -127 q-66 -113 -198 -113q-60 0 -109 32q-22 15 -67 59q-21 21 -40 21q-26 0 -35 -32q-9 -27 -9 -141q0 -175 17 -217q8 -18 18 -26q9 -8 49 -20q90 -26 90 -95t-75 -101q-70 -30 -313 -30q-241 0 -311 53q-41 31 -41 74z" />
<glyph unicode="s" horiz-adv-x="929" vert-adv-y="1436" d="M14 270q0 52 28 76q15 13 43 13q31 0 70 -34q14 -12 81 -83q50 -54 80 -67q23 -10 46 -10q38 0 56 21q17 20 17 43q0 45 -77 82q-140 69 -212 143q-92 92 -92 215q0 119 73 205q105 123 282 123q54 0 165 -23q23 -5 38 -5q16 0 66 19q23 9 41 9q44 0 91 -59 q45 -56 71 -125q15 -42 15 -77q0 -40 -32 -68q-27 -23 -65 -23q-37 0 -74 23q-18 12 -77 69q-66 62 -108 62q-29 0 -50 -23q-18 -20 -18 -47q0 -46 94 -91q177 -84 259 -166q76 -77 76 -186q0 -139 -122 -232q-106 -81 -257 -81q-38 0 -143 13q-97 11 -109 11q-11 0 -29 -3 q-28 -4 -41 -4q-48 0 -75 24q-40 35 -75 113q-36 80 -36 143z" />
<glyph unicode="t" horiz-adv-x="962" vert-adv-y="1436" d="M0 852v44q1 30 23 44l458 288q17 9 42 9h81q24 0 31 -8q11 -15 11 -49v-135q0 -30 9 -38q11 -10 41 -10h185q37 0 49 -16q10 -14 10 -55v-59q-1 -47 -13 -65q-15 -20 -52 -20h-181q-29 0 -38 -10q-10 -11 -10 -38v-338q0 -60 28 -96q31 -41 77 -41q39 0 103 37q15 9 31 9 q23 0 43 -30q20 -29 20 -62q0 -62 -68 -120q-143 -121 -343 -121q-154 0 -252 87q-103 91 -103 243v462q0 25 -7 30q-4 4 -27 4h-103q-30 0 -37 10q-7 7 -8 44z" />
<glyph unicode="u" horiz-adv-x="1365" vert-adv-y="1436" d="M5 848q0 56 75 87q47 18 179 36q142 19 254 19q58 0 58 -51v-542q0 -175 114 -175q39 0 72 27q37 30 44 123q3 36 3 123q0 161 -11 223q-6 30 -21 44q-7 7 -31 19q-58 30 -58 78q0 44 63 73q45 20 178 39q130 19 226 19q101 0 101 -106l-2 -46l-1 -49l-2 -69v-441 q0 -34 58 -62q49 -24 49 -70q0 -90 -213 -139q-125 -29 -246 -29q-57 0 -74 23q-6 9 -8 31q-6 62 -39 62q-15 0 -82 -46q-102 -70 -219 -70q-188 0 -269 111q-48 66 -59 164q-8 80 -8 189q0 40 1 101v48q0 72 -13 115q-14 49 -59 73q-41 22 -49 32q-11 15 -11 36z" />
<glyph unicode="v" horiz-adv-x="1342" vert-adv-y="1436" d="M14 874q0 60 89 87q93 29 299 29q334 0 334 -98q0 -37 -38 -71q-38 -35 -38 -60q0 -26 27 -80q55 -111 99 -111q23 0 37 16q19 19 75 125q18 34 18 65q0 24 -32 57q-34 36 -34 67q0 34 37 57q52 33 236 33q203 0 203 -90q0 -49 -73 -73q-53 -17 -75 -36q-18 -17 -66 -108 l-259 -504q-65 -129 -119 -179q-31 -29 -73 -29q-46 0 -76 34q-61 68 -107 154l-284 539q-23 44 -53 71q-15 12 -51 22q-76 22 -76 83z" />
<glyph unicode="w" horiz-adv-x="2081" vert-adv-y="1436" d="M14 854q0 55 75 90q47 21 142 35q82 11 164 11q319 0 319 -118q0 -22 -31 -68q-6 -8 -6 -18q0 -16 30 -77q66 -131 108 -131q23 0 54 50q36 57 36 81q0 35 -30 66q-6 7 -56 41q-35 24 -35 58q0 25 16 43q45 51 195 65q97 8 176 8q164 0 232 -30q54 -24 54 -76 q0 -27 -14 -49q-4 -6 -37 -40q-11 -12 -11 -29q0 -25 30 -86q54 -106 89 -106q28 0 69 63q62 94 62 132q0 18 -32 59q-23 28 -23 61q0 51 47 72q66 29 192 29q143 0 191 -29q46 -27 46 -72q0 -33 -28 -56q-5 -4 -70 -28q-40 -15 -60 -39q-21 -21 -59 -94l-250 -484 q-110 -212 -194 -212q-37 0 -70 35q-52 54 -119 162l-103 165q-31 49 -40 59q-16 19 -34 19q-36 0 -74 -66l-167 -288q-48 -83 -108 -83q-68 0 -135 112l-300 499q-75 121 -117 158q-20 16 -72 31t-52 75z" />
<glyph unicode="x" horiz-adv-x="1261" vert-adv-y="1436" d="M14 73q0 36 24 54q11 8 49 15q46 9 77 49q26 36 132 204l72 119q10 16 10 23q0 6 -13 22l-85 107q-64 80 -101 105q-19 13 -63 22q-79 17 -79 78q0 119 415 119q210 0 267 -33q45 -26 45 -64q0 -24 -33 -76q-6 -10 -6 -21q0 -28 50 -83q17 -19 29 -19q16 0 43 33 q44 55 44 78q0 16 -21 48q-19 28 -19 43q0 34 32 61q41 33 178 33q77 0 108 -10q47 -15 64 -55q7 -14 7 -28q0 -18 -12 -33q-12 -16 -73 -46q-37 -18 -68 -58q-14 -18 -90 -121l-69 -104q-12 -17 -12 -23q0 -4 11 -22l60 -91q98 -147 142 -190q23 -20 71 -42q46 -21 46 -70 q0 -54 -59 -82q-75 -36 -327 -36q-175 0 -243 16q-91 22 -91 93q0 43 53 67q29 13 29 42q0 47 -65 121q-26 29 -39 29q-30 0 -85 -93q-36 -61 -36 -88q0 -16 25 -45q21 -25 21 -55q0 -87 -205 -87q-93 0 -150 17q-60 18 -60 77z" />
<glyph unicode="y" horiz-adv-x="1294" vert-adv-y="1436" d="M14 849q0 31 21 53q52 56 209 75q116 13 218 13q149 0 205 -44q42 -33 42 -75q0 -27 -23 -61q-22 -32 -22 -56q0 -37 34 -103q56 -106 87 -106q43 0 76 87q22 56 22 94q0 45 -25 74q-38 45 -38 77q0 50 56 76q78 37 194 37q212 0 212 -105q0 -32 -21 -56q-17 -21 -79 -44 q-40 -15 -58 -35q-50 -59 -119 -246l-132 -363q-93 -254 -211 -367q-130 -124 -313 -124q-147 0 -240 79q-71 59 -71 152q0 77 51 131q50 52 121 52q70 0 115 -49q29 -31 39 -71l10 -42q6 -25 27 -38q11 -7 22 -7q34 0 57 32q17 24 17 62q0 48 -52 158l-241 513 q-43 87 -65 108q-14 13 -76 41q-17 7 -33 29q-16 23 -16 49z" />
<glyph unicode="z" horiz-adv-x="1053" vert-adv-y="1436" d="M14 714q0 90 61 193q58 100 112 100q11 0 31 -7q56 -19 117 -24q32 -1 214 -5h265q121 0 139 -8q34 -16 34 -58q0 -37 -33 -95l-265 -471q-33 -59 -33 -83q0 -47 71 -47q54 0 89 26q25 18 50 66q23 46 38 61.5t36 15.5q43 0 71 -33q29 -33 29 -89q0 -97 -68 -193 q-66 -95 -125 -95q-16 0 -40 9q-50 22 -116 23h-524q-133 0 -133 76q0 23 30 72q6 11 50 84l229 368q64 102 64 130q0 39 -84 39q-41 0 -66 -14q-26 -15 -57 -64q-29 -47 -42 -61q-24 -24 -55 -24q-36 0 -62 29q-27 29 -27 79z" />
<glyph unicode="{" horiz-adv-x="870" vert-adv-y="1436" d="M-41 683q0 74 69 94q54 14 85 51q26 33 27 133v130q0 135 49 201q38 52 112 76q52 18 150 18q225 0 307 -16q52 -11 77 -42q20 -26 20 -54q0 -70 -108 -70h-25q-39 2 -46 2q-92 0 -127 -20q-30 -17 -35 -69q-1 -17 -1 -111v-64q-2 -180 -97 -241q-8 -6 -8 -15 q0 -13 34 -42q69 -66 71 -221v-64q0 -130 11 -152q16 -33 66 -42q34 -6 88 -6q10 0 44 1q13 1 22 1q111 0 111 -70q0 -81 -115 -99q-87 -13 -289 -13q-126 0 -194 37q-80 43 -103 134q-14 54 -14 124v129q-1 101 -27 135q-31 36 -85 50q-69 20 -69 95z" />
<glyph unicode="|" vert-adv-y="1436" d="M286 -341v1706h451v-1706h-451z" />
<glyph unicode="}" horiz-adv-x="870" vert-adv-y="1436" d="M15 91q0 70 108 70q13 0 71 -2q94 2 127 20q31 19 35 69q1 20 1 111v64q2 118 37 179q20 32 59 62q8 6 8 15q0 13 -33 42q-29 26 -46 66q-24 52 -25 155v64q0 130 -11 152q-15 33 -66 42q-34 6 -88 6q-14 0 -44 -1q-15 -1 -22 -1q-111 0 -111 70q0 81 115 99 q87 13 289 13q126 0 195 -37q79 -42 103 -134q14 -54 14 -124v-130q1 -100 27 -133q31 -36 85 -51q68 -20 68 -94q0 -75 -68 -95q-54 -14 -85 -50q-26 -34 -27 -135v-129q0 -135 -49 -201q-38 -51 -112 -76q-52 -18 -151 -18q-226 0 -307 16q-53 11 -77 43q-20 25 -20 53z " />
<glyph unicode="~" horiz-adv-x="1365" vert-adv-y="1436" d="M187 1255q44 115 86 178q99 148 245 148q46 0 112 -22q13 -4 113 -37q105 -36 127 -36q36 0 65 34q11 13 40 67l211 -179q-48 -119 -80 -169q-102 -161 -250 -161q-43 0 -157 39l-67 22q-105 37 -131 37q-51 0 -103 -101z" />
<glyph unicode="&#xa0;" horiz-adv-x="355" vert-adv-y="1436" />
<glyph unicode="&#xa1;" horiz-adv-x="595" vert-adv-y="1436" d="M24 285q0 211 83 443q20 54 46 108q66 -32 129 -32q57 0 127 30q18 -42 32 -79q100 -267 100 -493q0 -118 -56 -193q-72 -96 -199 -96q-101 0 -171 64q-91 84 -91 248zM24 1090q0 114 78 187q79 73 184 73q67 0 136 -41q64 -38 96 -108q25 -54 25 -111q0 -112 -78 -186 q-31 -29 -74 -48q-55 -25 -107 -25q-71 0 -139 41q-64 38 -96 108q-25 54 -25 110z" />
<glyph unicode="&#xa2;" horiz-adv-x="962" vert-adv-y="1436" d="M33 567q0 178 116 303q99 107 216 138q17 5 24 11q9 9 9 38v27q0 40 14 54t54 14h58q42 0 55 -14q14 -15 14 -47v-7q-1 -12 -1 -15q0 -31 37 -35q126 -13 225 -92q95 -77 95 -175q0 -78 -51 -126q-52 -48 -130 -48q-52 0 -88 30q-24 20 -47 91q-31 96 -101 96 q-52 0 -84 -44q-33 -46 -33 -116q0 -116 92 -196q64 -55 142 -55q70 0 156 37q20 9 33 9q32 0 54 -33q22 -31 22 -67q0 -62 -78 -129q-52 -43 -103 -63q-41 -16 -115 -33q-13 -3 -19 -10t-6 -35v-31q0 -40 -14 -55q-14 -14 -55 -14h-58q-39 0 -54 15q-14 14 -14 54v39 q0 30 -9 38q-8 6 -35 12q-86 18 -181 110q-140 136 -140 324z" />
<glyph unicode="&#xa3;" horiz-adv-x="1226" vert-adv-y="1436" d="M14 214q0 101 52 159q45 51 123 51q31 0 77 -11q24 -6 39 -6q25 0 25 21q0 7 -3 20q-4 15 -9 39q-9 53 -31 59q-20 5 -79 5l-63 -2q-71 0 -71 100q0 47 19 66q10 11 25 13q2 1 56 2q44 1 44 22q0 9 -7 30q-21 67 -21 120q0 141 102 237q143 134 430 134q147 0 235 -41 q104 -48 157 -136q36 -61 36 -130q0 -75 -47 -118q-44 -41 -116 -41q-68 0 -105 37q-36 35 -36 94q0 10 1 29v26q0 43 -17 61q-28 27 -84 27q-107 0 -107 -131q0 -95 27 -172q9 -23 23 -30q12 -5 87 -7l51 1q52 0 65 -30q12 -27 12 -67q0 -52 -22 -69q-11 -9 -69 -9 q-61 0 -88 -6q-21 -5 -31 -24q-6 -9 -19 -47q-10 -26 -36 -76q-9 -16 -9 -29q0 -18 33 -37q30 -18 87 -35q56 -18 102 -18q86 0 147 91q36 54 62 69q25 15 51 15q48 0 77 -37q23 -28 23 -73q0 -97 -63 -202q-110 -185 -323 -185q-77 0 -151 32t-111 63q-44 36 -59 36 q-20 0 -82 -48q-106 -82 -201 -82q-94 0 -154 73q-54 66 -54 167z" />
<glyph unicode="&#xa4;" horiz-adv-x="1201" vert-adv-y="1436" d="M39 173q0 20 31 46q23 20 50 44q20 19 20 35q0 18 -15 46q-52 97 -52 210q0 141 69 246q16 25 16 42q0 24 -21 47q-7 7 -68 60q-30 28 -30 46q0 27 37 45q99 47 113 52q27 10 45 10q25 0 43 -17q8 -8 44 -51q29 -36 49 -36q14 0 39 10q104 40 221 40q100 0 181 -28 q25 -8 35 -8q16 0 29 11.5t42 51.5q22 30 47 30q37 0 143 -56q55 -30 55 -57q0 -19 -31 -42q-17 -14 -56 -52q-25 -25 -25 -44q0 -17 23 -56q55 -92 55 -211q0 -120 -73 -226q-16 -24 -16 -36q0 -19 38 -56q40 -39 54 -50q31 -24 31 -42q0 -23 -36 -46q-15 -10 -73 -38 q-59 -29 -92 -29q-17 0 -31 15q-7 6 -41 51q-32 44 -57 44q-14 0 -46 -12q-108 -42 -231 -42q-98 0 -178 26q-15 5 -23 5q-19 0 -55 -44q-34 -41 -61 -41q-33 0 -127 46q-58 27 -65 38q-7 12 -7 23zM438 744q0 -94 49 -255q36 -114 69 -145q29 -27 74 -27q65 0 99 34 q30 30 30 83q0 99 -40 238q-39 138 -86 173q-26 19 -65 19q-65 0 -105 -45q-25 -28 -25 -75z" />
<glyph unicode="&#xa5;" horiz-adv-x="1281" vert-adv-y="1436" d="M14 1153q0 70 75 94q85 26 260 26q235 0 296 -37q45 -28 45 -68q0 -27 -25 -52q-38 -37 -38 -53q0 -34 51 -107q34 -47 63 -47q35 0 84 65q36 48 36 71q0 24 -16 39l-27 27q-23 22 -23 60q0 102 252 102q143 0 177 -24q42 -30 42 -83q0 -40 -24 -63q-13 -12 -52 -22 q-42 -11 -81 -52q-24 -26 -108 -128q-21 -26 -21 -35q0 -13 23 -13q9 0 21 1q21 2 38 2q81 0 98 -23q15 -21 15 -55q0 -65 -78 -61q-40 1 -56 -1h-103q-60 -4 -65 -10q-9 -10 -15 -39q-12 -57 -12 -86q0 -34 26 -34h27h91l67 2q65 0 82 -22q15 -22 15 -56q0 -41 -28 -54 q-13 -6 -105 -8h-108q-32 0 -51 -5q-13 -4 -13 -26q0 -40 7 -99q5 -37 24 -58q12 -13 42 -29q65 -35 65 -89q0 -124 -362 -124q-221 0 -329 45q-62 26 -62 82q0 59 68 83q54 19 65 47q11 29 19 86q5 35 5 46q0 33 -36 31l-18 -1h-53l-66 -2q-93 0 -93 79q0 38 24 53 q19 12 105 12h88q35 0 45 8q7 4 7 22q0 52 -16 94q-15 42 -43 41l-23 -1h-49l-64 -2q-94 0 -94 80q0 37 24 52q19 11 79 11h13q34 0 34 21q0 12 -27 45q-3 4 -23 32q-78 104 -117 121q-47 24 -56 35q-18 22 -18 54z" />
<glyph unicode="&#xa6;" vert-adv-y="1436" d="M286 314h451v-655h-451v655zM286 610v755h451v-755h-451z" />
<glyph unicode="&#xa7;" horiz-adv-x="1040" vert-adv-y="1436" d="M23 89q0 28 31 49q24 17 75 28q40 9 72 9q45 0 76 -21q9 -6 43 -45q69 -78 179 -78q113 0 113 67q0 47 -110 72q-215 49 -333 114q-56 31 -94 92t-38 133q0 140 136 228q10 6 10 11q0 3 -64 60q-33 29 -52 86q-13 40 -13 83q0 127 112 201q132 88 369 88q243 0 383 -79 q76 -44 76 -100q0 -33 -36 -58q-66 -46 -137 -46q-31 0 -56 16q-5 3 -46 41q-66 61 -156 61q-53 0 -80 -25q-17 -15 -17 -33q0 -14 7 -25q20 -36 131 -57q107 -21 211 -58q200 -72 200 -255q0 -94 -71 -172q-32 -36 -64 -55q-16 -9 -16 -15q0 -8 25 -21q16 -9 55 -44 q66 -60 66 -169q0 -132 -111 -215q-129 -97 -364 -97q-275 0 -429 106q-47 34 -74 86q-9 18 -9 37zM375 595q0 -46 66 -65l152 -44q8 -3 13 -3q11 0 27 29q14 24 14 46q0 47 -64 65l-151 42q-5 1 -11 1q-13 0 -28 -20q-18 -25 -18 -51z" />
<glyph unicode="&#xa8;" vert-adv-y="1436" d="M51 1257q0 83 63 131t176 48q88 0 132 -45q36 -37 36 -92q0 -83 -74 -131q-81 -52 -186 -52q-54 0 -93 29q-54 41 -54 112zM567 1254q0 83 63 130q64 48 176 48q88 0 132 -45q36 -37 36 -91q0 -84 -74 -131q-81 -52 -186 -52q-54 0 -92 29q-55 40 -55 112z" />
<glyph unicode="&#xa9;" horiz-adv-x="1580" vert-adv-y="1436" d="M41 681q0 203 112 375q108 168 302 260q159 76 348 76q201 0 380 -105q179 -104 275 -282q82 -153 82 -323q0 -200 -110 -370t-297 -261q-160 -78 -341 -78q-208 0 -388 103q-182 103 -280 283q-83 153 -83 322zM191 683q0 -163 90 -302q89 -138 241 -211 q129 -62 270 -62q168 0 313 85q144 85 221 229q65 123 65 259q0 164 -89 303q-86 136 -237 210q-127 63 -279 63q-160 0 -305 -83q-146 -85 -224 -229q-66 -124 -66 -262zM370 689q0 120 79 219q69 86 179 131q83 34 171 34q84 0 161 -35q35 -16 48 -16q7 0 31 6q8 2 18 2 q31 0 55 -28q56 -64 56 -158q0 -68 -50 -99q-27 -18 -60 -18q-55 0 -87 57q-39 68 -75 92q-52 35 -110 35q-51 0 -83 -35q-35 -37 -35 -104q0 -89 48 -163q63 -99 183 -99q99 0 155 50q23 21 39 21q22 0 37 -18q17 -20 17 -46q0 -46 -34 -98q-24 -36 -50 -47q-7 -3 -37 -8 q-20 -4 -55 -19q-86 -39 -176 -39q-148 0 -265 83q-72 51 -115 132q-45 82 -45 168z" />
<glyph unicode="&#xaa;" horiz-adv-x="750" vert-adv-y="1436" d="M14 701q0 85 90 139q86 51 198 51h29q27 0 35 5.5t8 24.5q0 113 -53 113q-30 0 -66 -47q-59 -77 -124 -77q-33 0 -53 17q-25 20 -25 53q0 47 62 91q45 31 121 54q81 23 156 23q144 0 220 -75q50 -48 50 -143l-1 -86q0 -97 15 -122q9 -14 34 -17q26 -4 26 -31 q0 -51 -61 -97q-61 -47 -136 -47q-70 0 -110 45q-11 13 -20 13q-10 0 -30 -14q-66 -44 -149 -44q-85 0 -139 34q-77 50 -77 137zM287 727q0 -56 47 -56q45 0 45 80q0 42 -29 42q-25 0 -44 -20q-19 -19 -19 -46z" />
<glyph unicode="&#xab;" horiz-adv-x="792" vert-adv-y="1436" d="M14 525q0 91 163 256q189 192 265 192q27 0 51 -18q37 -29 37 -70q0 -31 -19 -60l-86 -130q-80 -122 -80 -170q0 -51 67 -152q78 -116 95 -145q17 -28 17 -58q0 -34 -30 -59q-29 -24 -66 -24q-49 0 -131 71q-74 65 -186 192q-97 110 -97 175zM373 525q0 24 27 72 q33 59 134 213q22 35 22 87q35 27 50 37q52 38 89 38q24 0 48 -19q37 -28 37 -69q0 -31 -19 -60l-85 -131q-80 -121 -80 -169q0 -53 67 -152q74 -111 94 -146q17 -28 17 -58q0 -34 -29 -59q-30 -24 -66 -24q-49 0 -129 69q1 12 1 18q0 36 -20 70q-18 30 -96 146 q-62 94 -62 137z" />
<glyph unicode="&#xac;" vert-adv-y="1436" d="M68 229v392h887v-621h-437v229h-450z" />
<glyph unicode="&#xad;" horiz-adv-x="631" vert-adv-y="1436" d="M23 402q0 25 20 98q39 142 96 194q23 20 64 20q17 0 47 -3q128 -13 185 -13q65 0 94 5q33 5 44 5q32 0 32 -47q0 -96 -69 -236q-26 -55 -46 -70q-15 -12 -33 -12t-49 5q-87 15 -203 15q-50 0 -91 -4q-34 -3 -50 -3q-41 0 -41 46z" />
<glyph unicode="&#xae;" horiz-adv-x="1580" vert-adv-y="1436" d="M41 681q0 203 112 375q108 168 302 260q159 76 348 76q201 0 380 -105q179 -104 275 -282q82 -153 82 -323q0 -200 -110 -370t-297 -261q-160 -78 -341 -78q-208 0 -388 103q-182 103 -280 283q-83 153 -83 322zM191 683q0 -163 90 -302q89 -138 241 -211 q129 -62 270 -62q168 0 313 85q144 85 221 229q65 123 65 259q0 164 -89 303q-86 136 -237 210q-127 63 -279 63q-160 0 -305 -83q-146 -85 -224 -229q-66 -124 -66 -262zM367 995q0 68 132 68q15 0 95 -6q21 -1 45 -1q42 0 132 6q55 4 84 4q113 0 193 -56q74 -51 74 -142 q0 -66 -42 -113q-24 -28 -54 -42q-15 -7 -15 -14q0 -9 23 -18q64 -25 94 -72q24 -35 36 -119q5 -34 14 -43q10 -9 40 -17t30 -44q0 -29 -33 -53q-45 -33 -147 -33q-103 0 -153 44q-46 41 -84 193q-13 49 -31 66q-21 22 -52 22q-16 0 -21 -7q-6 -9 -6 -66q0 -56 9 -93 q3 -14 26 -26q38 -20 38 -53q0 -29 -27 -45q-44 -26 -184 -26q-215 0 -215 81q0 25 37 48q28 18 35 49q8 39 9 91l1 160v76q0 75 -10 102q-7 18 -28 28q-45 21 -45 51zM716 778q-1 -14 2 -21q4 -9 20 -9q52 0 72 27q16 22 16 68q0 95 -70 95q-18 0 -25 -7q-8 -7 -9 -29z" />
<glyph unicode="&#xaf;" vert-adv-y="1436" d="M0 1454v257h1024v-257h-1024z" />
<glyph unicode="&#xb0;" horiz-adv-x="766" vert-adv-y="1436" d="M27 1053q0 145 108 237q112 96 273 96q111 0 195 -58q60 -42 97 -108q38 -70 38 -146q0 -132 -122 -225q-116 -89 -265 -89q-145 0 -236 83q-88 81 -88 210zM269 1192q0 -70 38 -189q26 -84 52 -108q22 -20 54 -20q81 0 81 87q0 74 -30 176q-29 101 -66 128 q-20 14 -46 14q-44 0 -68 -33q-15 -22 -15 -55z" />
<glyph unicode="&#xb1;" vert-adv-y="1436" d="M20 41q0 15 26 89q33 93 58 111q17 13 40 13q12 0 31 -2q96 -10 163 -10h25q-1 -56 -5 -92q-1 -16 -1 -26q0 -33 24 -54q21 -18 43 -18q30 0 142 42q85 31 101 77q6 15 6 34q0 5 -2 37h173q78 0 94 2q21 3 27 3q16 0 27 -12q11 -11 11 -27q0 -27 -24 -98 q-28 -83 -51 -103q-15 -13 -34 -13l-159 14h-448q-141 0 -199 -6q-13 -1 -22 -1q-22 0 -35 15q-11 12 -11 25zM20 501q0 15 26 89q33 93 58 111q17 13 40 13q12 0 30 -2q108 -10 137 -9h25q56 0 55 54v65q-1 63 -12 138q-2 11 -2 21q0 36 62 64q21 9 89 30q46 15 70 15 q20 0 32 -14q9 -11 9 -24q0 -6 -3 -27q-2 -13 -2 -94v-174q1 -53 55 -54h155q78 0 94 2q21 3 27 3q16 0 27 -12q11 -11 11 -27q0 -27 -24 -99q-28 -83 -51 -103q-15 -13 -34 -13l-159 14h-46q-59 4 -55 -55v-16q-1 -75 10 -164q2 -18 2 -31q0 -43 -62 -72 q-30 -14 -87.5 -32.5t-71.5 -18.5q-17 0 -30 14q-11 12 -11 33q0 8 1 21q6 72 6 199v67q3 58 -55 55h-49q-138 0 -199 -6q-14 -1 -22 -1q-22 0 -35 14q-11 13 -11 26z" />
<glyph unicode="&#xb2;" horiz-adv-x="765" vert-adv-y="1436" d="M-6 584q0 12 9 25t84 79q125 108 182 198q30 46 30 78q0 58 -62 58q-30 0 -54 -14q-6 -4 -54 -40q-16 -13 -40 -13q-34 0 -62 24q-27 24 -27 51q0 56 88 113q141 93 310 93q98 0 178 -30q58 -22 88 -60q36 -46 36 -99q0 -107 -159 -229q-52 -40 -52 -59q0 -6 5 -13 q15 -19 44 -19q54 0 98 39q35 30 53 30q65 0 65 -94q0 -101 -70 -175q-36 -37 -78 -37q-30 0 -53 33q-13 18 -27 21q-10 2 -32 2h-436q-64 0 -64 38z" />
<glyph unicode="&#xb3;" horiz-adv-x="765" vert-adv-y="1436" d="M-20 526q0 29 23 49q21 19 53 19q16 0 88 -16q23 -5 65 -5q95 0 140 53q23 26 23 51q0 48 -45 73q-33 18 -80 18q-36 0 -65 -8q-18 -5 -27 -5q-14 0 -29 19q-29 38 -29 80q0 16 11 24q5 4 55 20q57 19 91 63q11 15 11 34q0 31 -27 54t-63 23t-103 -33q-15 -7 -25 -7 t-21 9q-30 25 -30 63q0 44 81 82q109 51 251 51q124 0 221 -43q47 -21 71 -62q15 -27 15 -57q0 -68 -76 -122q-17 -12 -17 -19q0 -12 30 -16q69 -11 111 -42q68 -49 68 -140q0 -98 -73 -177q-68 -74 -199 -110q-94 -25 -206 -25q-104 0 -183 20q-110 28 -110 82z" />
<glyph unicode="&#xb4;" vert-adv-y="1436" d="M347 1166q0 38 51 77l19 15q47 34 53 41q13 15 13 27q0 8 -12 30q-4 7 -4 15q0 19 24 32q47 27 142 27q134 0 198 -48q38 -30 38 -61q0 -47 -85 -112q-152 -117 -332 -117q-105 0 -105 74z" />
<glyph unicode="&#xb5;" vert-adv-y="1436" d="M25 -357v1340h376v-475q0 -94 6 -122q8 -38 40 -63q33 -25 75 -25q57 0 84 43q22 37 22 67l-4 98v477h376v-983h-376v89q-38 -104 -110 -104q-70 0 -113 97v-439h-376z" />
<glyph unicode="&#xb6;" horiz-adv-x="1161" vert-adv-y="1436" d="M15 977q0 235 158 346q90 63 203 63q41 0 199 -18q80 -9 231 -9q66 0 181 4q23 1 42 1q76 0 108 -31q25 -25 25 -55q0 -59 -89 -83q-59 -16 -73 -39q-15 -23 -16 -122v-1105q0 -85 9 -163q2 -20 2 -32q0 -43 -55 -71q-21 -11 -96 -39q-35 -13 -48 -13q-15 0 -27 15 q-10 11 -10 32q0 8 1 21q5 72 5 199v1220q0 35 -10 45q-9 10 -45 10h-32q-38 0 -50 -14q-5 -9 -5 -41v-1169q0 -85 9 -163q2 -20 2 -32q0 -43 -55 -71q-21 -11 -96 -39q-35 -13 -48 -13q-15 0 -27 15q-10 11 -10 31q0 9 1 22q5 68 5 154v669q0 36 -8 46q-14 13 -57 15 q-54 3 -101 22q-113 47 -175 168q-48 96 -48 224z" />
<glyph unicode="&#xb7;" horiz-adv-x="564" vert-adv-y="1436" d="M23 508q0 101 66 170q80 86 197 86q112 0 190 -86q66 -71 66 -170q0 -116 -78 -190q-30 -29 -74 -48q-56 -25 -107 -25q-70 0 -139 41q-65 38 -97 108q-24 54 -24 114z" />
<glyph unicode="&#xb8;" vert-adv-y="1436" d="M362 -208q0 48 37 83q46 43 114 43q71 0 121 -47q54 -50 54 -128q0 -93 -81 -187q-58 -67 -119 -67q-27 0 -44 16q-15 14 -15 29q0 11 16 27q51 50 51 79q0 19 -21 25q-113 35 -113 127z" />
<glyph unicode="&#xb9;" horiz-adv-x="765" vert-adv-y="1436" d="M34 623q0 16 10 28q19 24 54 24q6 0 41 -5q18 -2 26 -2q31 0 45 35q13 30 13 292q0 33 -16 42q-13 8 -42 8q-9 0 -26 -2q-13 -1 -24 -1q-29 0 -44 19q-10 13 -10 27q0 33 51 63q55 32 177 59q123 27 242 27q112 0 112 -58q0 -29 -46 -49q-32 -13 -40 -34q-9 -22 -9 -162 q0 -205 22 -241q14 -22 85 -25q67 -3 67 -53q0 -47 -77 -63q-108 -22 -259 -22q-127 0 -245 24q-83 17 -100 44q-7 12 -7 25z" />
<glyph unicode="&#xba;" horiz-adv-x="796" vert-adv-y="1436" d="M18 819q0 144 115 234q121 95 291 95q119 0 208 -57q65 -41 104 -107q41 -69 41 -145q0 -132 -130 -223q-124 -87 -282 -87q-154 0 -252 82q-95 79 -95 208zM317 935q0 -64 35 -168q21 -62 45 -74q11 -5 25 -5q51 0 51 55q0 120 -48 217q-19 38 -52 38q-56 0 -56 -63z " />
<glyph unicode="&#xbb;" horiz-adv-x="792" vert-adv-y="1436" d="M14 884q0 41 37 69q25 19 54 19q42 0 145 -85q97 -79 180 -174q100 -115 100 -189q0 -44 -34.5 -96t-131.5 -155q-109 -115 -166 -155q-46 -33 -82 -33q-37 0 -67 25q-29 24 -29 58q0 30 17 59q19 32 95 145q67 100 67 152q0 30 -30 85q-31 56 -136 215q-19 29 -19 60z M268 908q26 65 81 65q49 0 151 -84q93 -77 180 -175q100 -114 100 -189q0 -43 -38 -102q-33 -51 -163 -185q-95 -98 -157 -136q-25 -15 -56 -15q-62 0 -91 58q60 55 144 146q91 99 118 156q20 42 20 76q0 103 -170 276q-60 60 -119 109z" />
<glyph unicode="&#xbc;" horiz-adv-x="1502" vert-adv-y="1436" d="M34 623q0 16 10 28q19 24 54 24q6 0 41 -5q18 -2 26 -2q31 0 45 35q13 30 13 292q0 33 -16 42q-13 8 -42 8q-9 0 -26 -2q-13 -1 -24 -1q-29 0 -44 19q-10 13 -10 27q0 33 51 63q55 32 177 59q123 27 242 27q112 0 112 -58q0 -29 -46 -49q-32 -13 -40 -34q-9 -22 -9 -162 q0 -205 22 -241q14 -22 85 -25q67 -3 67 -53q0 -47 -77 -63q-108 -22 -259 -22q-127 0 -245 24q-83 17 -100 44q-7 12 -7 25zM242 -89q0 22 21 53q31 47 165 260l86 144l89 150q75 10 104 27q42 24 42 70q0 47 -47 70l116 196q121 210 163 296q30 63 62 77q19 9 52 9 q97 0 97 -46q0 -34 -78 -149q-53 -74 -165 -264l-309 -523q-82 -152 -179 -326q-34 -69 -60 -84q-19 -10 -41 -10q-62 0 -99 21q-19 11 -19 29zM736 114q0 60 15 94q19 41 104 136l162 180q122 135 183 173q61 39 138 39q66 0 66 -70v-408q0 -25 18 -25h27q38 1 39 -41v-120 q-1 -36 -41 -42q-21 -4 -24 -7q-4 -2 -4 -19v-70q3 -44 -44 -46h-218q-48 2 -45 46v61q0 21 -8 29q-6 8 -32 8h-248q-48 0 -69 21q-19 18 -19 61zM917 238q0 -12 14 -16q29 -7 131 -7q43 0 49 10q11 16 11 135v29q0 46 -27 46q-20 0 -39 -22l-98 -112q-41 -46 -41 -63z" />
<glyph unicode="&#xbd;" horiz-adv-x="1502" vert-adv-y="1436" d="M34 623q0 16 10 28q19 24 54 24q6 0 41 -5q18 -2 26 -2q31 0 45 35q13 30 13 292q0 33 -16 42q-13 8 -42 8q-9 0 -26 -2q-13 -1 -24 -1q-29 0 -44 19q-10 13 -10 27q0 33 51 63q55 32 177 59q123 27 242 27q112 0 112 -58q0 -29 -46 -49q-32 -13 -40 -34q-9 -22 -9 -162 q0 -205 22 -241q14 -22 85 -25q67 -3 67 -53q0 -47 -77 -63q-108 -22 -259 -22q-127 0 -245 24q-83 17 -100 44q-7 12 -7 25zM242 -89q0 22 21 53q31 47 165 260l86 144l89 150q75 10 104 27q42 24 42 70q0 47 -47 70l116 196q121 210 163 296q30 63 62 77q19 9 52 9 q97 0 97 -46q0 -34 -78 -149q-53 -75 -165 -264l-92 -156q-147 -81 -147 -165q0 -23 19 -51l-89 -151q-82 -151 -179 -326q-34 -69 -60 -84q-19 -10 -41 -10q-62 0 -99 21q-19 11 -19 29zM732 38q0 12 9 25t84 79q124 108 182 198q30 46 30 78q0 58 -62 58q-30 0 -54 -14 q-6 -4 -54 -40q-16 -13 -40 -13q-34 0 -62 24q-27 24 -27 51q0 56 87 113q142 93 311 93q98 0 178 -30q58 -22 88 -60q36 -45 36 -99q0 -109 -158 -229q-53 -39 -53 -59q0 -7 5 -13q15 -19 44 -19q54 0 98 39q35 30 53 30q65 0 65 -94q0 -101 -70 -175q-36 -37 -78 -37 q-30 0 -53 33q-11 15 -21 19t-38 4h-436q-64 0 -64 38z" />
<glyph unicode="&#xbe;" horiz-adv-x="1502" vert-adv-y="1436" d="M-21 526q0 29 23 49q21 19 53 19q16 0 88 -16q23 -5 65 -5q95 0 140 53q23 26 23 51q0 48 -45 73q-33 18 -80 18q-36 0 -65 -8q-18 -5 -27 -5q-14 0 -29 19q-29 38 -29 80q0 16 11 24q5 4 55 20q57 19 91 63q11 15 11 34q0 31 -27 54t-63 23t-103 -33q-15 -7 -25 -7 t-21 9q-30 25 -30 63q0 44 81 82q109 51 251 51q124 0 221 -43q47 -21 71 -62q15 -27 15 -57q0 -68 -76 -122q-17 -12 -17 -19q0 -12 30 -16q69 -11 111 -42q68 -49 68 -140q0 -98 -73 -177q-68 -74 -199 -110q-94 -25 -206 -25q-104 0 -183 20q-110 28 -110 82zM241 -89 q0 22 21 53q131 201 251 404l48 81q86 37 136 91q80 85 80 195q0 26 -9 62l49 84q122 211 163 296q30 63 62 77q19 9 52 9q97 0 97 -46q0 -34 -78 -149q-48 -67 -165 -264l-309 -523q-94 -172 -179 -326q-34 -69 -60 -84q-19 -10 -40 -10q-63 0 -100 21q-19 11 -19 29z M735 114q0 59 15 94q19 41 104 136l163 180q124 136 182 173q61 39 138 39q66 0 66 -70v-408q0 -25 18 -25h27q37 1 39 -41v-120q-1 -37 -41 -42q-21 -3 -24 -7q-4 -2 -4 -19v-70q3 -44 -44 -46h-218q-29 0 -38 13q-6 10 -6 33v61q0 21 -8 29q-7 8 -32 8h-249q-48 0 -69 21 q-19 18 -19 61zM916 238q0 -12 14 -16q29 -7 131 -7q44 0 50 10q10 15 10 135v29q0 46 -26 46q-20 0 -40 -22l-98 -112q-41 -46 -41 -63z" />
<glyph unicode="&#xbf;" horiz-adv-x="1041" vert-adv-y="1436" d="M23 384q0 127 99 214q26 23 154 89q72 39 93 79q9 16 27 56q3 8 9 21q62 -25 115 -25q67 0 141 38q21 -41 21 -82q0 -59 -30 -128q-8 -17 -84 -133q-71 -107 -71 -202q0 -46 22 -78q21 -30 53 -30q33 0 50 30q8 15 14 72q11 113 67 171q58 59 151 59q69 0 112 -39 q51 -45 51 -116q0 -123 -92 -238q-92 -114 -262 -153q-68 -16 -136 -16q-119 0 -240 53q-125 55 -196 154q-68 95 -68 204zM261 1104q0 114 78 187t184 73q67 0 136 -41q64 -38 96 -108q25 -54 25 -111q0 -112 -78 -186q-77 -73 -181 -73q-106 0 -182 73q-78 74 -78 186z " />
<glyph unicode="&#xc0;" horiz-adv-x="1721" vert-adv-y="1436" d="M14 93q0 42 33 63q12 8 38 17q62 22 90 54q37 44 104 188l141 309q107 234 119 308q13 57 13 111q2 102 16 135q28 60 97 94q56 27 116 27q100 0 193 -79q129 -108 372 -629l189 -405q30 -61 51 -79q15 -13 49 -18q72 -11 72 -73q0 -51 -49 -85q-74 -52 -322 -52 q-326 0 -395 38q-54 31 -54 82q0 34 24 56q10 9 49 23q47 17 47 53q0 68 -81 80q-87 12 -246 12q-132 0 -158 -16q-12 -8 -25 -31q-15 -26 -15 -56q0 -25 19 -34q5 -3 46 -15q61 -18 61 -73q0 -119 -287 -119q-160 0 -237 23q-70 20 -70 91zM381 1455q0 36 51 67 q65 40 190 40q99 0 142 -30q19 -13 19 -29q0 -8 -11 -27q-5 -9 -5 -18q0 -13 16 -31q4 -4 49 -37q34 -26 37 -28q34 -27 34 -64q0 -74 -107 -74q-178 0 -330 117q-85 65 -85 114zM604 589q0 -24 46 -24h196q54 0 54 23q0 24 -39 96q-58 110 -85 141q-20 25 -43 25 q-31 0 -58 -67q-71 -175 -71 -194z" />
<glyph unicode="&#xc1;" horiz-adv-x="1721" vert-adv-y="1436" d="M14 93q0 42 33 63q12 8 38 17q62 22 90 54q37 44 104 188l141 309q107 234 119 308q13 57 13 111q2 102 16 135q28 60 97 94q56 27 116 27q100 0 193 -79q129 -108 372 -629l189 -405q30 -61 51 -79q15 -13 49 -18q72 -11 72 -73q0 -51 -49 -85q-74 -52 -322 -52 q-326 0 -395 38q-54 31 -54 82q0 34 24 56q10 9 49 23q47 17 47 53q0 68 -81 80q-87 12 -246 12q-132 0 -158 -16q-12 -8 -25 -31q-15 -26 -15 -56q0 -25 19 -34q5 -3 46 -15q61 -18 61 -73q0 -119 -287 -119q-160 0 -237 23q-70 20 -70 91zM604 589q0 -24 46 -24h196 q54 0 54 23q0 24 -39 96q-58 110 -85 141q-20 25 -43 25q-31 0 -58 -67q-71 -175 -71 -194zM695 1298q0 38 51 77l19 15q47 34 53 41q13 15 13 27q0 8 -12 30q-4 7 -4 15q0 19 24 32q47 27 142 27q134 0 198 -49q38 -29 38 -60q0 -47 -85 -112q-152 -117 -332 -117 q-105 0 -105 74z" />
<glyph unicode="&#xc2;" horiz-adv-x="1721" vert-adv-y="1436" d="M14 93q0 42 33 63q12 8 38 17q62 22 90 54q37 44 104 188l141 309q107 233 120 308q10 62 14 175q62 24 103 46q73 38 87 43q22 7 40 7q40 0 135 -45q106 -50 159 -61q94 -136 268 -506l189 -405q30 -61 51 -79q15 -13 49 -18q72 -11 72 -73q0 -51 -49 -85 q-74 -52 -322 -52q-327 0 -395 38q-54 31 -54 82q0 35 24 56q10 10 49 23q47 16 47 54q0 67 -81 79q-87 12 -246 12q-132 0 -158 -16q-12 -8 -25 -31q-15 -26 -15 -56q0 -25 19 -34q5 -3 45 -15q61 -18 61 -72q0 -120 -286 -120q-160 0 -237 23q-70 20 -70 91zM415 1301 q0 35 34 74q47 53 147 123q133 93 191 93q29 0 100 -39q98 -52 195 -135q87 -74 87 -118q0 -35 -28 -59q-21 -17 -44 -17q-40 0 -166 60q-100 47 -147 47q-26 0 -58 -12q-9 -3 -82 -41q-107 -56 -153 -56q-41 0 -62 32q-14 22 -14 48zM604 589q0 -24 46 -24h196q54 0 54 22 q0 34 -75 163q-38 66 -57 85q-17 15 -34 15q-19 0 -31 -14q-13 -17 -57 -124q-42 -107 -42 -123z" />
<glyph unicode="&#xc3;" horiz-adv-x="1721" vert-adv-y="1436" d="M14 93q0 42 33 63q12 8 38 17q62 22 90 54q37 44 104 188l141 309q107 233 120 308q10 62 14 170q105 16 105 84q0 7 -2 15q-3 10 -3 16q0 4 7 4q25 0 84 -31q73 -40 163 -69q84 -28 128 -28q16 0 41 5q101 -149 269 -507l189 -405q30 -61 51 -79q15 -13 49 -18 q72 -11 72 -73q0 -51 -49 -85q-74 -52 -322 -52q-327 0 -395 38q-54 31 -54 82q0 35 24 56q10 10 49 23q47 16 47 54q0 67 -81 79q-87 12 -246 12q-132 0 -158 -16q-12 -8 -25 -31q-15 -26 -15 -56q0 -25 19 -34q5 -3 45 -15q61 -18 61 -72q0 -120 -286 -120q-160 0 -237 23 q-70 20 -70 91zM418 1386q0 66 39 113q52 62 151 62q50 0 179 -56q83 -36 103 -43q38 -13 42 -15q23 -10 34 -10q7 0 16.5 7.5t9.5 12.5l-2 47q0 8 16 27q16 18 51 28q19 5 29 5q53 0 86 -29q48 -41 48 -118q0 -67 -50 -128q-57 -69 -129 -69q-41 0 -124 27q-78 25 -160 66 q-70 36 -96 36q-14 0 -25 -11q-10 -9 -10 -11l5 -53q0 -3 -16 -19q-14 -14 -49 -23q-19 -5 -27 -5q-17 0 -47 15q-74 35 -74 144zM604 589q0 -24 46 -24h196q54 0 54 22q0 34 -75 163q-38 66 -57 85q-17 15 -34 15q-19 0 -31 -14q-13 -17 -57 -124q-42 -107 -42 -123z" />
<glyph unicode="&#xc4;" horiz-adv-x="1721" vert-adv-y="1436" d="M14 93q0 42 33 63q12 8 38 17q62 22 90 54q37 44 104 188l141 309q107 234 119 308q13 57 13 111q2 102 16 135q28 60 97 94q56 27 116 27q100 0 193 -79q129 -108 372 -629l189 -405q30 -61 51 -79q15 -13 49 -18q72 -11 72 -73q0 -51 -49 -85q-74 -52 -322 -52 q-326 0 -395 38q-54 31 -54 82q0 34 24 56q10 9 49 23q47 17 47 53q0 68 -81 80q-87 12 -246 12q-132 0 -158 -16q-12 -8 -25 -31q-15 -26 -15 -56q0 -25 19 -34q5 -3 46 -15q61 -18 61 -73q0 -119 -287 -119q-160 0 -237 23q-70 20 -70 91zM308 1352q0 78 63 126 q43 32 103 52q65 21 117 21q72 0 116 -30q50 -33 50 -104q0 -83 -72 -129q-103 -67 -226 -67q-67 0 -111 38q-40 34 -40 93zM604 589q0 -24 46 -24h196q54 0 54 23q0 24 -39 96q-58 110 -85 141q-20 25 -43 25q-31 0 -58 -67q-71 -175 -71 -194zM881 1366q0 78 63 126 q43 32 103 52q65 21 117 21q72 0 116 -30q50 -33 50 -104q0 -84 -72 -130q-103 -66 -227 -66q-66 0 -110 38q-40 34 -40 93z" />
<glyph unicode="&#xc5;" horiz-adv-x="1721" vert-adv-y="1436" d="M14 93q0 42 33 63q12 8 38 17q62 22 90 54q37 44 104 188l141 309q107 234 120 308q11 61 13 157q88 -54 242 -54q182 0 266 86q105 -147 285 -530l189 -405q30 -61 51 -79q15 -13 49 -18q72 -11 72 -73q0 -51 -49 -85q-74 -52 -322 -52q-327 0 -395 38q-54 31 -54 82 q0 35 24 56q10 10 49 23q47 16 47 54q0 67 -81 79q-87 12 -246 12q-132 0 -158 -16q-12 -8 -25 -31q-15 -26 -15 -56q0 -25 19 -34q5 -3 45 -15q61 -18 61 -72q0 -120 -286 -120q-160 0 -237 23q-70 20 -70 91zM493 1362q0 96 71 148q81 58 226 58q134 0 218 -48 q45 -26 68 -80q15 -33 15 -70q0 -86 -61 -141q-73 -67 -235 -67q-302 0 -302 200zM604 589q0 -24 46 -24h196q54 0 54 22q0 34 -75 163q-38 66 -57 85q-17 15 -34 15q-19 0 -31 -14q-13 -17 -57 -124q-42 -107 -42 -123zM693 1360q0 -47 23 -76q28 -33 72 -33q45 0 73 32 q28 30 28 84q0 52 -28 82q-26 27 -73 27t-71 -35q-24 -34 -24 -81z" />
<glyph unicode="&#xc6;" horiz-adv-x="2133" vert-adv-y="1436" d="M14 102q0 25 18 48q17 22 71 41q38 14 60 39q18 20 110 164q91 142 186 315l211 386q39 71 39 96l-3 69q0 36 34 68q32 29 84 37q23 3 149 3h665q122 1 180 23q42 15 57 15q44 0 78 -36q36 -38 61 -112q22 -67 22 -135q0 -74 -41 -112q-29 -27 -63 -27q-48 0 -91 64 q-53 78 -111 98q-82 29 -212 29q-118 0 -148 -26q-26 -23 -26 -111v-158q0 -49 9 -61q17 -23 122 -23q49 0 67 33q8 16 12 67q8 113 91 113q34 0 62 -26q31 -30 44 -125q12 -87 12 -173q0 -122 -38 -212q-14 -34 -40.5 -55t-55.5 -21q-51 0 -62 85q-9 70 -34 93 q-31 29 -94 29q-53 0 -69 -37q-12 -27 -12 -69q0 -65 7 -158q8 -90 25 -112q18 -23 85 -27q57 -4 148 -4q128 0 213 69q46 38 87 124q26 55 53 70q21 12 44 12q49 0 76 -43q24 -38 24 -86q0 -71 -37 -173q-39 -107 -89 -163q-25 -28 -71 -28q-25 0 -57 8q-45 12 -95 12h-14 l-894 -6q-114 -1 -114 85q0 60 73 91q59 25 59 61q0 22 -13 35q-24 25 -104 26q-13 0 -115 3h-27q-80 0 -101 -13q-29 -17 -29 -46q0 -24 22 -41q5 -4 36 -20q63 -34 63 -86q0 -109 -293 -109q-155 0 -231 29q-30 11 -52 36q-23 26 -23 58zM671 591q0 -32 29 -47 q25 -13 112 -13q53 0 73 21q25 27 25 134v141q0 51 -5 67q-10 28 -36 28q-15 0 -34 -16q-11 -9 -39 -60l-95 -173q-30 -54 -30 -82z" />
<glyph unicode="&#xc7;" horiz-adv-x="1451" vert-adv-y="1436" d="M37 682q0 220 139 403q122 161 312 243q148 64 299 64t286 -64q64 -30 89 -30q17 0 58 10q13 3 29 3q52 0 91 -48q96 -117 96 -289q0 -120 -83 -176q-46 -31 -101 -31q-52 0 -89 27q-27 19 -56 74q-43 78 -70 113t-67 63q-96 68 -203 68q-97 0 -158 -70q-65 -75 -65 -204 q0 -171 88 -315q117 -191 337 -191q79 0 155 25q83 28 129 72q38 37 62 37q36 0 62 -36q23 -32 23 -73q0 -82 -59 -177q-41 -64 -82 -83q-12 -6 -65 -16q-38 -7 -101 -37q-89 -42 -183 -60q-62 90 -174 90q-93 0 -153 -73q-158 45 -265 125q-127 96 -203 244 q-78 152 -78 312zM582 -83q0 50 38 85q48 45 117 45q74 0 126 -49q55 -51 55 -132q0 -95 -83 -193q-59 -69 -122 -69q-28 0 -46 17q-15 14 -15 29q0 12 17 28q52 51 52 82q0 19 -22 26q-117 36 -117 131z" />
<glyph unicode="&#xc8;" horiz-adv-x="1394" vert-adv-y="1436" d="M5 1266q0 62 56 85q33 14 164 14h514q207 0 288 13q26 4 79 20q21 6 34 6q51 0 91 -55q66 -92 66 -223q0 -70 -33 -106q-28 -32 -71 -32q-35 0 -54 16q-16 13 -46 59q-49 73 -133 95q-62 17 -189 17q-117 0 -146 -34q-18 -21 -22 -70q-2 -23 -2 -165q0 -76 14 -92 q17 -19 109 -19q47 0 64 19q18 18 23 61q10 76 21 93q26 43 70 43q41 0 71 -39q24 -32 38 -116q12 -71 12 -141q0 -157 -49 -259q-27 -55 -82 -55q-35 0 -50 23q-10 13 -17 68q-10 71 -53 96q-31 17 -80 17q-50 0 -67 -43q-10 -27 -10 -87q0 -73 14 -191q6 -53 29 -65 q40 -21 169 -21q173 0 249 55q59 43 97 123q28 58 50.5 78t58.5 20q42 0 69 -36q28 -37 28 -91q0 -81 -52 -203q-51 -118 -89 -150q-17 -15 -40 -15q-22 0 -57 6q-63 12 -171 15h-848q-59 0 -84 27q-23 25 -23 59q0 33 21 51q8 6 46 24q41 18 54 49q46 107 46 446 q0 386 -48 487q-12 25 -34 35q-6 3 -38 12q-57 17 -57 76zM342 1455q0 36 51 67q65 40 190 40q99 0 142 -30q19 -13 19 -29q0 -8 -11 -27q-5 -9 -5 -18q0 -13 16 -31q4 -4 49 -37q34 -26 37 -28q34 -27 34 -64q0 -74 -107 -74q-178 0 -330 117q-85 65 -85 114z" />
<glyph unicode="&#xc9;" horiz-adv-x="1394" vert-adv-y="1436" d="M5 1266q0 62 56 85q33 14 164 14h514q207 0 288 13q26 4 79 20q21 6 34 6q51 0 91 -55q66 -92 66 -223q0 -70 -33 -106q-28 -32 -71 -32q-35 0 -54 16q-16 13 -46 59q-49 73 -133 95q-62 17 -189 17q-117 0 -146 -34q-18 -21 -22 -70q-2 -23 -2 -165q0 -76 14 -92 q17 -19 109 -19q47 0 64 19q18 18 23 61q10 76 21 93q26 43 70 43q41 0 71 -39q24 -32 38 -116q12 -71 12 -141q0 -157 -49 -259q-27 -55 -82 -55q-35 0 -50 23q-10 13 -17 68q-10 71 -53 96q-31 17 -80 17q-50 0 -67 -43q-10 -27 -10 -87q0 -73 14 -191q6 -53 29 -65 q40 -21 169 -21q173 0 249 55q59 43 97 123q28 58 50.5 78t58.5 20q42 0 69 -36q28 -37 28 -91q0 -81 -52 -203q-51 -118 -89 -150q-17 -15 -40 -15q-22 0 -57 6q-63 12 -171 15h-848q-59 0 -84 27q-23 25 -23 59q0 33 21 51q8 6 46 24q41 18 54 49q46 107 46 446 q0 386 -48 487q-12 25 -34 35q-6 3 -38 12q-57 17 -57 76zM452 1298q0 38 51 77l19 15q47 34 53 41q13 15 13 27q0 8 -12 30q-4 7 -4 15q0 19 24 32q47 27 142 27q134 0 198 -49q38 -29 38 -60q0 -47 -85 -112q-152 -117 -332 -117q-105 0 -105 74z" />
<glyph unicode="&#xca;" horiz-adv-x="1394" vert-adv-y="1436" d="M5 1266q0 62 56 85q33 14 164 14h514q207 0 288 13q26 4 79 20q21 6 34 6q51 0 91 -55q66 -92 66 -223q0 -70 -33 -106q-28 -32 -71 -32q-35 0 -54 16q-16 13 -46 59q-49 73 -133 95q-62 17 -189 17q-117 0 -146 -34q-18 -21 -22 -70q-2 -23 -2 -165q0 -76 14 -92 q17 -19 109 -19q47 0 64 19q18 18 23 61q10 76 21 93q26 43 70 43q41 0 71 -39q24 -32 38 -116q12 -71 12 -141q0 -157 -49 -259q-27 -55 -82 -55q-35 0 -50 23q-10 13 -17 68q-10 71 -53 96q-31 17 -80 17q-50 0 -67 -43q-10 -27 -10 -87q0 -73 14 -191q6 -53 29 -65 q40 -21 169 -21q173 0 249 55q59 43 97 123q28 58 50.5 78t58.5 20q42 0 69 -36q28 -37 28 -91q0 -81 -52 -203q-51 -118 -89 -150q-17 -15 -40 -15q-22 0 -57 6q-63 12 -171 15h-848q-59 0 -84 27q-23 25 -23 59q0 33 21 51q8 6 46 24q41 18 54 49q46 107 46 446 q0 386 -48 487q-12 25 -34 35q-6 3 -38 12q-57 17 -57 76zM309 1301q0 35 34 74q47 53 146 123q133 93 191 93q29 0 101 -38q97 -53 194 -136q87 -74 87 -118q0 -35 -28 -59q-21 -17 -44 -17q-40 0 -166 60q-99 47 -146 47q-26 0 -59 -12q-8 -3 -81 -41q-106 -56 -153 -56 q-41 0 -62 32q-14 22 -14 48z" />
<glyph unicode="&#xcb;" horiz-adv-x="1394" vert-adv-y="1436" d="M5 1266q0 62 56 85q33 14 164 14h514q207 0 288 13q26 4 79 20q21 6 34 6q51 0 91 -55q66 -92 66 -223q0 -70 -33 -106q-28 -32 -71 -32q-35 0 -54 16q-16 13 -46 59q-49 73 -133 95q-62 17 -189 17q-117 0 -146 -34q-18 -21 -22 -70q-2 -23 -2 -165q0 -76 14 -92 q17 -19 109 -19q47 0 64 19q18 18 23 61q10 76 21 93q26 43 70 43q41 0 71 -39q24 -32 38 -116q12 -71 12 -141q0 -157 -49 -259q-27 -55 -82 -55q-35 0 -50 23q-10 13 -17 68q-10 71 -53 96q-31 17 -80 17q-50 0 -67 -43q-10 -27 -10 -87q0 -73 14 -191q6 -53 29 -65 q40 -21 169 -21q173 0 249 55q59 43 97 123q28 58 50.5 78t58.5 20q42 0 69 -36q28 -37 28 -91q0 -81 -52 -203q-51 -118 -89 -150q-17 -15 -40 -15q-22 0 -57 6q-63 12 -171 15h-848q-59 0 -84 27q-23 25 -23 59q0 33 21 51q8 6 46 24q41 18 54 49q46 107 46 446 q0 386 -48 487q-12 25 -34 35q-6 3 -38 12q-57 17 -57 76zM174 1352q0 78 63 126q43 32 103 52q65 21 117 21q72 0 116 -30q50 -33 50 -104q0 -83 -72 -129q-103 -67 -226 -67q-67 0 -111 38q-40 34 -40 93zM747 1366q0 78 63 126q43 32 103 52q65 21 117 21q72 0 116 -30 q50 -33 50 -104q0 -84 -72 -130q-103 -66 -227 -66q-66 0 -110 38q-40 34 -40 93z" />
<glyph unicode="&#xcc;" horiz-adv-x="806" vert-adv-y="1436" d="M-15 1455q0 36 51 67q65 40 190 40q99 0 142 -30q19 -13 19 -29q0 -8 -11 -27q-5 -9 -5 -18q0 -13 16 -31q4 -4 49 -37q34 -26 37 -28q34 -27 34 -64q0 -74 -107 -74q-178 0 -330 117q-85 65 -85 114zM0 1248q0 64 109 95q157 43 334 43q112 0 213 -20q136 -27 136 -115 q0 -34 -28 -56q-7 -6 -54 -30q-50 -25 -61 -100q-14 -98 -14 -299q0 -388 19 -479q8 -38 33 -56q13 -10 39 -22q66 -31 66 -90q0 -60 -79 -93q-113 -47 -365 -47q-327 0 -327 123q0 47 64 85q49 30 58 82q19 115 19 516q0 224 -26 297q-14 41 -67 74q-41 27 -51 41 q-18 24 -18 51z" />
<glyph unicode="&#xcd;" horiz-adv-x="806" vert-adv-y="1436" d="M0 1248q0 64 109 95q157 43 334 43q112 0 213 -20q136 -27 136 -115q0 -34 -28 -56q-7 -6 -54 -30q-50 -25 -61 -100q-14 -98 -14 -299q0 -388 19 -479q8 -38 33 -56q13 -10 39 -22q66 -31 66 -90q0 -60 -79 -93q-113 -47 -365 -47q-327 0 -327 123q0 47 64 85 q49 30 58 82q19 115 19 516q0 224 -26 297q-14 41 -67 74q-41 27 -51 41q-18 24 -18 51zM231 1298q0 38 51 77l19 15q47 34 53 41q13 15 13 27q0 8 -12 30q-4 7 -4 15q0 19 24 32q47 27 142 27q134 0 198 -49q38 -29 38 -60q0 -47 -85 -112q-152 -117 -332 -117 q-105 0 -105 74z" />
<glyph unicode="&#xce;" horiz-adv-x="806" vert-adv-y="1436" d="M0 1247q0 4 1 11q31 -64 95 -64q53 0 230 93q30 16 62 16q41 0 135 -45q132 -62 178 -62q61 0 91 63v-7q0 -22 -9 -36q-13 -20 -73 -50q-50 -26 -61 -101q-14 -97 -14 -298q0 -389 19 -480q8 -38 33 -56q13 -10 39 -22q66 -31 66 -90q0 -60 -79 -93q-113 -47 -365 -47 q-327 0 -327 123q0 47 64 85q49 30 58 83q19 114 19 515q0 225 -26 298q-14 40 -67 74q-41 26 -51 40q-18 25 -18 50zM19 1301q0 35 34 74q47 53 147 123q133 93 191 93q29 0 100 -39q97 -52 195 -135q87 -74 87 -118q0 -36 -28 -59q-21 -17 -44 -17q-40 0 -166 60 q-100 47 -147 47q-26 0 -58 -12q-9 -3 -82 -41q-106 -56 -153 -56q-41 0 -62 32q-14 22 -14 48z" />
<glyph unicode="&#xcf;" horiz-adv-x="806" vert-adv-y="1436" d="M-19 1352q0 78 63 126q43 32 103 52q65 21 117 21q72 0 116 -30q50 -33 50 -104q0 -83 -72 -129q-103 -67 -226 -67q-67 0 -111 38q-40 34 -40 93zM1 1240q60 -47 132 -47q126 0 239 70q60 -56 141 -56q97 0 197 45q34 16 70 45q13 -25 13 -45q0 -35 -28 -57 q-7 -6 -54 -29q-50 -26 -61 -101q-14 -97 -14 -298q0 -389 19 -480q8 -38 33 -56q13 -10 39 -22q66 -31 66 -90q0 -60 -79 -93q-113 -47 -365 -47q-327 0 -327 123q0 47 64 85q49 30 58 83q19 113 19 515q0 225 -26 298q-14 40 -67 74q-46 29 -59 51q-7 14 -10 32zM394 1280 q63 59 63 137q0 41 -21 82q105 66 214 66q68 0 112 -30q50 -33 50 -104q0 -84 -72 -130q-104 -66 -227 -66q-71 0 -119 45z" />
<glyph unicode="&#xd0;" horiz-adv-x="1621" vert-adv-y="1436" d="M14 103q0 37 25 61q14 13 54 24q41 11 54 32q16 24 24 109q5 94 12 236l1 23h472v-278q0 -71 35 -96q27 -20 84 -20q125 0 196 86q54 65 72 146q22 96 22 211q0 246 -68 380q-75 149 -254 149q-53 0 -70 -21q-17 -20 -17 -61v-291h-470q1 90 2 118q2 99 2 128 q0 79 -17 111q-12 22 -57 39q-69 25 -69 89q0 50 52 79q46 25 126 25q28 0 68 -2q85 -3 124 -3q136 0 321 9q46 2 94 2q227 0 362 -54q200 -78 299 -260q89 -163 89 -375q0 -255 -122 -434q-116 -168 -320 -236q-120 -40 -251 -40q-23 0 -126 4q-210 7 -317 7h-72 q-62 0 -142 -6q-47 -4 -70 -4q-62 0 -106 31q-42 30 -42 82zM14 687q0 45 19 64q14 15 52 15h737q34 0 52 -18q15 -14 15 -57q0 -39 -15 -53q-22 -23 -50 -23h-742q-39 0 -51 11q-17 18 -17 61z" />
<glyph unicode="&#xd1;" horiz-adv-x="1673" vert-adv-y="1436" d="M13 1258q0 34 23 58q55 59 186 66q71 4 156 4q75 0 115 -14q36 -12 84 -54l498 -437q71 -62 103 -62q13 0 25 13q25 26 25 93q0 140 -19 191q-13 34 -59 56q-40 19 -53 39q-18 26 -18 57q0 83 115 108q48 10 171 10q145 0 203 -18q92 -29 92 -107q0 -64 -76 -97 q-36 -16 -48 -31q-38 -53 -40 -272v-326v-125q1 -69 1 -93q0 -167 -21 -241q-16 -58 -52 -82q-23 -15 -45 -15q-29 0 -67 20q-9 5 -62 53l-593 531q-62 56 -103 56q-60 0 -60 -170q0 -113 10 -165q10 -49 26 -69q11 -15 43 -30q66 -33 66 -86q0 -140 -299 -140 q-128 0 -210 37q-74 33 -74 100q0 36 24 62q7 8 53 35q47 27 57 99q17 128 17 374q0 255 -30 373q-13 50 -36 72q-16 16 -48 32q-44 22 -58 38q-22 25 -22 57zM436 1387q0 67 39 113q52 62 151 62q51 0 179 -56q84 -36 103 -43q39 -13 42 -15q23 -10 34 -10q10 0 19 9 q7 7 7 11l-2 46q0 9 16 27t51 28q18 5 29 5q53 0 86 -29q48 -41 48 -118q0 -67 -51 -128q-56 -69 -128 -69q-40 0 -124 27q-77 24 -160 67q-70 36 -96 36q-14 0 -25 -10q-10 -10 -10 -12l5 -53q0 -3 -16 -19q-14 -14 -49 -23q-19 -5 -27 -5q-17 0 -47 15q-74 35 -74 144z " />
<glyph unicode="&#xd2;" horiz-adv-x="1574" vert-adv-y="1436" d="M37 683q0 237 135 420q120 162 323 238q137 52 303 52q256 0 448 -147q130 -101 211 -262q79 -160 79 -319q0 -237 -156 -423q-132 -158 -345 -227q-131 -42 -262 -42q-174 0 -332 72q-191 86 -299 263q-105 170 -105 375zM348 1455q0 36 51 67q65 40 190 40 q99 0 142 -30q19 -13 19 -29q0 -8 -11 -27q-5 -9 -5 -18q0 -13 16 -31q4 -4 49 -37q34 -26 37 -28q34 -27 34 -64q0 -74 -107 -74q-178 0 -330 117q-85 65 -85 114zM531 901q0 -165 85 -373q49 -121 93 -177q66 -85 153 -85q71 0 120 54q49 55 49 147q0 167 -64 345 q-66 184 -163 255q-53 39 -107 39q-79 0 -128 -75q-38 -56 -38 -130z" />
<glyph unicode="&#xd3;" horiz-adv-x="1574" vert-adv-y="1436" d="M37 683q0 237 135 420q120 162 323 238q137 52 303 52q256 0 448 -147q130 -101 211 -262q79 -160 79 -319q0 -237 -156 -423q-132 -158 -345 -227q-131 -42 -262 -42q-174 0 -332 72q-191 86 -299 263q-105 170 -105 375zM531 901q0 -165 85 -373q49 -121 93 -177 q66 -85 153 -85q71 0 120 54q49 55 49 147q0 167 -64 345q-66 184 -163 255q-53 39 -107 39q-79 0 -128 -75q-38 -56 -38 -130zM594 1298q0 38 51 77l19 15q47 34 53 41q13 15 13 27q0 8 -12 30q-4 7 -4 15q0 19 24 32q47 27 142 27q134 0 198 -49q38 -29 38 -60 q0 -47 -85 -112q-152 -117 -332 -117q-105 0 -105 74z" />
<glyph unicode="&#xd4;" horiz-adv-x="1574" vert-adv-y="1436" d="M37 685q0 236 136 417q74 99 185 172q24 -80 100 -80q54 0 231 93q30 16 62 16q41 0 135 -45q132 -62 178 -62q54 0 85 51q12 20 14 54q47 -27 83 -55q131 -103 210 -262q80 -159 80 -319q0 -237 -156 -423q-132 -158 -345 -227q-131 -42 -262 -42q-174 0 -332 72 q-191 87 -299 263q-105 170 -105 377zM382 1301q0 35 34 74q47 53 147 123q133 93 191 93q29 0 100 -39q98 -52 195 -135q87 -74 87 -118q0 -35 -28 -59q-21 -17 -44 -17q-40 0 -166 60q-100 47 -147 47q-26 0 -58 -12q-9 -3 -82 -41q-107 -56 -153 -56q-41 0 -62 32 q-14 22 -14 48zM531 901q0 -165 85 -373q49 -121 93 -177q66 -85 153 -85q71 0 120 54q49 55 49 147q0 167 -64 345q-66 184 -163 255q-53 39 -107 39q-79 0 -128 -75q-38 -56 -38 -130z" />
<glyph unicode="&#xd5;" horiz-adv-x="1574" vert-adv-y="1436" d="M37 685q0 236 136 417q73 98 183 171q17 -27 48 -46q40 -25 73 -25q65 0 98 34q23 24 23 50q0 8 -2 15q-3 11 -3 16q0 4 7 4q25 0 84 -31q72 -38 163 -69q83 -27 130 -27q110 0 177 112q51 -28 92 -60q131 -103 210 -262q80 -159 80 -319q0 -237 -156 -423 q-132 -158 -345 -227q-131 -42 -262 -42q-174 0 -332 72q-191 87 -299 263q-105 170 -105 377zM358 1386q0 66 39 113q52 62 151 62q50 0 179 -56q83 -36 103 -43q38 -13 42 -15q23 -10 34 -10q7 0 16.5 7.5t9.5 12.5l-2 47q0 8 16 27q16 18 51 28q18 5 29 5q53 0 86 -29 q47 -41 47 -118q0 -67 -50 -128q-57 -69 -129 -69q-41 0 -124 27q-77 24 -159 66q-70 36 -96 36q-14 0 -25 -11q-10 -9 -10 -11l5 -53q0 -3 -16 -19q-14 -14 -49 -23q-19 -5 -27 -5q-38 0 -80 36q-41 36 -41 123zM531 901q0 -165 85 -373q49 -121 93 -177q66 -85 153 -85 q71 0 120 54q49 55 49 147q0 167 -64 345q-66 184 -163 255q-53 39 -107 39q-79 0 -128 -75q-38 -56 -38 -130z" />
<glyph unicode="&#xd6;" horiz-adv-x="1574" vert-adv-y="1436" d="M37 683q0 237 135 420q120 162 323 238q137 52 303 52q256 0 448 -147q130 -101 211 -262q79 -160 79 -319q0 -237 -156 -423q-132 -158 -345 -227q-131 -42 -262 -42q-174 0 -332 72q-191 86 -299 263q-105 170 -105 375zM248 1352q0 78 63 126q43 32 103 52 q65 21 117 21q72 0 116 -30q50 -33 50 -104q0 -83 -72 -129q-103 -67 -226 -67q-67 0 -111 38q-40 34 -40 93zM531 901q0 -165 85 -373q49 -121 93 -177q66 -85 153 -85q71 0 120 54q49 55 49 147q0 167 -64 345q-66 184 -163 255q-53 39 -107 39q-79 0 -128 -75 q-38 -56 -38 -130zM821 1366q0 78 63 126q43 32 103 52q65 21 117 21q72 0 116 -30q50 -33 50 -104q0 -84 -72 -130q-103 -66 -227 -66q-66 0 -110 38q-40 34 -40 93z" />
<glyph unicode="&#xd7;" vert-adv-y="1436" d="M95 323q0 20 32 48q54 47 144 136l38 38q18 18 18 39t-18 39l-38 38q-89 89 -144 136q-32 28 -32 48q0 24 26 40q12 7 84 41q63 30 95 30q30 0 64 -43q56 -70 99 -113l12 -12q18 -18 38 -18q21 0 39 18l36 36q43 45 89 106q23 31 50 31q38 0 147 -58q57 -30 57 -59 q0 -19 -32 -44q-15 -11 -68 -64l-113 -113q-19 -19 -19 -38q0 -21 19 -40l113 -112q53 -54 68 -65q32 -25 32 -44q0 -29 -57 -59q-109 -58 -148 -58q-23 0 -44 25q-90 108 -94 112l-36 36q-18 18 -38 18q-21 0 -39 -18l-12 -12q-43 -43 -99 -113q-34 -43 -64 -43 q-34 0 -131 47q-61 29 -68 42q-6 10 -6 22z" />
<glyph unicode="&#xd8;" horiz-adv-x="1574" vert-adv-y="1436" d="M37 685q0 235 136 417q123 165 322 240q137 51 294 51q279 0 482 -168l-351 -304q-98 186 -221 186q-82 0 -130 -75q-38 -58 -38 -130q0 -100 49 -276l-413 -357q-130 187 -130 416zM50 111q0 20 21 39l1347 1167q12 10 30 10q23 0 39 -20l15 -18q14 -17 14 -37t-19 -36 l-1346 -1159q-19 -16 -30 -16q-22 0 -36 16l-23 25q-12 13 -12 29zM288 139l361 311q25 -48 44 -77q71 -107 169 -107q71 0 120 54q49 55 49 150q0 123 -42 273l404 347q143 -205 143 -426q0 -236 -156 -422q-132 -158 -345 -227q-131 -42 -262 -42q-205 0 -381 96 q-52 28 -104 70z" />
<glyph unicode="&#xd9;" horiz-adv-x="1655" vert-adv-y="1436" d="M13 1255q0 64 84 98q82 33 299 33q162 0 272 -25q59 -13 90 -52q18 -23 18 -57q0 -42 -32 -68q-6 -6 -60 -30q-31 -15 -43 -54q-11 -29 -11 -118q0 -96 -2 -142q-6 -226 -6 -250q0 -163 93 -249q80 -74 205 -74q119 0 197 59q67 51 86 143q9 44 9 127v220q-5 233 -13 288 q-7 37 -28 55q-7 9 -38 23q-50 22 -66 37q-24 23 -24 54q0 51 62 81q65 32 241 32q150 0 225 -29q67 -26 67 -86q0 -31 -23 -52q-8 -7 -52 -32q-54 -31 -63 -78q-5 -36 -7 -244v-244q0 -221 -33 -313q-71 -194 -312 -282q-147 -54 -330 -54q-321 0 -514 154 q-107 84 -140 204q-26 93 -26 240q0 94 5 257q3 106 3 161q0 88 -20 127q-9 18 -47 42q-66 43 -66 98zM456 1455q0 36 51 67q65 40 190 40q99 0 142 -30q19 -13 19 -29q0 -8 -11 -27q-5 -9 -5 -18q0 -13 16 -31q4 -4 49 -37q34 -26 37 -28q34 -27 34 -64q0 -74 -107 -74 q-178 0 -330 117q-85 65 -85 114z" />
<glyph unicode="&#xda;" horiz-adv-x="1655" vert-adv-y="1436" d="M13 1255q0 64 84 98q82 33 299 33q162 0 272 -25q59 -13 90 -52q18 -23 18 -57q0 -42 -32 -68q-6 -6 -60 -30q-31 -15 -43 -54q-11 -29 -11 -118q0 -96 -2 -142q-6 -226 -6 -250q0 -163 93 -249q80 -74 205 -74q119 0 197 59q67 51 86 143q9 44 9 127v220q-5 233 -13 288 q-7 37 -28 55q-7 9 -38 23q-50 22 -66 37q-24 23 -24 54q0 51 62 81q65 32 241 32q150 0 225 -29q67 -26 67 -86q0 -31 -23 -52q-8 -7 -52 -32q-54 -31 -63 -78q-5 -36 -7 -244v-244q0 -221 -33 -313q-71 -194 -312 -282q-147 -54 -330 -54q-321 0 -514 154 q-107 84 -140 204q-26 93 -26 240q0 94 5 257q3 106 3 161q0 88 -20 127q-9 18 -47 42q-66 43 -66 98zM811 1298q0 38 51 77l19 15q47 34 53 41q13 15 13 27q0 8 -12 30q-4 7 -4 15q0 19 24 32q47 27 142 27q134 0 198 -49q38 -29 38 -60q0 -47 -85 -112 q-152 -117 -332 -117q-105 0 -105 74z" />
<glyph unicode="&#xdb;" horiz-adv-x="1655" vert-adv-y="1436" d="M13 1255q0 64 84 98q82 33 299 33q162 0 272 -25q59 -13 90 -52q18 -23 18 -57q0 -42 -32 -68q-6 -6 -60 -30q-31 -15 -43 -54q-11 -29 -11 -118q0 -96 -2 -142q-6 -226 -6 -250q0 -163 93 -249q80 -74 205 -74q119 0 197 59q67 51 86 143q9 44 9 127v220q-5 233 -13 288 q-7 37 -28 55q-7 9 -38 23q-50 22 -66 37q-24 23 -24 54q0 51 62 81q65 32 241 32q150 0 225 -29q67 -26 67 -86q0 -31 -23 -52q-8 -7 -52 -32q-54 -31 -63 -78q-5 -36 -7 -244v-244q0 -221 -33 -313q-71 -194 -312 -282q-147 -54 -330 -54q-321 0 -514 154 q-107 84 -140 204q-26 93 -26 240q0 94 5 257q3 106 3 161q0 88 -20 127q-9 18 -47 42q-66 43 -66 98zM518 1301q0 35 34 74q47 53 146 123q133 93 191 93q29 0 101 -38q97 -53 194 -136q87 -74 87 -118q0 -35 -28 -59q-21 -17 -44 -17q-40 0 -166 60q-99 47 -146 47 q-26 0 -59 -12q-8 -3 -81 -41q-106 -56 -153 -56q-41 0 -62 32q-14 22 -14 48z" />
<glyph unicode="&#xdc;" horiz-adv-x="1655" vert-adv-y="1436" d="M13 1255q0 64 84 98q82 33 299 33q162 0 272 -25q59 -13 90 -52q18 -23 18 -57q0 -42 -32 -68q-6 -6 -60 -30q-31 -15 -43 -54q-11 -29 -11 -118q0 -96 -2 -142q-6 -226 -6 -250q0 -163 93 -249q80 -74 205 -74q119 0 197 59q67 51 86 143q9 44 9 127v220q-5 233 -13 288 q-7 37 -28 55q-7 9 -38 23q-50 22 -66 37q-24 23 -24 54q0 51 62 81q65 32 241 32q150 0 225 -29q67 -26 67 -86q0 -31 -23 -52q-8 -7 -52 -32q-54 -31 -63 -78q-5 -36 -7 -244v-244q0 -221 -33 -313q-71 -194 -312 -282q-147 -54 -330 -54q-321 0 -514 154 q-107 84 -140 204q-26 93 -26 240q0 94 5 257q3 106 3 161q0 88 -20 127q-9 18 -47 42q-66 43 -66 98zM356 1352q0 78 63 126q43 32 103 52q65 21 117 21q72 0 116 -30q50 -33 50 -104q0 -83 -72 -129q-103 -67 -226 -67q-67 0 -111 38q-40 34 -40 93zM929 1366q0 78 63 126 q43 32 103 52q65 21 117 21q72 0 116 -30q50 -33 50 -104q0 -84 -72 -130q-103 -66 -227 -66q-66 0 -110 38q-40 34 -40 93z" />
<glyph unicode="&#xdd;" horiz-adv-x="1626" vert-adv-y="1436" d="M14 1260q0 54 64 84q88 42 378 42q276 0 347 -40q53 -30 53 -76q0 -27 -22 -54q-33 -41 -33 -59q0 -36 57 -115q38 -51 71 -51q36 0 92 71q40 50 40 78q0 25 -13 41l-24 29q-20 24 -20 63q0 54 63 81q77 32 247 32q199 0 243 -26q54 -33 54 -89q0 -45 -37 -70 q-19 -13 -75 -24q-67 -12 -115 -56q-158 -146 -274 -300q-38 -51 -52 -104q-15 -56 -15 -149q0 -127 9 -226q5 -64 22 -89q13 -21 55 -43q73 -38 73 -96q0 -135 -402 -135q-139 0 -259 21q-121 22 -151 55q-25 27 -25 62q0 64 76 90q56 20 71 51q31 70 31 330q0 88 -21 135 q-30 65 -149 206q-105 123 -174 184q-36 31 -75 46q-68 25 -82 37q-28 24 -28 64zM770 1298q0 38 51 77l19 15q47 34 53 41q13 15 13 27q0 8 -12 30q-4 7 -4 15q0 19 24 32q47 27 142 27q134 0 198 -49q38 -29 38 -60q0 -47 -85 -112q-152 -117 -332 -117q-105 0 -105 74z " />
<glyph unicode="&#xde;" horiz-adv-x="1365" vert-adv-y="1436" d="M-1 1261q0 33 28 60q34 34 122 34q16 0 40 -1q111 -5 226 -5q55 0 148 5q15 1 25 1q47 0 47 -40q0 -19 -4 -70q-3 -32 -3 -63q0 -65 23 -65q7 0 63 13q65 16 123 16q156 0 287 -64q223 -110 223 -351q0 -195 -157 -312q-149 -110 -355 -110q-39 0 -176 10h-7 q-28 0 -28 -35t12 -49q16 -17 76 -49q65 -35 65 -76q0 -67 -94 -96q-110 -35 -274 -35q-370 0 -370 126q0 29 21 51q14 14 70 43q42 21 47 82q2 29 3 190v526q-1 108 -16 132q-15 25 -74 43q-91 25 -91 89zM631 593q0 -36 13 -44q24 -17 78 -17q67 0 111 34q65 49 65 160 q0 119 -77 173q-48 33 -115 33q-75 0 -75 -40v-299z" />
<glyph unicode="&#xdf;" horiz-adv-x="1313" vert-adv-y="1436" d="M14 100q0 30 20 53q5 6 56 43q49 49 46 169v378q0 263 122 405q85 98 218 147q124 46 260 46q149 0 233 -66q94 -74 94 -188q0 -44 -18 -83q-5 -9 -35 -55q-6 -9 -6 -22q0 -38 73 -145q129 -191 170 -290q41 -98 41 -204q0 -159 -110 -239q-95 -70 -222 -70 q-123 0 -194 80q-48 53 -48 96q0 18 40 34q77 32 77 110q0 44 -18 85q-25 56 -65 123q-81 131 -97 166q-24 51 -24 98q0 69 36 124q23 34 117 113q39 32 39 66q0 25 -16 42q-25 25 -70 25q-89 0 -137 -93q-34 -65 -43 -138q-10 -82 -10 -180q0 -115 15 -379q4 -61 16 -96 q10 -29 38 -56q35 -33 38 -37q14 -17 14 -45q0 -57 -76 -94q-89 -44 -290 -44q-284 0 -284 121z" />
<glyph unicode="&#xe0;" horiz-adv-x="1143" vert-adv-y="1436" d="M23 250q0 103 84 184q132 126 392 127q58 0 70 9q18 12 18 55q0 93 -13 130q-25 72 -81 72q-26 0 -50 -15q-23 -14 -62 -69q-90 -127 -186 -127q-53 0 -81 31q-30 32 -30 73q0 66 68 128q72 65 210 109q125 40 244 40q173 0 294 -88q72 -52 97 -126q18 -55 18 -139 q0 -16 -2 -114v-42q0 -108 12 -170q9 -48 36 -64q7 -4 37 -9q32 -5 32 -40q0 -68 -68 -136q-98 -97 -227 -97q-104 0 -166 74q-21 26 -39 26q-19 0 -53 -25q-100 -75 -227 -75q-131 0 -212 56q-48 34 -79 88q-36 63 -36 134zM233 1323q0 36 51 67q65 40 190 40q99 0 142 -30 q19 -13 19 -29q0 -8 -11 -27q-5 -10 -5 -18q0 -14 16 -31q4 -4 49 -37q34 -26 37 -28q34 -27 34 -64q0 -74 -107 -74q-178 0 -330 117q-85 65 -85 114zM428 295q0 -50 28 -82q21 -25 57 -25q80 0 80 136q0 60 -13 78q-13 16 -43 16q-43 0 -76 -37q-33 -35 -33 -86z" />
<glyph unicode="&#xe1;" horiz-adv-x="1143" vert-adv-y="1436" d="M23 250q0 103 84 184q132 126 392 127q58 0 70 9q18 12 18 55q0 93 -13 130q-25 72 -81 72q-26 0 -50 -15q-23 -14 -62 -69q-90 -127 -186 -127q-53 0 -81 31q-30 32 -30 73q0 66 68 128q72 65 210 109q125 40 244 40q173 0 294 -88q72 -52 97 -126q18 -55 18 -139 q0 -16 -2 -114v-42q0 -108 12 -170q9 -48 36 -64q7 -4 37 -9q32 -5 32 -40q0 -68 -68 -136q-98 -97 -227 -97q-104 0 -166 74q-21 26 -39 26q-19 0 -53 -25q-100 -75 -227 -75q-131 0 -212 56q-48 34 -79 88q-36 63 -36 134zM383 1166q0 38 51 77l19 15q47 34 53 41 q13 15 13 27q0 8 -12 30q-4 7 -4 15q0 19 24 32q47 27 142 27q134 0 198 -48q38 -30 38 -61q0 -47 -85 -112q-152 -117 -332 -117q-105 0 -105 74zM428 295q0 -50 28 -82q21 -25 57 -25q80 0 80 136q0 60 -13 78q-13 16 -43 16q-43 0 -76 -37q-33 -35 -33 -86z" />
<glyph unicode="&#xe2;" horiz-adv-x="1143" vert-adv-y="1436" d="M23 250q0 103 84 184q132 126 392 127q58 0 70 9q18 12 18 55q0 93 -13 130q-25 72 -81 72q-26 0 -50 -15q-23 -14 -62 -69q-90 -127 -186 -127q-53 0 -81 31q-30 32 -30 73q0 66 68 128q72 65 210 109q125 40 244 40q173 0 294 -88q72 -52 97 -126q18 -55 18 -139 q0 -16 -2 -114v-42q0 -108 12 -170q9 -48 36 -64q7 -4 37 -9q32 -5 32 -40q0 -68 -68 -136q-98 -97 -227 -97q-104 0 -166 74q-21 26 -39 26q-19 0 -53 -25q-100 -75 -227 -75q-131 0 -212 56q-48 34 -79 88q-36 63 -36 134zM200 1172q0 35 34 74q47 53 146 123 q133 93 191 93q29 0 101 -39q97 -52 194 -135q87 -74 87 -118q0 -35 -28 -59q-21 -17 -44 -17q-42 0 -166 60q-50 24 -93 37q-45 14 -51 14q-35 0 -142 -57q-105 -56 -153 -56q-41 0 -62 32q-14 22 -14 48zM428 295q0 -50 28 -82q21 -25 57 -25q80 0 80 136q0 60 -13 78 q-13 16 -43 16q-43 0 -76 -37q-33 -35 -33 -86z" />
<glyph unicode="&#xe3;" horiz-adv-x="1143" vert-adv-y="1436" d="M23 250q0 103 84 184q132 126 392 127q58 0 70 9q18 12 18 55q0 93 -13 130q-25 72 -81 72q-26 0 -50 -15q-23 -14 -62 -69q-90 -127 -186 -127q-53 0 -81 31q-30 32 -30 73q0 66 68 128q72 65 210 109q125 40 244 40q173 0 294 -88q72 -52 97 -126q18 -55 18 -139 q0 -16 -2 -114v-42q0 -108 12 -170q9 -48 36 -64q7 -4 37 -9q32 -5 32 -40q0 -68 -68 -136q-98 -97 -227 -97q-104 0 -166 74q-21 26 -39 26q-19 0 -53 -25q-100 -75 -227 -75q-131 0 -212 56q-48 34 -79 88q-36 63 -36 134zM180 1219q0 58 27 109q25 48 75 73q43 20 91 20 q64 0 143 -34q19 -8 114 -56q55 -28 87 -28q12 0 20 12q7 11 16 66q2 14 24 28q29 18 67 18q74 0 106 -48q23 -34 23 -85q0 -79 -49 -136q-46 -55 -135 -55q-48 0 -85 12q-35 10 -94 37q-30 14 -95 42q-52 23 -66 30q-21 9 -35 9q-22 0 -22 -27v-27q0 -37 -26 -56 q-31 -23 -72 -23q-55 0 -92 45q-22 27 -22 74zM428 295q0 -50 28 -82q21 -25 57 -25q80 0 80 136q0 60 -13 78q-13 16 -43 16q-43 0 -76 -37q-33 -35 -33 -86z" />
<glyph unicode="&#xe4;" horiz-adv-x="1143" vert-adv-y="1436" d="M23 250q0 103 84 184q132 126 392 127q58 0 70 9q18 12 18 55q0 93 -13 130q-25 72 -81 72q-26 0 -50 -15q-23 -14 -62 -69q-90 -127 -186 -127q-53 0 -81 31q-30 32 -30 73q0 66 68 128q72 65 210 109q125 40 244 40q173 0 294 -88q72 -52 97 -126q18 -55 18 -139 q0 -16 -2 -114v-42q0 -108 12 -170q9 -48 36 -64q7 -4 37 -9q32 -5 32 -40q0 -68 -68 -136q-98 -97 -227 -97q-104 0 -166 74q-21 26 -39 26q-19 0 -53 -25q-100 -75 -227 -75q-131 0 -212 56q-48 34 -79 88q-36 63 -36 134zM115 1257q0 83 63 131t176 48q88 0 132 -45 q36 -37 36 -92q0 -83 -74 -131q-81 -52 -186 -52q-54 0 -93 29q-54 41 -54 112zM428 295q0 -50 28 -82q21 -25 57 -25q80 0 80 136q0 60 -13 78q-13 16 -43 16q-43 0 -76 -37q-33 -35 -33 -86zM631 1254q0 83 63 130q64 48 176 48q88 0 132 -45q36 -37 36 -91 q0 -84 -74 -131q-81 -52 -186 -52q-54 0 -92 29q-55 40 -55 112z" />
<glyph unicode="&#xe5;" horiz-adv-x="1143" vert-adv-y="1436" d="M23 250q0 103 84 184q132 126 392 127q58 0 70 9q18 12 18 55q0 93 -13 130q-25 72 -81 72q-26 0 -50 -15q-23 -14 -62 -69q-90 -127 -186 -127q-53 0 -81 31q-30 32 -30 73q0 66 68 128q72 65 210 109q125 40 244 40q173 0 294 -88q72 -52 97 -126q18 -55 18 -139 q0 -16 -2 -114v-42q0 -108 12 -170q9 -48 36 -64q7 -4 37 -9q32 -5 32 -40q0 -68 -68 -136q-98 -97 -227 -97q-104 0 -166 74q-21 26 -39 26q-19 0 -53 -25q-100 -75 -227 -75q-131 0 -212 56q-48 34 -79 88q-36 63 -36 134zM277 1292q0 96 71 148q81 58 226 58 q134 0 218 -48q45 -26 68 -80q15 -33 15 -70q0 -86 -60 -141q-74 -67 -236 -67q-302 0 -302 200zM428 295q0 -50 28 -82q21 -25 57 -25q80 0 80 136q0 60 -13 78q-13 16 -43 16q-43 0 -76 -37q-33 -35 -33 -86zM477 1290q0 -47 24 -76q27 -33 71 -33q45 0 74 32q27 30 27 84 q0 52 -28 82q-26 27 -73 27t-71 -35q-24 -34 -24 -81z" />
<glyph unicode="&#xe6;" horiz-adv-x="1640" vert-adv-y="1436" d="M23 239q0 179 184 269q92 45 188 53q29 2 129 7q36 2 45 21q7 14 7 49q0 196 -94 196q-30 0 -63 -25q-20 -17 -58 -71q-48 -70 -88 -96q-42 -27 -88 -27q-55 0 -86 36q-27 29 -27 66q0 132 228 222q144 58 290 58q60 0 124 -13q72 -14 108 -31q21 -10 28 -10q8 0 31 10 q102 43 251 43q168 0 293 -84q85 -57 135 -142q46 -78 46 -168q0 -66 -28 -103q-15 -20 -32 -26q-17 -5 -54 -5h-447q-27 0 -32 -11q-2 -5 -2 -16q0 -54 48 -107q72 -81 172 -81q55 0 120 22q59 21 96 48q35 25 51 25q17 0 35 -20q42 -46 42 -89q0 -44 -49 -99 q-81 -89 -229 -137q-93 -30 -188 -30q-80 0 -157 24q-102 31 -162 78q-21 16 -30 16q-7 0 -33 -13q-87 -45 -228 -84q-80 -22 -154 -22q-140 0 -225 64q-97 74 -97 203zM428 303q0 -41 24 -75q23 -34 58 -34q78 0 78 130q0 74 -14 89q-13 13 -41 13q-48 0 -78 -41 q-27 -35 -27 -82zM999 699q0 -28 16 -40q8 -6 43 -6h125q28 0 36 9q13 13 13 44q0 52 -32 86q-31 35 -79 35q-54 0 -86 -37q-36 -41 -36 -91z" />
<glyph unicode="&#xe7;" horiz-adv-x="1062" vert-adv-y="1436" d="M32 481q0 221 173 373q161 142 394 142q186 0 321 -89q129 -85 129 -211q0 -86 -60 -141q-56 -51 -135 -51q-82 0 -124 60q-13 19 -38 97q-28 84 -103 84q-63 0 -101 -61q-29 -46 -29 -103q0 -122 86 -215q70 -75 175 -75q53 0 110 15q13 4 64 28q15 7 31 7q37 0 61 -32 q25 -34 25 -75q0 -58 -62 -123q-85 -88 -231 -123q-68 86 -172 86q-95 0 -155 -77q-96 32 -173 95q-186 154 -186 389zM393 -84q0 51 38 86q47 45 117 45q74 0 126 -49q55 -51 55 -132q0 -96 -84 -193q-59 -69 -122 -69q-28 0 -46 17q-15 14 -15 29q0 12 17 28q52 50 52 82 q0 19 -22 26q-116 37 -116 130z" />
<glyph unicode="&#xe8;" horiz-adv-x="1090" vert-adv-y="1436" d="M33 478q0 243 198 399q150 119 349 119q190 0 323 -108q67 -53 108 -128q47 -84 47 -166q0 -64 -32 -113q-23 -33 -65 -33h-470q-31 0 -31 -25q0 -51 46 -102q73 -81 173 -81q62 0 130 25q45 18 76 39q35 25 53 25q27 0 51 -32q26 -34 26 -67q0 -71 -90 -139 q-159 -119 -367 -119q-209 0 -352 122q-69 60 -114 145q-59 114 -59 239zM226 1323q0 36 51 67q65 40 190 40q99 0 142 -30q19 -13 19 -29q0 -8 -11 -27q-5 -10 -5 -18q0 -14 16 -31q4 -4 49 -37q34 -26 37 -28q34 -27 34 -64q0 -74 -107 -74q-178 0 -330 117 q-85 65 -85 114zM452 689q0 -25 15 -42q11 -12 50 -12h101q64 0 64 58q0 56 -32 90q-31 33 -80 33q-56 0 -88 -44q-30 -42 -30 -83z" />
<glyph unicode="&#xe9;" horiz-adv-x="1090" vert-adv-y="1436" d="M33 478q0 243 198 399q150 119 349 119q190 0 323 -108q67 -53 108 -128q47 -84 47 -166q0 -64 -32 -113q-23 -33 -65 -33h-470q-31 0 -31 -25q0 -51 46 -102q73 -81 173 -81q62 0 130 25q45 18 76 39q35 25 53 25q27 0 51 -32q26 -34 26 -67q0 -71 -90 -139 q-159 -119 -367 -119q-209 0 -352 122q-69 60 -114 145q-59 114 -59 239zM390 1166q0 38 51 77l19 15q47 34 53 41q13 15 13 27q0 8 -12 30q-4 7 -4 15q0 19 24 32q47 27 142 27q134 0 198 -48q38 -30 38 -61q0 -47 -85 -112q-152 -117 -332 -117q-105 0 -105 74zM452 689 q0 -25 15 -42q11 -12 50 -12h101q64 0 64 58q0 56 -32 90q-31 33 -80 33q-56 0 -88 -44q-30 -42 -30 -83z" />
<glyph unicode="&#xea;" horiz-adv-x="1090" vert-adv-y="1436" d="M33 478q0 243 198 399q150 119 349 119q190 0 323 -108q67 -53 108 -128q47 -84 47 -166q0 -64 -32 -113q-23 -33 -65 -33h-470q-31 0 -31 -25q0 -51 46 -102q73 -81 173 -81q62 0 130 25q45 18 76 39q35 25 53 25q27 0 51 -32q26 -34 26 -67q0 -71 -90 -139 q-159 -119 -367 -119q-209 0 -352 122q-69 60 -114 145q-59 114 -59 239zM220 1172q0 35 34 74q47 53 146 123q133 93 191 93q29 0 101 -39q97 -52 194 -135q87 -74 87 -118q0 -35 -28 -59q-21 -17 -44 -17q-42 0 -166 60q-50 24 -93 37q-45 14 -51 14q-35 0 -142 -57 q-105 -56 -153 -56q-41 0 -62 32q-14 22 -14 48zM452 689q0 -25 15 -42q11 -12 50 -12h101q64 0 64 58q0 56 -32 90q-31 33 -80 33q-56 0 -88 -44q-30 -42 -30 -83z" />
<glyph unicode="&#xeb;" horiz-adv-x="1090" vert-adv-y="1436" d="M33 478q0 243 198 399q150 119 349 119q190 0 323 -108q67 -53 108 -128q47 -84 47 -166q0 -64 -32 -113q-23 -33 -65 -33h-470q-31 0 -31 -25q0 -51 46 -102q73 -81 173 -81q62 0 130 25q45 18 76 39q35 25 53 25q27 0 51 -32q26 -34 26 -67q0 -71 -90 -139 q-159 -119 -367 -119q-209 0 -352 122q-69 60 -114 145q-59 114 -59 239zM142 1257q0 83 63 131t176 48q88 0 132 -45q36 -37 36 -92q0 -83 -74 -131q-81 -52 -186 -52q-54 0 -93 29q-54 41 -54 112zM452 689q0 -25 15 -42q11 -12 50 -12h101q64 0 64 58q0 56 -32 90 q-31 33 -80 33q-56 0 -88 -44q-30 -42 -30 -83zM658 1254q0 83 63 130q64 48 176 48q88 0 132 -45q36 -37 36 -91q0 -84 -74 -131q-81 -52 -186 -52q-54 0 -92 29q-55 40 -55 112z" />
<glyph unicode="&#xec;" horiz-adv-x="711" vert-adv-y="1436" d="M7 1323q0 36 51 67q65 40 190 40q99 0 142 -30q19 -13 19 -29q0 -8 -11 -27q-5 -10 -5 -18q0 -14 16 -31q4 -4 49 -37q34 -26 37 -28q34 -27 34 -64q0 -74 -107 -74q-178 0 -330 117q-85 65 -85 114zM12 792q0 64 81 95q89 34 210 65q144 38 230 38q54 0 54 -63v-581 q0 -71 12 -101q12 -31 51 -60q52 -37 52 -76q0 -130 -329 -130q-174 0 -277 28q-38 10 -61 40q-18 22 -18 52t21 54q6 7 47 36q22 17 30.5 34t16.5 58q10 60 10 123q0 82 -7 206q-4 54 -18 73q-11 15 -42 29q-63 28 -63 80z" />
<glyph unicode="&#xed;" horiz-adv-x="711" vert-adv-y="1436" d="M9 792q0 64 81 95q89 34 210 65q144 38 230 38q54 0 54 -63v-581q0 -71 12 -101q12 -31 51 -60q52 -37 52 -76q0 -130 -329 -130q-174 0 -277 28q-38 10 -61 40q-18 22 -18 52t21 54q6 7 47 36q22 17 30.5 34t16.5 58q10 60 10 123q0 82 -7 206q-4 54 -18 73 q-11 15 -42 29q-63 28 -63 80zM154 1166q0 38 51 77l19 15q47 34 53 41q13 15 13 27q0 8 -12 30q-4 7 -4 15q0 19 24 32q47 27 142 27q134 0 198 -48q38 -30 38 -61q0 -47 -85 -112q-152 -117 -332 -117q-105 0 -105 74z" />
<glyph unicode="&#xee;" horiz-adv-x="711" vert-adv-y="1436" d="M-23 1172q0 35 32 74q44 53 135 123q124 93 177 93q27 0 94 -39q91 -52 181 -135q80 -74 80 -119q0 -34 -23 -57q-17 -18 -37 -18q-40 0 -157 60q-48 24 -89 37q-43 14 -49 14q-33 0 -136 -57q-99 -56 -143 -56q-24 0 -39 14q-26 24 -26 66zM9 792q0 64 81 95 q89 34 210 65q144 38 230 38q54 0 54 -63v-581q0 -71 13 -101q11 -31 50 -60q52 -37 52 -76q0 -130 -329 -130q-174 0 -277 28q-38 10 -62 40q-17 22 -17 52t21 54q6 7 47 36q22 16 30.5 33.5t15.5 58.5q11 61 11 123q0 79 -7 206q-4 54 -18 73q-11 15 -43 29q-62 28 -62 80 z" />
<glyph unicode="&#xef;" horiz-adv-x="711" vert-adv-y="1436" d="M-19 1257q0 83 63 131t176 48q88 0 132 -45q36 -37 36 -92q0 -83 -74 -131q-81 -52 -186 -52q-54 0 -93 29q-54 41 -54 112zM9 792q0 64 81 95q89 34 210 65q144 38 230 38q54 0 54 -63v-581q0 -71 12 -101q12 -31 51 -60q52 -37 52 -76q0 -130 -329 -130q-174 0 -277 28 q-38 10 -61 40q-18 22 -18 52t21 54q6 7 47 36q22 17 30.5 34t16.5 58q10 60 10 123q0 82 -7 206q-4 54 -18 73q-11 15 -42 29q-63 28 -63 80zM352 1162q64 60 64 138q0 43 -27 89q70 44 168 44q90 0 134 -45q36 -37 36 -92q0 -83 -74 -131q-82 -52 -186 -52q-67 0 -115 49z " />
<glyph unicode="&#xf0;" horiz-adv-x="1232" vert-adv-y="1436" d="M33 453q0 184 111 319q124 151 320 199q38 10 49.5 18t11.5 26q0 22 -47 74l190 147q82 -56 162 -125q157 -136 251 -282q117 -180 117 -347q0 -213 -199 -365q-190 -145 -435 -145q-238 0 -387 136q-144 132 -144 345zM220 1352q0 17 11 29q21 25 62 25q83 0 199 -62 l-153 -118q-10 8 -37 28q-42 31 -51 39q-31 30 -31 59zM230 1073q0 30 31 57q6 5 49 39l313 242q55 42 82 42q22 0 44 -22q25 -26 25 -58q0 -18 -8 -26l-26 -20l-26 -20l-342 -266q-57 -38 -74 -38q-30 0 -52 26q-16 20 -16 44zM479 649q0 -98 46 -259q32 -114 64 -146 q27 -27 66 -27q34 0 59 21q31 26 31 87q0 117 -34 249q-35 134 -82 172q-24 20 -56 20q-51 0 -77 -45q-17 -30 -17 -72z" />
<glyph unicode="&#xf1;" horiz-adv-x="1351" vert-adv-y="1436" d="M5 779q0 59 88 95q116 47 183 66q183 50 215 50q26 0 48 -20q23 -20 23 -53q0 -8 -1 -27q-1 -9 -1 -15q0 -47 40 -47q24 0 51 38q42 60 90 86q68 38 159 38q128 0 217 -66q76 -57 98 -137q16 -59 21 -160l14 -352q2 -41 19 -71q7 -11 55 -61q15 -17 15 -44q0 -46 -33 -70 q-46 -34 -163 -44q-72 -6 -167 -6q-135 0 -194 24q-59 25 -59 83q0 19 10 35q2 3 36 39q41 43 41 292q0 83 -19 156q-24 90 -110 90q-70 0 -96 -51q-20 -40 -20 -148v-198q1 -73 17 -105q7 -12 39 -61q12 -18 12 -40q0 -58 -74 -86q-78 -30 -265 -30q-277 0 -277 116 q0 21 11 38q5 9 39 33q29 21 36 56q17 84 17 346q0 60 -9 85q-10 27 -30 39l-33 21q-43 26 -43 66zM275 1219q0 58 27 109q25 48 75 73q43 20 91 20q64 0 143 -34q19 -8 114 -56q55 -28 87 -28q12 0 20 12q7 11 16 66q2 14 24 28q29 18 67 18q74 0 106 -48q23 -34 23 -85 q0 -79 -49 -136q-46 -55 -135 -55q-48 0 -85 12q-35 10 -94 37q-30 14 -95 42q-52 23 -66 30q-21 9 -35 9q-22 0 -22 -27v-27q0 -37 -26 -56q-31 -23 -72 -23q-55 0 -92 45q-22 27 -22 74z" />
<glyph unicode="&#xf2;" horiz-adv-x="1232" vert-adv-y="1436" d="M33 452q0 237 176 387q184 158 448 158q183 0 320 -95q99 -68 159 -177q62 -114 62 -239q0 -217 -199 -369q-190 -145 -435 -145q-238 0 -387 136q-144 132 -144 344zM259 1323q0 36 51 67q65 40 190 40q99 0 142 -30q19 -13 19 -29q0 -8 -11 -27q-5 -10 -5 -18 q0 -14 16 -31q4 -4 49 -37q34 -26 37 -28q34 -27 34 -64q0 -74 -107 -74q-178 0 -330 117q-85 65 -85 114zM479 649q0 -98 46 -259q32 -114 64 -146q27 -27 66 -27q34 0 59 21q31 26 31 87q0 117 -34 249q-35 134 -82 172q-24 20 -56 20q-51 0 -77 -45q-17 -30 -17 -72z" />
<glyph unicode="&#xf3;" horiz-adv-x="1232" vert-adv-y="1436" d="M33 452q0 237 176 387q184 158 448 158q183 0 320 -95q99 -68 159 -177q62 -114 62 -239q0 -217 -199 -369q-190 -145 -435 -145q-238 0 -387 136q-144 132 -144 344zM450 1166q0 38 51 77l19 15q47 34 53 41q13 15 13 27q0 8 -12 30q-4 7 -4 15q0 19 24 32q47 27 142 27 q134 0 198 -48q38 -30 38 -61q0 -47 -85 -112q-152 -117 -332 -117q-105 0 -105 74zM479 649q0 -98 46 -259q32 -114 64 -146q27 -27 66 -27q34 0 59 21q31 26 31 87q0 117 -34 249q-35 134 -82 172q-24 20 -56 20q-51 0 -77 -45q-17 -30 -17 -72z" />
<glyph unicode="&#xf4;" horiz-adv-x="1232" vert-adv-y="1436" d="M33 452q0 237 176 387q184 158 448 158q183 0 320 -95q99 -68 159 -177q62 -114 62 -239q0 -217 -199 -369q-190 -145 -435 -145q-238 0 -387 136q-144 132 -144 344zM239 1172q0 35 34 74q47 53 146 123q133 93 191 93q29 0 101 -39q97 -52 194 -135q87 -74 87 -118 q0 -35 -28 -59q-21 -17 -44 -17q-42 0 -166 60q-50 24 -93 37q-45 14 -51 14q-35 0 -142 -57q-105 -56 -153 -56q-41 0 -62 32q-14 22 -14 48zM479 649q0 -98 46 -259q32 -114 64 -146q27 -27 66 -27q34 0 59 21q31 26 31 87q0 117 -34 249q-35 134 -82 172q-24 20 -56 20 q-51 0 -77 -45q-17 -30 -17 -72z" />
<glyph unicode="&#xf5;" horiz-adv-x="1232" vert-adv-y="1436" d="M33 452q0 237 176 387q184 158 448 158q183 0 320 -95q99 -68 159 -177q62 -114 62 -239q0 -217 -199 -369q-190 -145 -435 -145q-238 0 -387 136q-144 132 -144 344zM219 1219q0 58 27 109q25 48 75 73q43 20 91 20q64 0 143 -34q19 -8 114 -56q55 -28 87 -28 q12 0 20 12q7 11 16 66q2 14 24 28q29 18 67 18q74 0 106 -48q23 -34 23 -85q0 -79 -49 -136q-46 -55 -135 -55q-48 0 -85 12q-35 10 -94 37q-30 14 -95 42q-52 23 -66 30q-21 9 -35 9q-22 0 -22 -27v-27q0 -37 -26 -56q-31 -23 -72 -23q-55 0 -92 45q-22 27 -22 74z M479 649q0 -98 46 -259q32 -114 64 -146q27 -27 66 -27q34 0 59 21q31 26 31 87q0 117 -34 249q-35 134 -82 172q-24 20 -56 20q-51 0 -77 -45q-17 -30 -17 -72z" />
<glyph unicode="&#xf6;" horiz-adv-x="1232" vert-adv-y="1436" d="M33 452q0 237 176 387q184 158 448 158q183 0 320 -95q99 -68 159 -177q62 -114 62 -239q0 -217 -199 -369q-190 -145 -435 -145q-238 0 -387 136q-144 132 -144 344zM154 1257q0 83 63 131t176 48q88 0 132 -45q36 -37 36 -92q0 -83 -74 -131q-81 -52 -186 -52 q-54 0 -93 29q-54 41 -54 112zM479 649q0 -98 46 -259q32 -114 64 -146q27 -27 66 -27q34 0 59 21q31 26 31 87q0 117 -34 249q-35 134 -82 172q-24 20 -56 20q-51 0 -77 -45q-17 -30 -17 -72zM670 1254q0 83 63 130q64 48 176 48q88 0 132 -45q36 -37 36 -91 q0 -84 -74 -131q-81 -52 -186 -52q-54 0 -92 29q-55 40 -55 112z" />
<glyph unicode="&#xf7;" vert-adv-y="1436" d="M20 502q0 15 26 89q33 93 58 111q17 13 40 13q12 0 31 -2q94 -10 163 -10h506q78 0 94 2q21 3 27 3q16 0 27 -12q11 -11 11 -27q0 -26 -24 -98q-28 -83 -51 -103q-15 -13 -34 -13l-159 14h-448q-133 0 -199 -6q-13 -1 -22 -1q-22 0 -35 14q-11 13 -11 26zM361 226 q0 60 38 102q46 51 116 51q65 0 111 -50q38 -42 38 -100q0 -67 -46 -110q-45 -43 -107 -43q-61 0 -106 46q-44 44 -44 104zM361 940q0 60 38 102q46 51 116 51q65 0 111 -50q38 -42 38 -100q0 -67 -46 -110q-45 -43 -107 -43q-61 0 -106 46q-44 44 -44 104z" />
<glyph unicode="&#xf8;" horiz-adv-x="1232" vert-adv-y="1436" d="M10 91q0 20 21 35l1097 805q17 12 32 12q21 0 42 -26q18 -23 18 -45q0 -20 -24 -37l-1096 -803q-14 -10 -28 -10q-20 0 -36 18q-26 29 -26 51zM33 453q0 234 176 386q183 157 442 157q206 0 358 -119l-321 -235q-14 38 -21 53q-32 70 -91 70q-54 0 -80 -45 q-17 -30 -17 -72q0 -47 19 -146l-402 -294q-63 111 -63 245zM211 80l334 245q38 -108 111 -108q89 0 89 112q0 52 -12 133l389 285q76 -126 76 -259q0 -219 -199 -371q-190 -145 -434 -145q-208 0 -354 108z" />
<glyph unicode="&#xf9;" horiz-adv-x="1365" vert-adv-y="1436" d="M5 848q0 56 75 87q47 18 179 36q142 19 254 19q58 0 58 -51v-542q0 -175 114 -175q39 0 72 27q37 30 44 123q3 36 3 123q0 161 -11 223q-6 30 -21 44q-7 7 -31 19q-58 30 -58 78q0 44 63 73q45 20 178 39q130 19 226 19q101 0 101 -106l-2 -46l-1 -49l-2 -69v-441 q0 -34 58 -62q49 -24 49 -70q0 -90 -213 -139q-125 -29 -246 -29q-57 0 -74 23q-6 9 -8 31q-6 62 -39 62q-15 0 -82 -46q-102 -70 -219 -70q-188 0 -269 111q-48 66 -59 164q-8 80 -8 189q0 40 1 101v48q0 72 -13 115q-14 49 -59 73q-41 22 -49 32q-11 15 -11 36zM322 1323 q0 36 51 67q65 40 190 40q99 0 142 -30q19 -13 19 -29q0 -8 -11 -27q-5 -10 -5 -18q0 -14 16 -31q4 -4 49 -37q34 -26 37 -28q34 -27 34 -64q0 -74 -107 -74q-178 0 -330 117q-85 65 -85 114z" />
<glyph unicode="&#xfa;" horiz-adv-x="1365" vert-adv-y="1436" d="M5 848q0 56 75 87q47 18 179 36q142 19 254 19q58 0 58 -51v-542q0 -175 114 -175q39 0 72 27q37 30 44 123q3 36 3 123q0 161 -11 223q-6 30 -21 44q-7 7 -31 19q-58 30 -58 78q0 44 63 73q45 20 178 39q130 19 226 19q101 0 101 -106l-2 -46l-1 -49l-2 -69v-441 q0 -34 58 -62q49 -24 49 -70q0 -90 -213 -139q-125 -29 -246 -29q-57 0 -74 23q-6 9 -8 31q-6 62 -39 62q-15 0 -82 -46q-102 -70 -219 -70q-188 0 -269 111q-48 66 -59 164q-8 80 -8 189q0 40 1 101v48q0 72 -13 115q-14 49 -59 73q-41 22 -49 32q-11 15 -11 36zM513 1166 q0 38 51 77l19 15q47 34 53 41q13 15 13 27q0 8 -12 30q-4 7 -4 15q0 19 24 32q47 27 142 27q134 0 198 -48q38 -30 38 -61q0 -47 -85 -112q-152 -117 -332 -117q-105 0 -105 74z" />
<glyph unicode="&#xfb;" horiz-adv-x="1365" vert-adv-y="1436" d="M5 848q0 56 75 87q47 18 179 36q142 19 254 19q58 0 58 -51v-542q0 -175 114 -175q39 0 72 27q37 30 44 123q3 36 3 123q0 161 -11 223q-6 30 -21 44q-7 7 -31 19q-58 30 -58 78q0 44 63 73q45 20 178 39q130 19 226 19q101 0 101 -106l-2 -46l-1 -49l-2 -69v-441 q0 -34 58 -62q49 -24 49 -70q0 -90 -213 -139q-125 -29 -246 -29q-57 0 -74 23q-6 9 -8 31q-6 62 -39 62q-15 0 -82 -46q-102 -70 -219 -70q-188 0 -269 111q-48 66 -59 164q-8 80 -8 189q0 40 1 101v48q0 72 -13 115q-14 49 -59 73q-41 22 -49 32q-11 15 -11 36zM309 1172 q0 35 34 74q47 53 146 123q133 93 191 93q29 0 101 -39q97 -52 194 -135q87 -74 87 -118q0 -35 -28 -59q-21 -17 -44 -17q-42 0 -166 60q-50 24 -93 37q-45 14 -51 14q-35 0 -142 -57q-105 -56 -153 -56q-41 0 -62 32q-14 22 -14 48z" />
<glyph unicode="&#xfc;" horiz-adv-x="1365" vert-adv-y="1436" d="M5 848q0 56 75 87q47 18 179 36q142 19 254 19q58 0 58 -51v-542q0 -175 114 -175q39 0 72 27q37 30 44 123q3 36 3 123q0 161 -11 223q-6 30 -21 44q-7 7 -31 19q-58 30 -58 78q0 44 63 73q45 20 178 39q130 19 226 19q101 0 101 -106l-2 -46l-1 -49l-2 -69v-441 q0 -34 58 -62q49 -24 49 -70q0 -90 -213 -139q-125 -29 -246 -29q-57 0 -74 23q-6 9 -8 31q-6 62 -39 62q-15 0 -82 -46q-102 -70 -219 -70q-188 0 -269 111q-48 66 -59 164q-8 80 -8 189q0 40 1 101v48q0 72 -13 115q-14 49 -59 73q-41 22 -49 32q-11 15 -11 36zM217 1257 q0 83 63 131t176 48q88 0 132 -45q36 -37 36 -92q0 -83 -74 -131q-81 -52 -186 -52q-54 0 -93 29q-54 41 -54 112zM733 1254q0 83 63 130q64 48 176 48q88 0 132 -45q36 -37 36 -91q0 -84 -74 -131q-81 -52 -186 -52q-54 0 -92 29q-55 40 -55 112z" />
<glyph unicode="&#xfd;" horiz-adv-x="1294" vert-adv-y="1436" d="M14 849q0 31 21 53q52 56 209 75q116 13 218 13q149 0 205 -44q42 -33 42 -75q0 -27 -23 -61q-22 -32 -22 -56q0 -37 34 -103q56 -106 87 -106q43 0 76 87q22 56 22 94q0 45 -25 74q-38 45 -38 77q0 50 56 76q78 37 194 37q212 0 212 -105q0 -32 -21 -56q-17 -21 -79 -44 q-40 -15 -58 -35q-50 -59 -119 -246l-132 -363q-93 -254 -211 -367q-130 -124 -313 -124q-147 0 -240 79q-71 59 -71 152q0 77 51 131q50 52 121 52q70 0 115 -49q29 -31 39 -71l10 -42q6 -25 27 -38q11 -7 22 -7q34 0 57 32q17 24 17 62q0 48 -52 158l-241 513 q-43 87 -65 108q-14 13 -76 41q-17 7 -33 29q-16 23 -16 49zM551 1166q0 38 51 77l19 15q47 34 53 41q13 15 13 27q0 8 -12 30q-4 7 -4 15q0 19 24 32q47 27 142 27q134 0 198 -48q38 -30 38 -61q0 -47 -85 -112q-152 -117 -332 -117q-105 0 -105 74z" />
<glyph unicode="&#xfe;" horiz-adv-x="1356" vert-adv-y="1436" d="M14 1124q0 33 16 55.5t58 48.5q114 72 280 111q109 26 177 26q50 0 61 -18q7 -11 7 -44v-376q0 -36 23 -36q11 0 68 38q32 21 86 41q77 27 147 27q124 0 224 -88q76 -67 118 -169q44 -107 44 -225q0 -166 -82 -304q-83 -140 -219 -202q-80 -36 -165 -36q-84 0 -176 40 q-18 8 -30 8q-29 0 -29 -58q0 -70 36 -103q8 -7 65 -46q20 -14 20 -49q0 -63 -72 -96q-68 -30 -186 -30q-215 0 -379 87q-83 44 -83 110q0 31 18 52q8 9 43 25q46 20 59 67q16 61 19 165l4 217v28v375q-8 222 -18 249q-6 12 -22 16l-39 7q-41 8 -60 40q-13 21 -13 47z M605 305q0 -26 15 -41q29 -28 83 -28q139 0 139 228q0 147 -58 207q-36 37 -87 37q-70 0 -76 -95l-15 -275q-1 -17 -1 -33z" />
<glyph unicode="&#xff;" horiz-adv-x="1294" vert-adv-y="1436" d="M14 849q0 31 21 53q52 56 209 75q116 13 218 13q149 0 205 -44q42 -33 42 -75q0 -27 -23 -61q-22 -32 -22 -56q0 -37 34 -103q56 -106 87 -106q43 0 76 87q22 56 22 94q0 45 -25 74q-38 45 -38 77q0 50 56 76q78 37 194 37q212 0 212 -105q0 -32 -21 -56q-17 -21 -79 -44 q-40 -15 -58 -35q-50 -59 -119 -246l-132 -363q-93 -254 -211 -367q-130 -124 -313 -124q-147 0 -240 79q-71 59 -71 152q0 77 51 131q50 52 121 52q70 0 115 -49q29 -31 39 -71l10 -42q6 -25 27 -38q11 -7 22 -7q34 0 57 32q17 24 17 62q0 48 -52 158l-241 513 q-43 87 -65 108q-14 13 -76 41q-17 7 -33 29q-16 23 -16 49zM227 1257q0 83 63 131t176 48q88 0 132 -45q36 -37 36 -92q0 -83 -74 -131q-81 -52 -186 -52q-54 0 -93 29q-54 41 -54 112zM743 1254q0 83 63 130q64 48 176 48q88 0 132 -45q36 -37 36 -91q0 -84 -74 -131 q-81 -52 -186 -52q-54 0 -92 29q-55 40 -55 112z" />
<glyph unicode="&#x152;" horiz-adv-x="2209" vert-adv-y="1436" d="M37 700q0 210 122 388q113 165 308 243q138 55 279 55q37 0 175 -11q92 -7 148 -7h657q99 1 156 9q24 4 71 22q17 6 34 6q59 0 95 -54q29 -44 48 -105q24 -76 24 -140t-43 -101q-28 -24 -65 -24q-56 0 -101 69q-31 48 -51.5 66.5t-55.5 31.5q-70 25 -213 25 q-105 0 -133 -32q-17 -21 -17 -104v-161q0 -49 11 -59q21 -21 106 -21q60 0 77 33q8 16 17 83q8 51 34 74t56 23q116 0 116 -294q0 -169 -52 -263q-31 -55 -81 -55q-37 0 -55 33q-8 15 -12 61q-10 113 -123 113q-62 0 -77 -44q-10 -31 -10 -95q0 -161 27 -224q12 -29 54 -35 q47 -8 157 -8q87 0 125 20q53 28 88 72q17 21 51 84q46 85 116 85q41 0 65 -28q29 -34 29 -86q0 -82 -46 -187q-80 -185 -165 -185q-17 0 -76 19q-33 9 -71 8h-857q-48 0 -118 -9q-61 -7 -115 -7q-155 0 -298 63q-175 78 -284 245q-127 194 -127 408zM517 898 q0 -153 71 -351q45 -123 109 -199q68 -80 148 -80q73 0 120 56q49 58 49 147q0 177 -74 370q-104 269 -260 269q-56 0 -100 -39q-63 -56 -63 -173z" />
<glyph unicode="&#x153;" horiz-adv-x="1811" vert-adv-y="1436" d="M28 450q0 185 109 324q174 222 513 222q167 0 308 -85q9 -5 14 -5q7 0 20 8q131 83 325 83q165 0 298 -104q76 -59 121 -139q42 -74 42 -155q0 -63 -27 -113q-20 -38 -67 -38h-469q-34 0 -34 -22q0 -53 54 -111q68 -73 171 -73q111 0 211 67q28 19 44 19q17 0 34 -18 q43 -43 43 -88q0 -40 -47 -91q-70 -76 -202 -122q-103 -36 -207 -36q-85 0 -175 25q-92 26 -138 59q-17 13 -25 13t-25 -10q-72 -44 -199 -72q-75 -16 -160 -16q-209 0 -349 107q-183 139 -183 371zM478 657q0 -95 37 -248q29 -122 68 -161q30 -31 70 -31q85 0 85 123 q0 135 -46 283q-30 96 -62 123q-28 23 -63 23q-44 0 -68 -36q-21 -32 -21 -76zM1178 694q0 -35 16 -47q12 -8 66 -8h81q43 0 55 14q9 11 9 36q0 55 -30 93q-29 37 -77 37q-58 0 -94 -45q-26 -33 -26 -80z" />
<glyph unicode="&#x178;" horiz-adv-x="1626" vert-adv-y="1436" d="M14 1260q0 54 64 84q88 42 378 42q276 0 347 -40q53 -30 53 -76q0 -27 -22 -54q-33 -41 -33 -59q0 -36 57 -115q38 -51 71 -51q36 0 92 71q40 50 40 78q0 25 -13 41l-24 29q-20 24 -20 63q0 54 63 81q77 32 247 32q199 0 243 -26q54 -33 54 -89q0 -45 -37 -70 q-19 -13 -75 -24q-67 -12 -115 -56q-158 -146 -274 -300q-38 -51 -52 -104q-15 -56 -15 -149q0 -127 9 -226q5 -64 22 -89q13 -21 55 -43q73 -38 73 -96q0 -135 -402 -135q-139 0 -259 21q-121 22 -151 55q-25 27 -25 62q0 64 76 90q56 20 71 51q31 70 31 330q0 88 -21 135 q-30 65 -149 206q-105 123 -174 184q-36 31 -75 46q-68 25 -82 37q-28 24 -28 64zM369 1352q0 78 63 126q43 32 103 52q65 21 117 21q72 0 116 -30q50 -33 50 -104q0 -83 -72 -129q-103 -67 -226 -67q-67 0 -111 38q-40 34 -40 93zM942 1366q0 78 63 126q43 32 103 52 q65 21 117 21q72 0 116 -30q50 -33 50 -104q0 -84 -72 -130q-103 -66 -227 -66q-66 0 -110 38q-40 34 -40 93z" />
<glyph unicode="&#x2c6;" vert-adv-y="1436" d="M135 1172q0 35 34 74q47 53 146 123q133 93 191 93q29 0 101 -39q97 -52 194 -135q87 -74 87 -118q0 -35 -28 -59q-21 -17 -44 -17q-42 0 -166 60q-50 24 -93 37q-45 14 -51 14q-35 0 -142 -57q-105 -56 -153 -56q-41 0 -62 32q-14 22 -14 48z" />
<glyph unicode="&#x2dc;" vert-adv-y="1436" d="M116 1219q0 58 27 109q25 48 75 73q43 20 91 20q64 0 143 -34q19 -8 114 -56q55 -28 87 -28q12 0 20 12q7 11 16 66q2 14 24 28q29 18 67 18q74 0 106 -48q23 -34 23 -85q0 -79 -49 -136q-46 -55 -135 -55q-48 0 -85 12q-35 10 -94 37q-30 14 -95 42q-52 23 -66 30 q-21 9 -35 9q-22 0 -22 -27v-27q0 -37 -26 -56q-31 -23 -72 -23q-55 0 -92 45q-22 27 -22 74z" />
<glyph unicode="&#x2000;" horiz-adv-x="855" vert-adv-y="0" />
<glyph unicode="&#x2001;" horiz-adv-x="1711" vert-adv-y="0" />
<glyph unicode="&#x2002;" horiz-adv-x="855" vert-adv-y="0" />
<glyph unicode="&#x2003;" horiz-adv-x="1711" vert-adv-y="0" />
<glyph unicode="&#x2004;" horiz-adv-x="570" vert-adv-y="0" />
<glyph unicode="&#x2005;" horiz-adv-x="427" vert-adv-y="0" />
<glyph unicode="&#x2006;" horiz-adv-x="285" vert-adv-y="0" />
<glyph unicode="&#x2007;" horiz-adv-x="285" vert-adv-y="0" />
<glyph unicode="&#x2008;" horiz-adv-x="213" vert-adv-y="0" />
<glyph unicode="&#x2009;" horiz-adv-x="342" vert-adv-y="0" />
<glyph unicode="&#x200a;" horiz-adv-x="95" vert-adv-y="0" />
<glyph unicode="&#x2010;" horiz-adv-x="631" vert-adv-y="1436" d="M23 402q0 25 20 98q39 142 96 194q23 20 64 20q17 0 47 -3q128 -13 185 -13q65 0 94 5q33 5 44 5q32 0 32 -47q0 -96 -69 -236q-26 -55 -46 -70q-15 -12 -33 -12t-49 5q-87 15 -203 15q-50 0 -91 -4q-34 -3 -50 -3q-41 0 -41 46z" />
<glyph unicode="&#x2011;" horiz-adv-x="631" vert-adv-y="1436" d="M23 402q0 25 20 98q39 142 96 194q23 20 64 20q17 0 47 -3q128 -13 185 -13q65 0 94 5q33 5 44 5q32 0 32 -47q0 -96 -69 -236q-26 -55 -46 -70q-15 -12 -33 -12t-49 5q-87 15 -203 15q-50 0 -91 -4q-34 -3 -50 -3q-41 0 -41 46z" />
<glyph unicode="&#x2012;" horiz-adv-x="631" vert-adv-y="1436" d="M23 402q0 25 20 98q39 142 96 194q23 20 64 20q17 0 47 -3q128 -13 185 -13q65 0 94 5q33 5 44 5q32 0 32 -47q0 -96 -69 -236q-26 -55 -46 -70q-15 -12 -33 -12t-49 5q-87 15 -203 15q-50 0 -91 -4q-34 -3 -50 -3q-41 0 -41 46z" />
<glyph unicode="&#x2013;" horiz-adv-x="1188" vert-adv-y="1436" d="M23 415q0 22 38 131q49 135 85 163q25 18 58 18q18 0 45 -3q139 -14 239 -14h442q113 0 139 4q29 4 39 4q23 0 39 -17q16 -16 16 -40q0 -39 -35 -144q-41 -121 -75 -151q-21 -19 -49 -19l-233 20h-358q-189 0 -290 -8q-19 -2 -32 -2q-34 0 -52 21q-16 18 -16 37z" />
<glyph unicode="&#x2014;" horiz-adv-x="1797" vert-adv-y="1436" d="M23 415q0 22 38 131q49 135 85 163q25 18 58 18q18 0 45 -3q139 -14 239 -14h1051q113 0 139 4q29 4 39 4q23 0 39 -17q16 -16 16 -40q0 -39 -35 -144q-41 -122 -75 -151q-22 -19 -49 -19l-233 20h-967q-189 0 -290 -8q-19 -2 -32 -2q-34 0 -52 21q-16 18 -16 37z" />
<glyph unicode="&#x2018;" horiz-adv-x="502" vert-adv-y="1436" d="M23 862q0 242 233 474q57 57 115 57q36 0 64 -20t28 -45q0 -14 -20 -34q-67 -68 -88 -106q-28 -51 -28 -92q0 -31 34 -57q62 -48 86 -88q31 -53 31 -117q0 -100 -66 -166q-63 -63 -155 -63q-106 0 -174 83q-60 74 -60 174z" />
<glyph unicode="&#x2019;" horiz-adv-x="503" vert-adv-y="1436" d="M23 1163q0 102 66 167q63 63 158 63q102 0 171 -83q60 -74 60 -174q0 -171 -117 -340q-67 -96 -141 -155q-45 -36 -89 -36q-37 0 -64 20q-29 20 -29 45q0 14 20 34q66 66 88 106q28 52 28 92q0 31 -34 57q-62 48 -86 88q-31 53 -31 116z" />
<glyph unicode="&#x201a;" horiz-adv-x="536" vert-adv-y="1436" d="M23 224q0 90 59 154q73 80 177 80q66 0 127 -42q67 -46 101 -141q24 -69 24 -144q0 -92 -39 -208q-58 -170 -137 -243q-45 -41 -96 -41q-45 0 -75 29q-24 23 -24 48q0 16 38 76q31 48 51 108q8 24 8 40q0 38 -34 50q-67 25 -95 49q-85 72 -85 185z" />
<glyph unicode="&#x201c;" horiz-adv-x="896" vert-adv-y="1436" d="M23 862q0 242 233 474q57 57 115 57q36 0 64 -20t28 -45q0 -14 -20 -34q-67 -68 -88 -106q-28 -51 -28 -92q0 -31 34 -57q62 -48 86 -88q31 -53 31 -117q0 -100 -66 -166q-63 -63 -155 -63q-106 0 -174 83q-60 74 -60 174zM439 1007q56 183 210 328q61 58 115 58 q36 0 63 -20q29 -20 29 -45q0 -14 -20 -34q-66 -67 -87 -106q-28 -52 -28 -92q0 -31 34 -57q62 -47 86 -89q31 -52 31 -116q0 -100 -66 -166q-63 -63 -155 -63q-111 0 -182 93q37 64 37 137q0 96 -67 172z" />
<glyph unicode="&#x201d;" horiz-adv-x="896" vert-adv-y="1436" d="M23 1163q0 102 66 167q63 63 158 63q103 0 171 -83q60 -74 60 -175q0 -170 -117 -339q-67 -96 -141 -155q-45 -36 -89 -36q-37 0 -64 20q-29 20 -29 45q0 14 20 34q66 66 88 106q28 52 28 92q0 31 -34 57q-62 48 -86 88q-31 53 -31 116zM432 669q0 14 19 34q69 70 88 106 q28 52 28 92q0 31 -34 57q-26 21 -47 40q20 73 20 130q0 93 -48 173q72 92 180 92q106 0 173 -83q61 -75 61 -174q0 -172 -117 -340q-67 -97 -141 -156q-45 -36 -90 -36q-35 0 -63 20q-29 20 -29 45z" />
<glyph unicode="&#x201e;" horiz-adv-x="896" vert-adv-y="1436" d="M23 197q0 102 66 167q63 63 158 63q103 0 171 -83q60 -74 60 -175q0 -170 -117 -339q-67 -96 -141 -155q-45 -36 -89 -36q-37 0 -64 20q-29 20 -29 45q0 14 20 34q66 66 88 106q28 52 28 92q0 31 -34 57q-62 48 -86 89q-31 52 -31 115zM432 -296q0 14 19 34q68 69 88 106 q28 52 28 91q0 31 -34 58q-26 20 -47 39q20 74 20 131q0 92 -48 172q72 92 180 92q106 0 173 -83q61 -74 61 -174q0 -171 -117 -339q-67 -97 -141 -156q-45 -36 -90 -36q-36 0 -63 20q-29 20 -29 45z" />
<glyph unicode="&#x2022;" horiz-adv-x="1365" vert-adv-y="1436" d="M401 694q0 120 84 202q86 82 204 82q113 0 196 -83q84 -83 84 -201t-83 -201t-201 -83q-116 0 -199 82q-85 84 -85 202z" />
<glyph unicode="&#x2026;" horiz-adv-x="1692" vert-adv-y="1436" d="M23 231q0 115 78 187q79 73 184 73q68 0 136 -41q64 -38 96 -108q25 -54 25 -111q0 -112 -78 -186q-34 -33 -84.5 -53t-96.5 -20q-71 0 -139 41q-64 38 -96 108q-25 54 -25 110zM587 231q0 115 78 187q79 73 184 73q68 0 136 -41q64 -38 96 -108q25 -54 25 -111 q0 -112 -78 -186q-30 -29 -74 -48q-55 -25 -107 -25q-70 0 -139 41q-64 38 -96 108q-25 54 -25 110zM1151 231q0 115 78 187q79 73 184 73q68 0 136 -41q64 -38 96 -108q25 -54 25 -111q0 -112 -78 -186q-30 -29 -74 -48q-55 -25 -107 -25q-70 0 -139 41q-64 38 -96 108 q-25 54 -25 110z" />
<glyph unicode="&#x202f;" horiz-adv-x="342" vert-adv-y="0" />
<glyph unicode="&#x2039;" horiz-adv-x="545" vert-adv-y="1436" d="M14 534q0 43 38 102q39 61 163 186q95 97 157 136q25 15 57 15q35 0 65 -25q30 -23 30 -58q0 -31 -17 -59q-17 -29 -95 -145q-67 -100 -67 -152q0 -30 30 -85q31 -55 136 -215q19 -29 19 -60q0 -40 -37 -69q-24 -19 -48 -19q-49 0 -151 84q-93 77 -180 175 q-100 115 -100 189z" />
<glyph unicode="&#x203a;" horiz-adv-x="545" vert-adv-y="1436" d="M14 174q0 31 19 60l86 131q80 122 80 169q0 52 -67 152q-76 113 -95 146q-17 28 -17 58q0 35 29 58q31 25 69 25q47 0 129 -72q79 -69 186 -191q97 -111 97 -176q0 -90 -163 -256q-190 -192 -268 -192q-24 0 -48 19q-37 28 -37 69z" />
<glyph unicode="&#x205f;" horiz-adv-x="427" vert-adv-y="0" />
<glyph unicode="&#x20ac;" horiz-adv-x="1446" vert-adv-y="1436" d="M14 742l49 120h169q45 161 149 284t247 188q140 64 298 64q284 0 506 -213l-51 -122q-185 215 -457 215q-257 0 -436 -191q-91 -97 -131 -225h780h159l-49 -120h-915q-2 -37 -2 -58t2 -60h866l-50 -120h-791q28 -94 95 -183q77 -101 189 -161q132 -72 282 -72 q275 0 458 215v-170q-213 -166 -455 -166q-223 0 -406 126q-215 148 -288 411h-216l49 120h146q-2 40 -2 61q0 24 2 57h-197z" />
<glyph unicode="&#x2122;" horiz-adv-x="1811" vert-adv-y="1436" d="M0 1154q0 82 62 165q45 61 90 61q12 0 28 -3q37 -8 100 -12h317q51 2 93 13q18 5 33 5q17 0 39 -14q-44 -32 -44 -73q0 -53 58 -78q19 -9 23 -16q14 -24 15 -124q-24 -9 -42 -9q-59 0 -101 76q-23 42 -35 52q-11 8 -24 8q-41 0 -41 -80v-335q0 -52 12 -78q8 -20 39 -33 q33 -14 42 -25q14 -16 14 -37q0 -84 -237 -84q-282 0 -282 91q0 14 8 25q10 13 56 27q24 8 33 29q12 29 19 164q7 144 7 226q0 76 -13 98q-7 13 -23 13q-23 0 -46 -34q-41 -61 -66 -81q-31 -23 -60 -23q-33 0 -55 27q-19 23 -19 59zM741 599q0 19 16 31q4 3 30 15 q22 11 29 30q10 28 16 144q9 147 9 256q0 98 -15 134q-8 18 -39 33q-42 20 -42 54q0 33 39 54q21 11 71 19q56 8 94 8q75 0 108 -12q24 -10 50 -58l125 -230q21 -39 28 -46q10 -8 21 -8q22 0 44 42l84 165q20 39 21 41q29 60 58 80q37 26 131 26q172 0 172 -77 q0 -29 -33 -54q-28 -21 -35 -61q-14 -84 -14 -196q0 -160 15 -274q4 -31 18 -46q3 -4 31 -23q22 -14 22 -38q0 -42 -56 -60q-49 -15 -161 -15q-204 0 -204 69q0 22 44 58q21 17 24 66q3 60 3 105q0 48 -4 61q-4 18 -19 18t-27 -16q-18 -23 -52 -100l-72 -161 q-31 -69 -54 -69q-16 0 -27 15q-23 32 -67 130l-79 178q-16 37 -35 37q-15 0 -20 -21q-5 -26 -5 -144q0 -61 6 -82q5 -19 49 -41q20 -11 20 -36q0 -67 -173 -67q-145 0 -145 66z" />
<glyph unicode="&#x25fc;" horiz-adv-x="990" vert-adv-y="1980" d="M0 0v990h990v-990h-990z" />
</font>
</defs>
</svg>
